<svg width="62" height="33" viewBox="0 0 62 33" fill="none" xmlns="http://www.w3.org/2000/svg">
<path d="M21.3125 19.6584C21.3125 20.7284 22.1799 21.5998 23.25 21.5998C24.3201 21.5998 25.1875 20.7284 25.1875 19.6584C25.1875 18.5883 24.3201 17.717 23.25 17.717C22.1799 17.717 21.3125 18.5883 21.3125 19.6584Z" fill="url(#paint0_linear_1634_4917)"/>
<path d="M36.8125 19.6584C36.8125 20.7284 37.6799 21.5998 38.75 21.5998C39.8201 21.5998 40.6875 20.7284 40.6875 19.6584C40.6875 18.5883 39.8201 17.717 38.75 17.717C37.6799 17.717 36.8125 18.5883 36.8125 19.6584Z" fill="url(#paint1_linear_1634_4917)"/>
<path d="M52.3125 25.4826C52.3092 19.4798 48.7762 12.7576 44.3375 8.72614L51.0006 2.0477C52.5 0.499996 51.0006 -1.00001 49.259 0.302553L42.2181 7.35957C35.3578 3.04976 26.6422 3.04976 19.7819 7.35957L12.741 0.302553C11.5 -1.00001 9.6875 0.302555 11.0014 2.0477L17.6625 8.72614C13.2238 12.7576 9.69077 19.4798 9.6875 25.4826H0.941406C0.421482 25.4826 0 25.9041 0 26.424C0 26.9439 0.421482 27.3654 0.941406 27.3654H61.0586C61.5785 27.3654 62 26.9439 62 26.424C62 25.9041 61.5785 25.4826 61.0586 25.4826H52.3125ZM12.5625 25.4826C12.5625 15.8327 21.3695 7.00994 31 7.00994C40.6305 7.00994 49.4375 15.8327 49.4375 25.4826H12.5625Z" fill="url(#paint2_linear_1634_4917)"/>
<path d="M61 31H59C58.4477 31 58 31.4477 58 32C58 32.5523 58.4477 33 59 33H61C61.5523 33 62 32.5523 62 32C62 31.4477 61.5523 31 61 31Z" fill="url(#paint3_linear_1634_4917)"/>
<path d="M3 31H1C0.447715 31 0 31.4477 0 32C0 32.5523 0.447715 33 1 33H3C3.55228 33 4 32.5523 4 32C4 31.4477 3.55228 31 3 31Z" fill="url(#paint4_linear_1634_4917)"/>
<path d="M53 31H9C8.44772 31 8 31.4477 8 32C8 32.5523 8.44772 33 9 33H53C53.5523 33 54 32.5523 54 32C54 31.4477 53.5523 31 53 31Z" fill="url(#paint5_linear_1634_4917)"/>
<defs>
<linearGradient id="paint0_linear_1634_4917" x1="23.25" y1="17.717" x2="23.25" y2="21.5998" gradientUnits="userSpaceOnUse">
<stop offset="0.0694443" stop-color="white"/>
<stop offset="1" stop-color="#47F258"/>
</linearGradient>
<linearGradient id="paint1_linear_1634_4917" x1="38.75" y1="17.717" x2="38.75" y2="21.5998" gradientUnits="userSpaceOnUse">
<stop offset="0.0694443" stop-color="white"/>
<stop offset="1" stop-color="#47F258"/>
</linearGradient>
<linearGradient id="paint2_linear_1634_4917" x1="31" y1="-0.22641" x2="31" y2="27.3654" gradientUnits="userSpaceOnUse">
<stop offset="0.0694443" stop-color="white"/>
<stop offset="1" stop-color="#47F258"/>
</linearGradient>
<linearGradient id="paint3_linear_1634_4917" x1="60" y1="31" x2="60" y2="33" gradientUnits="userSpaceOnUse">
<stop offset="0.0694443" stop-color="white"/>
<stop offset="1" stop-color="#47F258"/>
</linearGradient>
<linearGradient id="paint4_linear_1634_4917" x1="2" y1="31" x2="2" y2="33" gradientUnits="userSpaceOnUse">
<stop offset="0.0694443" stop-color="white"/>
<stop offset="1" stop-color="#47F258"/>
</linearGradient>
<linearGradient id="paint5_linear_1634_4917" x1="31" y1="31" x2="31" y2="33" gradientUnits="userSpaceOnUse">
<stop offset="0.0694443" stop-color="white"/>
<stop offset="1" stop-color="#47F258"/>
</linearGradient>
</defs>
</svg>
