<svg width="619" height="598" viewBox="0 0 619 598" fill="none" xmlns="http://www.w3.org/2000/svg">
<g clip-path="url(#clip0_1742_720)">
<g filter="url(#filter0_f_1742_720)">
<path d="M294.55 -4.51868L343.233 191.778L524.218 108.17L403.942 269.34L580.941 361.38L382.275 366.057L422.006 564.438L294.55 409.101L167.093 564.438L206.824 366.057L8.15723 361.38L185.157 269.34L64.8807 108.17L245.865 191.778L294.55 -4.51868Z" fill="white" fill-opacity="0.4"/>
</g>
<g filter="url(#filter1_f_1742_720)">
<path d="M301.277 -0.390625C291.579 38.5914 297.074 120.47 297.074 258.461H302.678C302.678 120.47 310.402 40.3106 301.277 -0.390625Z" fill="white" fill-opacity="0.2"/>
<path d="M301.277 598.205C291.579 559.223 297.074 477.344 297.074 339.353H302.678C302.678 477.344 310.402 557.504 301.277 598.205Z" fill="white" fill-opacity="0.2"/>
<path d="M225.226 9.63684C225.761 49.8478 251.868 127.488 286.922 260.778L292.336 259.3C257.282 126.01 244.379 46.5452 225.226 9.63684Z" fill="white" fill-opacity="0.2"/>
<path d="M377.286 587.836C358.016 552.739 342.524 472.201 307.47 338.912L312.884 337.434C347.937 470.723 375.76 546.116 377.286 587.836Z" fill="white" fill-opacity="0.2"/>
<path d="M154.313 39.3765C165.045 78.0767 209.984 146.187 277.703 265.691L282.556 262.835C214.838 143.331 182.189 69.9761 154.313 39.3765Z" fill="white" fill-opacity="0.2"/>
<path d="M448.069 557.777C420.541 528.957 385.117 455.249 317.399 335.745L322.252 332.889C389.971 452.393 435.998 517.88 448.069 557.777Z" fill="white" fill-opacity="0.2"/>
<path d="M93.3691 86.8043C113.567 121.355 174.278 175.294 270.045 272.868L274.008 268.831C178.24 171.256 128.069 109.01 93.3691 86.8043Z" fill="white" fill-opacity="0.2"/>
<path d="M508.807 510.074C474.895 489.497 421.954 427.641 326.187 330.066L330.149 326.029C425.917 423.603 487.011 474.721 508.807 510.074Z" fill="white" fill-opacity="0.2"/>
<path d="M46.5503 148.685C74.836 176.733 147.18 212.824 264.471 281.82L267.274 276.875C149.983 207.88 85.7079 160.985 46.5503 148.685Z" fill="white" fill-opacity="0.2"/>
<path d="M555.354 447.982C517.37 437.048 450.52 391.26 333.229 322.265L336.03 317.32C453.322 386.316 525.319 419.581 555.354 447.982Z" fill="white" fill-opacity="0.2"/>
<path d="M17.0483 220.804C51.4951 240.437 130.542 256.221 261.364 291.936L262.814 286.42C131.993 250.706 57.9964 222.359 17.0483 220.804Z" fill="white" fill-opacity="0.2"/>
<path d="M584.542 375.732C545.075 375.186 468.873 348.587 338.05 312.873L339.501 307.357C470.323 343.072 548.316 356.218 584.542 375.732Z" fill="white" fill-opacity="0.2"/>
<path d="M594.383 299.569C556.123 289.69 475.76 295.287 340.323 295.288V300.998C475.76 300.998 554.436 308.866 594.383 299.569Z" fill="white" fill-opacity="0.2"/>
<path d="M6.86914 299.569C45.1295 289.69 125.494 295.287 260.929 295.288V300.998C125.494 300.998 46.8169 308.866 6.86914 299.569Z" fill="white" fill-opacity="0.2"/>
<path d="M584.542 222.083C545.075 222.629 468.872 249.229 338.05 284.943L339.501 290.459C470.322 254.743 548.316 241.597 584.542 222.083Z" fill="white" fill-opacity="0.2"/>
<path d="M17.0469 377.012C51.4936 357.379 130.541 341.593 261.362 305.879L262.812 311.394C131.991 347.109 57.9949 375.457 17.0469 377.012Z" fill="white" fill-opacity="0.2"/>
<path d="M555.354 149.832C517.37 160.767 450.52 206.554 333.229 275.55L336.03 280.495C453.322 211.5 525.319 178.235 555.354 149.832Z" fill="white" fill-opacity="0.2"/>
<path d="M46.5513 449.131C74.837 421.083 147.182 384.99 264.473 315.995L267.274 320.941C149.983 389.936 85.7096 436.831 46.5513 449.131Z" fill="white" fill-opacity="0.2"/>
<path d="M508.805 87.7399C474.893 108.319 421.953 170.174 326.185 267.749L330.147 271.786C425.915 174.211 487.009 123.095 508.805 87.7399Z" fill="white" fill-opacity="0.2"/>
<path d="M93.3691 511.011C113.566 476.461 174.276 422.522 270.045 324.948L274.007 328.985C178.24 426.56 128.068 488.805 93.3691 511.011Z" fill="white" fill-opacity="0.2"/>
<path d="M448.069 40.0389C420.54 68.8581 385.117 142.567 317.398 262.071L322.252 264.925C389.97 145.421 435.997 79.9358 448.069 40.0389Z" fill="white" fill-opacity="0.2"/>
<path d="M154.311 558.438C165.042 519.739 209.982 451.629 277.7 332.125L282.554 334.979C214.836 454.483 182.186 527.838 154.311 558.438Z" fill="white" fill-opacity="0.2"/>
<path d="M377.285 9.97998C358.015 45.0765 342.523 125.615 307.469 258.904L312.883 260.382C347.935 127.093 375.758 51.7004 377.285 9.97998Z" fill="white" fill-opacity="0.2"/>
<path d="M225.225 588.178C225.761 547.967 251.868 470.328 286.92 337.038L292.334 338.516C257.28 471.806 244.377 551.27 225.225 588.178Z" fill="white" fill-opacity="0.2"/>
</g>
<path d="M414.581 33.9041L382.823 103.852C381.423 107.658 384.224 109.561 386.093 105.754L414.581 33.9041Z" fill="#D9D9D9"/>
<path d="M195.547 566.531L227.305 496.583C228.707 492.777 225.904 490.873 224.035 494.681L195.547 566.531Z" fill="#D9D9D9"/>
<path d="M566.368 188.442L495.602 215.663C491.984 217.378 492.674 220.737 496.624 219.354L566.368 188.442Z" fill="#D9D9D9"/>
<path d="M43.7612 411.993L114.528 384.771C118.146 383.057 117.455 379.698 113.505 381.08L43.7612 411.993Z" fill="#D9D9D9"/>
<path d="M564.49 416.445L496.404 382.869C492.693 381.375 490.777 384.196 494.479 386.166L564.49 416.445Z" fill="#D9D9D9"/>
<path d="M45.6387 183.989L113.724 217.565C117.435 219.059 119.352 216.238 115.65 214.269L45.6387 183.989Z" fill="#D9D9D9"/>
<path d="M414.511 566.561L387.864 494.432C386.184 490.745 382.887 491.444 384.24 495.472L414.511 566.561Z" fill="#D9D9D9"/>
<path d="M195.619 33.8737L222.265 106.001C223.945 109.69 227.242 108.991 225.889 104.963L195.619 33.8737Z" fill="#D9D9D9"/>
<path d="M549.706 262.805C549.619 262.12 548.994 261.636 548.309 261.722C548.308 261.723 548.307 261.723 548.306 261.723C545.51 240.505 540.127 220.122 532.492 200.914C532.493 200.914 532.494 200.914 532.495 200.913C533.135 200.655 533.445 199.927 533.187 199.287C524.896 178.725 514.032 159.518 501.002 142.082C500.589 141.529 499.805 141.416 499.252 141.829C499.251 141.829 499.251 141.83 499.25 141.831C486.554 125.014 471.825 109.873 455.438 96.7896C455.439 96.7887 455.44 96.7879 455.44 96.7871C455.868 96.2455 455.776 95.4594 455.235 95.0314C438.076 81.4716 419.131 70.1454 398.818 61.4819C398.183 61.2111 397.449 61.5063 397.178 62.1413C397.177 62.1423 397.177 62.1433 397.177 62.1442C378.072 54.1117 357.767 48.4421 336.611 45.493C336.611 45.492 336.611 45.4909 336.611 45.4898C336.703 44.8056 336.223 44.1765 335.539 44.0847C324.794 42.6432 313.835 41.8994 302.705 41.8994C291.576 41.8994 280.616 42.6432 269.872 44.0847C269.187 44.1765 268.707 44.8056 268.799 45.4898C268.799 45.4909 268.799 45.492 268.799 45.493C247.643 48.4421 227.338 54.1117 208.234 62.1442C208.233 62.1433 208.233 62.1423 208.232 62.1413C207.962 61.5063 207.227 61.2111 206.592 61.4819C186.28 70.1454 167.334 81.4716 150.176 95.0313C149.634 95.4594 149.542 96.2455 149.97 96.7871C149.971 96.7879 149.971 96.7887 149.972 96.7896C133.585 109.873 118.857 125.014 106.161 141.831C106.16 141.83 106.159 141.829 106.158 141.829C105.605 141.415 104.822 141.529 104.409 142.082C91.3788 159.518 80.5143 178.725 72.2236 199.287C71.9654 199.927 72.2751 200.655 72.9154 200.913C72.9164 200.914 72.9173 200.914 72.9183 200.914C65.2831 220.122 59.9005 240.505 57.1045 261.723C57.1035 261.723 57.1025 261.723 57.1015 261.722C56.4166 261.636 55.791 262.12 55.7041 262.805C54.3407 273.555 53.6377 284.515 53.6377 295.641C53.6377 306.768 54.3407 317.728 55.7041 328.477C55.791 329.162 56.4166 329.647 57.1015 329.56C57.1025 329.56 57.1035 329.56 57.1045 329.559C59.9006 350.777 65.2831 371.16 72.9183 390.368C72.9173 390.368 72.9164 390.369 72.9154 390.369C72.2751 390.627 71.9654 391.355 72.2236 391.996C80.5144 412.557 91.3788 431.764 104.409 449.2C104.822 449.753 105.605 449.867 106.158 449.454C106.159 449.453 106.16 449.452 106.161 449.452C118.857 466.268 133.585 481.409 149.972 494.493C149.971 494.494 149.971 494.494 149.97 494.495C149.542 495.037 149.634 495.823 150.176 496.251C167.334 509.811 186.28 521.137 206.592 529.8C207.227 530.071 207.962 529.776 208.232 529.141C208.233 529.14 208.233 529.139 208.234 529.138C227.338 537.171 247.643 542.84 268.799 545.789C268.799 545.79 268.799 545.791 268.799 545.792C268.707 546.477 269.187 547.106 269.872 547.198C280.616 548.639 291.576 549.383 302.705 549.383C313.835 549.383 324.794 548.639 335.539 547.198C336.223 547.106 336.703 546.477 336.611 545.792C336.611 545.791 336.611 545.79 336.611 545.789C357.767 542.84 378.072 537.171 397.177 529.138C397.177 529.139 397.177 529.14 397.178 529.141C397.449 529.776 398.183 530.071 398.818 529.8C419.131 521.137 438.076 509.811 455.235 496.251C455.776 495.823 455.868 495.037 455.44 494.495C455.44 494.494 455.439 494.494 455.438 494.493C471.825 481.409 486.554 466.268 499.25 449.452C499.251 449.452 499.251 449.453 499.252 449.454C499.805 449.867 500.589 449.753 501.002 449.2C514.032 431.764 524.896 412.557 533.187 391.996C533.445 391.355 533.135 390.627 532.495 390.369C532.494 390.369 532.493 390.368 532.492 390.368C540.127 371.16 545.51 350.777 548.306 329.559C548.307 329.56 548.308 329.56 548.309 329.56C548.994 329.647 549.619 329.162 549.706 328.477C551.07 317.728 551.773 306.768 551.773 295.641C551.773 284.515 551.07 273.555 549.706 262.805Z" stroke="white" stroke-width="2.5" stroke-linecap="round" stroke-dasharray="70 70"/>
<path d="M302.497 537.002C432.056 537.002 537.084 429.993 537.084 297.99C537.084 165.987 432.056 58.9781 302.497 58.9781C172.938 58.9781 67.9092 165.987 67.9092 297.99C67.9092 429.993 172.938 537.002 302.497 537.002Z" stroke="white" stroke-width="3"/>
<path d="M529.375 271.466C530.223 278.935 530.717 286.511 530.84 294.18L530.109 294.192C530.129 295.456 530.139 296.723 530.139 297.99C530.139 299.259 530.129 300.526 530.109 301.789L530.84 301.801C530.717 309.469 530.223 317.046 529.375 324.515L528.649 324.43C528.364 326.941 528.04 329.439 527.674 331.925L528.398 332.036C527.288 339.601 525.815 347.048 523.996 354.356L523.287 354.173C522.677 356.625 522.028 359.06 521.341 361.48L522.042 361.688C519.959 369.017 517.526 376.199 514.761 383.21L514.083 382.932C513.16 385.275 512.198 387.6 511.201 389.905L511.871 390.204C508.855 397.174 505.508 403.964 501.85 410.554L501.214 410.186C499.995 412.383 498.74 414.558 497.452 416.709L498.077 417.098C494.19 423.59 489.996 429.871 485.513 435.925L484.93 435.477C483.438 437.492 481.915 439.481 480.361 441.444L480.93 441.912C476.248 447.821 471.286 453.492 466.062 458.907L465.542 458.386C463.806 460.184 462.041 461.953 460.249 463.695L460.753 464.234C455.366 469.467 449.724 474.437 443.848 479.121L443.397 478.535C441.448 480.088 439.475 481.612 437.475 483.102L437.906 483.703C431.906 488.175 425.68 492.36 419.25 496.234L418.877 495.594C416.749 496.876 414.598 498.125 412.425 499.34L412.776 499.993C406.266 503.63 399.562 506.957 392.683 509.952L392.395 509.268C390.123 510.258 387.832 511.211 385.522 512.127L385.788 512.821C378.881 515.562 371.811 517.974 364.596 520.037L364.398 519.32C362.018 520.001 359.623 520.643 357.212 521.248L357.386 521.971C350.203 523.77 342.886 525.228 335.453 526.325L335.347 525.587C332.906 525.948 330.451 526.27 327.985 526.551L328.066 527.291C320.733 528.129 313.295 528.617 305.769 528.738L305.759 527.995C304.517 528.014 303.275 528.024 302.029 528.024C300.785 528.024 299.542 528.014 298.301 527.995L298.289 528.738C290.764 528.617 283.325 528.129 275.993 527.291L276.075 526.551C273.608 526.27 271.153 525.948 268.71 525.587L268.606 526.325C261.172 525.228 253.856 523.77 246.673 521.971L246.847 521.248C244.436 520.643 242.039 520.001 239.661 519.32L239.463 520.037C232.248 517.974 225.178 515.562 218.271 512.821L218.537 512.127C216.227 511.211 213.936 510.258 211.664 509.268L211.376 509.952C204.497 506.957 197.792 503.63 191.283 499.993L191.634 499.34C189.461 498.125 187.309 496.876 185.18 495.594L184.809 496.234C178.379 492.36 172.153 488.175 166.153 483.703L166.585 483.102C164.584 481.612 162.609 480.088 160.66 478.535L160.21 479.121C154.335 474.437 148.693 469.467 143.304 464.234L143.809 463.695C142.016 461.953 140.253 460.184 138.518 458.386L137.996 458.907C132.772 453.492 127.81 447.821 123.129 441.912L123.698 441.443C122.144 439.481 120.619 437.492 119.128 435.477L118.544 435.925C114.063 429.871 109.869 423.59 105.983 417.098L106.605 416.709C105.317 414.558 104.064 412.383 102.845 410.186L102.208 410.554C98.5495 403.964 95.2029 397.174 92.1881 390.204L92.8563 389.905C91.8592 387.6 90.8986 385.275 89.9746 382.932L89.2962 383.21C86.5329 376.199 84.0986 369.017 82.0166 361.688L82.7184 361.48C82.0313 359.06 81.3821 356.625 80.7714 354.173L80.0629 354.356C78.2438 347.048 76.7704 339.601 75.661 332.036L76.3839 331.925C76.0195 329.439 75.6944 326.941 75.4095 324.43L74.6833 324.515C73.8357 317.046 73.3419 309.469 73.2188 301.801L73.9496 301.789C73.9295 300.526 73.9192 299.259 73.9192 297.99C73.9192 296.723 73.9295 295.456 73.9496 294.192L73.2188 294.18C73.3419 286.511 73.8357 278.935 74.6833 271.466L75.4095 271.551C75.6944 269.041 76.0195 266.541 76.3839 264.055L75.661 263.945C76.7704 256.379 78.2438 248.932 80.0629 241.624L80.7714 241.807C81.3821 239.356 82.0313 236.92 82.7184 234.501L82.0166 234.294C84.0986 226.963 86.5329 219.783 89.2962 212.772L89.9746 213.049C90.8986 210.706 91.8592 208.382 92.8563 206.077L92.1881 205.776C95.2029 198.808 98.5495 192.018 102.208 185.428L102.845 185.795C104.064 183.597 105.317 181.423 106.605 179.271L105.983 178.884C109.869 172.392 114.063 166.109 118.544 160.055L119.128 160.504C120.619 158.49 122.144 156.5 123.698 154.538L123.129 154.07C127.81 148.161 132.772 142.488 137.996 137.073L138.518 137.596C140.253 135.797 142.016 134.027 143.809 132.286L143.304 131.746C148.693 126.513 154.335 121.544 160.21 116.859L160.66 117.446C162.609 115.892 164.584 114.37 166.585 112.879L166.153 112.278C172.153 107.805 178.379 103.621 184.809 99.7463L185.18 100.388C187.309 99.1042 189.461 97.8559 191.634 96.6419L191.283 95.9879C197.792 92.3503 204.497 89.0239 211.376 86.0283L211.664 86.7135C213.936 85.7229 216.227 84.7696 218.536 83.8534L218.271 83.1593C225.178 80.4184 232.248 78.0067 239.463 75.9435L239.661 76.66C242.039 75.9793 244.436 75.3372 246.847 74.7339L246.671 74.01C253.856 72.2105 261.172 70.7537 268.606 69.6561L268.71 70.3932C271.153 70.0327 273.608 69.7114 276.075 69.4297L275.993 68.6895C283.325 67.852 290.764 67.364 298.289 67.2423L298.301 67.9871C299.542 67.967 300.785 67.957 302.029 67.957C303.275 67.957 304.517 67.967 305.759 67.9871L305.769 67.2423C313.295 67.364 320.733 67.852 328.066 68.6895L327.985 69.4297C330.451 69.7114 332.906 70.0327 335.347 70.3932L335.453 69.6561C342.886 70.7537 350.203 72.2105 357.386 74.01L357.212 74.7339C359.623 75.3372 362.018 75.9793 364.398 76.66L364.596 75.9435C371.811 78.0067 378.881 80.4184 385.788 83.1593L385.522 83.8534C387.832 84.7696 390.123 85.7229 392.395 86.7135L392.683 86.0283C399.562 89.0239 406.266 92.3503 412.776 95.9879L412.425 96.6419C414.598 97.8559 416.749 99.1042 418.877 100.388L419.25 99.7463C425.68 103.621 431.906 107.805 437.906 112.278L437.475 112.879C439.475 114.37 441.448 115.892 443.397 117.446L443.848 116.859C449.724 121.544 455.366 126.513 460.753 131.746L460.249 132.286C462.041 134.027 463.806 135.797 465.542 137.596L466.062 137.073C471.286 142.488 476.248 148.161 480.93 154.07L480.361 154.538C481.915 156.5 483.438 158.49 484.93 160.504L485.513 160.055C489.996 166.109 494.19 172.392 498.077 178.884L497.452 179.271C498.74 181.423 499.995 183.597 501.214 185.795L501.85 185.428C505.508 192.018 508.855 198.808 511.871 205.776L511.201 206.077C512.198 208.382 513.16 210.706 514.083 213.049L514.761 212.772C517.526 219.783 519.959 226.963 522.042 234.294L521.341 234.501C522.028 236.92 522.677 239.356 523.287 241.807L523.996 241.624C525.815 248.932 527.288 256.379 528.398 263.945L527.674 264.055C528.04 266.541 528.364 269.041 528.649 271.551L529.375 271.466Z" stroke="white" stroke-dasharray="5 15"/>
<path d="M516.403 265.446C517.829 275.19 518.614 285.142 518.716 295.26L517.62 295.27C517.627 296.018 517.631 296.766 517.631 297.515C517.631 298.263 517.627 299.011 517.62 299.758L518.716 299.77C518.614 309.886 517.829 319.839 516.403 329.582L515.318 329.417C515.102 330.893 514.871 332.365 514.625 333.832L515.707 334.02C514.045 343.95 511.717 353.652 508.771 363.076L507.726 362.737C507.281 364.159 506.824 365.575 506.352 366.984L507.388 367.344C504.204 376.841 500.386 386.045 495.989 394.904L495.009 394.399C494.35 395.729 493.677 397.05 492.99 398.364L493.958 398.889C489.345 407.722 484.146 416.197 478.416 424.261L477.527 423.606C476.67 424.813 475.802 426.01 474.922 427.197L475.796 427.871C469.888 435.836 463.454 443.379 456.542 450.449L455.765 449.661C454.734 450.716 453.693 451.76 452.64 452.794L453.401 453.598C446.361 460.513 438.855 466.948 430.935 472.852L430.287 471.95C429.109 472.829 427.92 473.695 426.724 474.55L427.353 475.464C419.361 481.171 410.969 486.343 402.227 490.931L401.724 489.939C400.426 490.62 399.119 491.289 397.806 491.944L398.287 492.948C389.545 497.308 380.471 501.09 371.109 504.245L370.765 503.185C369.376 503.653 367.982 504.105 366.581 504.546L366.904 505.613C357.633 508.525 348.096 510.825 338.336 512.465L338.157 511.363C336.717 511.606 335.271 511.834 333.821 512.047L333.977 513.152C324.411 514.558 314.64 515.334 304.71 515.434L304.698 514.317C303.966 514.324 303.23 514.329 302.496 514.329C301.761 514.329 301.027 514.324 300.293 514.317L300.283 515.434C290.351 515.334 280.58 514.558 271.014 513.152L271.171 512.047C269.72 511.834 268.274 511.606 266.834 511.363L266.656 512.465C256.897 510.825 247.358 508.525 238.087 505.613L238.41 504.546C237.01 504.105 235.615 503.653 234.228 503.185L233.882 504.245C224.521 501.09 215.446 497.308 206.704 492.948L207.187 491.944C205.873 491.289 204.565 490.62 203.267 489.939L202.766 490.931C194.023 486.343 185.63 481.171 177.639 475.464L178.269 474.55C177.072 473.695 175.883 472.829 174.705 471.95L174.057 472.852C166.137 466.948 158.631 460.513 151.591 453.598L152.351 452.794C151.3 451.76 150.258 450.716 149.227 449.661L148.449 450.449C141.538 443.379 135.103 435.836 129.195 427.871L130.071 427.197C129.189 426.01 128.321 424.813 127.464 423.606L126.575 424.261C120.846 416.197 115.647 407.722 111.034 398.889L112.002 398.364C111.314 397.05 110.642 395.729 109.983 394.399L109.003 394.904C104.605 386.045 100.788 376.841 97.6034 367.344L98.6414 366.984C98.1677 365.575 97.7101 364.159 97.2656 362.737L96.2202 363.076C93.2742 353.652 90.9466 343.95 89.2843 334.02L90.3662 333.832C90.1206 332.366 89.8896 330.893 89.6732 329.417L88.5884 329.582C87.1629 319.84 86.3777 309.886 86.2754 299.77L87.3719 299.758C87.3646 299.011 87.3602 298.263 87.3602 297.515C87.3602 296.766 87.3646 296.018 87.3719 295.27L86.2754 295.26C86.3777 285.142 87.1629 275.19 88.5884 265.448L89.6732 265.612C89.8896 264.135 90.1206 262.664 90.3662 261.196L89.2843 261.009C90.9466 251.079 93.2742 241.377 96.2202 231.952L97.2656 232.292C97.7101 230.871 98.1677 229.454 98.6414 228.046L97.6034 227.684C100.788 218.188 104.605 208.985 109.003 200.125L109.983 200.63C110.642 199.301 111.314 197.978 112.002 196.666L111.034 196.14C115.647 187.307 120.846 178.832 126.575 170.767L127.464 171.423C128.321 170.216 129.189 169.02 130.071 167.833L129.195 167.158C135.103 159.194 141.538 151.649 148.449 144.58L149.227 145.368C150.258 144.313 151.3 143.269 152.351 142.235L151.591 141.43C158.631 134.516 166.137 128.08 174.057 122.177L174.705 123.078C175.883 122.201 177.072 121.334 178.269 120.479L177.639 119.564C185.63 113.858 194.023 108.686 202.766 104.097L203.267 105.091C204.565 104.409 205.873 103.74 207.187 103.085L206.704 102.082C215.446 97.7204 224.521 93.9382 233.882 90.7832L234.228 91.8438C235.615 91.3761 237.01 90.9232 238.41 90.4823L238.087 89.4157C247.358 86.5035 256.897 84.2035 266.656 82.5634L266.834 83.6657C268.274 83.4229 269.72 83.195 271.171 82.982L271.014 81.8767C280.58 80.4705 290.351 79.6959 300.283 79.5946L300.293 80.7118C301.027 80.7044 301.761 80.7014 302.496 80.7014C303.23 80.7014 303.966 80.7044 304.698 80.7118L304.71 79.5946C314.64 79.6959 324.411 80.4705 333.977 81.8767L333.821 82.982C335.271 83.195 336.717 83.4229 338.157 83.6657L338.336 82.5634C348.096 84.2035 357.633 86.5035 366.904 89.4157L366.581 90.4823C367.982 90.9232 369.376 91.3761 370.765 91.8438L371.109 90.7832C380.471 93.9382 389.545 97.7204 398.287 102.082L397.806 103.085C399.119 103.74 400.426 104.409 401.724 105.091L402.227 104.097C410.969 108.686 419.361 113.858 427.353 119.564L426.724 120.479C427.92 121.334 429.109 122.201 430.287 123.078L430.935 122.177C438.855 128.08 446.361 134.516 453.401 141.43L452.64 142.235C453.693 143.269 454.734 144.313 455.765 145.368L456.542 144.58C463.454 151.649 469.888 159.194 475.796 167.158L474.922 167.833C475.802 169.02 476.67 170.216 477.527 171.423L478.416 170.767C484.146 178.832 489.345 187.307 493.958 196.14L492.99 196.666C493.677 197.978 494.35 199.301 495.009 200.63L495.989 200.125C500.386 208.985 504.204 218.188 507.388 227.684L506.352 228.046C506.824 229.454 507.281 230.871 507.726 232.292L508.771 231.952C511.717 241.377 514.045 251.079 515.707 261.009L514.625 261.196C514.871 262.664 515.102 264.135 515.318 265.612L516.403 265.446Z" stroke="white" stroke-width="1.5" stroke-dasharray="3 20"/>
<path d="M468.898 297.99C468.898 390.551 394.42 465.628 302.496 465.628C210.572 465.628 136.093 390.551 136.093 297.99C136.093 205.431 210.572 130.354 302.496 130.354C394.42 130.354 468.898 205.431 468.898 297.99Z" stroke="white" stroke-width="3"/>
<path d="M96.5386 297.99L109.323 290.469V305.51L96.5386 297.99Z" fill="white"/>
<path d="M508.454 297.99L495.67 290.469V305.51L508.454 297.99Z" fill="white"/>
<path d="M103.557 352.302L113.994 341.666L117.815 356.194L103.557 352.302Z" fill="white"/>
<path d="M501.435 243.678L487.177 239.786L490.997 254.313L501.435 243.678Z" fill="white"/>
<path d="M124.132 402.911L131.513 389.887L138.893 402.911H124.132Z" fill="white"/>
<path d="M480.86 193.07H466.1L473.48 206.094L480.86 193.07Z" fill="white"/>
<path d="M156.863 446.37L160.684 431.844L171.121 442.478L156.863 446.37Z" fill="white"/>
<path d="M448.13 149.61L433.872 153.502L444.31 164.137L448.13 149.61Z" fill="white"/>
<path d="M199.519 479.719V464.679L212.303 472.199L199.519 479.719Z" fill="white"/>
<path d="M405.475 116.262L392.692 123.781L405.475 131.301V116.262Z" fill="white"/>
<path d="M249.19 500.682L245.37 486.155L259.628 490.048L249.19 500.682Z" fill="white"/>
<path d="M355.801 95.2982L345.364 105.933L359.622 109.825L355.801 95.2982Z" fill="white"/>
<path d="M302.495 507.832L295.114 494.807H309.877L302.495 507.832Z" fill="white"/>
<path d="M302.495 88.1481L295.114 101.173H309.877L302.495 88.1481Z" fill="white"/>
<path d="M355.801 500.682L345.364 490.048L359.622 486.155L355.801 500.682Z" fill="white"/>
<path d="M249.19 95.2982L245.37 109.825L259.628 105.933L249.19 95.2982Z" fill="white"/>
<path d="M405.475 479.719L392.69 472.199L405.475 464.678V479.719Z" fill="white"/>
<path d="M199.519 116.262V131.301L212.301 123.781L199.519 116.262Z" fill="white"/>
<path d="M448.13 446.37L433.871 442.478L444.31 431.844L448.13 446.37Z" fill="white"/>
<path d="M156.861 149.61L160.682 164.137L171.119 153.502L156.861 149.61Z" fill="white"/>
<path d="M480.86 402.911H466.1L473.48 389.887L480.86 402.911Z" fill="white"/>
<path d="M124.132 193.068L131.513 206.094L138.893 193.068H124.132Z" fill="white"/>
<path d="M501.435 352.301L487.177 356.193L490.997 341.666L501.435 352.301Z" fill="white"/>
<path d="M103.557 243.678L113.994 254.313L117.815 239.786L103.557 243.678Z" fill="white"/>
<path d="M284.183 484.657C283.86 484.413 283.401 484.481 283.161 484.812L282.206 486.121L281.57 484.624C281.409 484.247 280.979 484.074 280.61 484.237L278.911 480.243C279.281 480.081 279.452 479.641 279.291 479.264L278.655 477.767L280.244 477.953C280.646 478.001 281.009 477.708 281.054 477.3L285.298 477.799C285.253 478.207 285.54 478.576 285.942 478.624L287.531 478.81L286.578 480.119C286.336 480.45 286.405 480.916 286.728 481.162L284.183 484.657Z" stroke="white" stroke-linecap="round" stroke-dasharray="10 10"/>
<path d="M322.68 112.384C323.005 112.63 323.462 112.56 323.702 112.229L324.657 110.92L325.293 112.417C325.454 112.794 325.883 112.968 326.255 112.804L327.952 116.798C327.582 116.962 327.411 117.4 327.572 117.778L328.208 119.274L326.619 119.088C326.217 119.04 325.854 119.333 325.809 119.741L321.565 119.244C321.611 118.834 321.323 118.465 320.923 118.419L319.332 118.231L320.285 116.922C320.526 116.591 320.458 116.125 320.135 115.88L322.68 112.384Z" stroke="white" stroke-linecap="round" stroke-dasharray="10 10"/>
<path d="M331.962 483.817C331.586 483.665 331.162 483.852 331.013 484.235L330.425 485.752L329.429 484.474C329.179 484.152 328.719 484.098 328.403 484.353L325.748 480.943C326.064 480.688 326.116 480.219 325.866 479.897L324.871 478.619L326.454 478.38C326.855 478.32 327.129 477.942 327.071 477.535L331.296 476.897C331.356 477.304 331.728 477.584 332.127 477.525L333.71 477.285L333.122 478.803C332.973 479.184 333.157 479.617 333.533 479.768L331.962 483.817Z" stroke="white" stroke-linecap="round" stroke-dasharray="10 10"/>
<path d="M274.577 114.076C274.953 114.228 275.377 114.041 275.526 113.658L276.114 112.141L277.109 113.42C277.359 113.741 277.82 113.795 278.136 113.54L280.791 116.95C280.475 117.205 280.422 117.674 280.672 117.996L281.668 119.274L280.085 119.512C279.684 119.573 279.409 119.952 279.468 120.358L275.242 120.996C275.183 120.589 274.811 120.308 274.412 120.369L272.829 120.607L273.416 119.091C273.565 118.708 273.381 118.276 273.006 118.124L274.577 114.076Z" stroke="white" stroke-linecap="round" stroke-dasharray="10 10"/>
<path d="M377.928 469.543C377.526 469.495 377.163 469.789 377.118 470.197L376.934 471.818L375.648 470.846C375.324 470.601 374.866 470.669 374.626 471L371.195 468.406C371.436 468.076 371.368 467.609 371.043 467.365L369.758 466.392L371.227 465.744C371.597 465.581 371.768 465.143 371.607 464.764L375.527 463.035C375.688 463.412 376.118 463.584 376.488 463.422L377.957 462.773L377.774 464.393C377.727 464.802 378.015 465.171 378.416 465.219L377.928 469.543Z" stroke="white" stroke-linecap="round" stroke-dasharray="10 10"/>
<path d="M228.575 127.534C228.976 127.58 229.338 127.288 229.385 126.878L229.568 125.259L230.855 126.23C231.178 126.476 231.637 126.406 231.877 126.077L235.308 128.67C235.067 129 235.134 129.467 235.459 129.712L236.744 130.684L235.276 131.332C234.904 131.496 234.735 131.934 234.896 132.311L230.976 134.042C230.815 133.665 230.384 133.491 230.014 133.655L228.545 134.303L228.729 132.683C228.774 132.274 228.488 131.904 228.085 131.858L228.575 127.534Z" stroke="white" stroke-linecap="round" stroke-dasharray="10 10"/>
<path d="M418.609 444.158C418.21 444.218 417.934 444.596 417.992 445.003L418.228 446.618L416.739 446.017C416.364 445.865 415.938 446.053 415.791 446.436L411.818 444.836C411.966 444.453 411.782 444.02 411.406 443.869L409.917 443.269L411.172 442.256C411.488 442 411.542 441.532 411.29 441.209L414.637 438.504C414.888 438.827 415.348 438.881 415.665 438.624L416.918 437.611L417.153 439.225C417.212 439.631 417.583 439.913 417.984 439.852L418.609 444.158Z" stroke="white" stroke-linecap="round" stroke-dasharray="10 10"/>
<path d="M187.465 153.187C187.866 153.127 188.141 152.749 188.082 152.34L187.847 150.727L189.337 151.328C189.711 151.479 190.136 151.292 190.284 150.909L194.258 152.509C194.109 152.892 194.293 153.325 194.669 153.476L196.157 154.076L194.903 155.089C194.587 155.345 194.533 155.813 194.784 156.136L191.438 158.841C191.186 158.518 190.727 158.464 190.411 158.721L189.157 159.734L188.922 158.12C188.863 157.714 188.492 157.432 188.091 157.493L187.465 153.187Z" stroke="white" stroke-linecap="round" stroke-dasharray="10 10"/>
<path d="M451.57 408.701C451.2 408.865 451.029 409.304 451.19 409.681L451.826 411.178L450.237 410.99C449.835 410.944 449.472 411.236 449.427 411.646L445.182 411.147C445.229 410.739 444.941 410.369 444.54 410.321L442.95 410.135L443.903 408.824C444.144 408.495 444.077 408.029 443.752 407.783L446.298 404.287C446.622 404.533 447.08 404.464 447.32 404.134L448.274 402.824L448.91 404.32C449.071 404.698 449.501 404.871 449.872 404.707L451.57 408.701Z" stroke="white" stroke-linecap="round" stroke-dasharray="10 10"/>
<path d="M154.389 188.598C154.759 188.434 154.93 187.995 154.769 187.618L154.133 186.121L155.723 186.308C156.125 186.355 156.487 186.063 156.533 185.653L160.777 186.152C160.73 186.56 161.018 186.93 161.419 186.977L163.009 187.163L162.056 188.474C161.815 188.804 161.882 189.27 162.207 189.516L159.661 193.012C159.337 192.766 158.879 192.835 158.639 193.165L157.685 194.475L157.049 192.979C156.888 192.601 156.458 192.428 156.087 192.592L154.389 188.598Z" stroke="white" stroke-linecap="round" stroke-dasharray="10 10"/>
<path d="M474.431 366.412C474.115 366.668 474.062 367.136 474.312 367.457L475.308 368.736L473.724 368.975C473.324 369.035 473.049 369.413 473.107 369.822L468.882 370.459C468.822 370.051 468.451 369.771 468.052 369.83L466.468 370.07L467.056 368.552C467.205 368.171 467.021 367.738 466.645 367.587L468.217 363.538C468.593 363.69 469.017 363.503 469.166 363.12L469.754 361.603L470.749 362.881C470.999 363.203 471.46 363.258 471.776 363.002L474.431 366.412Z" stroke="white" stroke-linecap="round" stroke-dasharray="10 10"/>
<path d="M131.463 232.176C131.78 231.919 131.833 231.452 131.582 231.128L130.587 229.85L132.171 229.612C132.57 229.552 132.846 229.172 132.786 228.766L137.013 228.128C137.072 228.535 137.443 228.816 137.844 228.755L139.427 228.517L138.838 230.033C138.69 230.416 138.873 230.848 139.249 231L137.678 235.048C137.303 234.897 136.877 235.085 136.729 235.466L136.14 236.984L135.146 235.706C134.895 235.383 134.436 235.329 134.118 235.585L131.463 232.176Z" stroke="white" stroke-linecap="round" stroke-dasharray="10 10"/>
<path d="M485.707 317.598C485.466 317.929 485.535 318.395 485.858 318.639L487.145 319.612L485.675 320.26C485.305 320.424 485.134 320.862 485.295 321.24L481.375 322.97C481.214 322.593 480.785 322.42 480.413 322.582L478.945 323.232L479.128 321.611C479.175 321.203 478.887 320.834 478.485 320.786L478.975 316.462C479.375 316.509 479.738 316.216 479.785 315.808L479.967 314.187L481.254 315.158C481.577 315.404 482.036 315.335 482.276 315.005L485.707 317.598Z" stroke="white" stroke-linecap="round" stroke-dasharray="10 10"/>
<path d="M120.325 278.376C120.566 278.046 120.497 277.579 120.174 277.334L118.888 276.362L120.357 275.714C120.727 275.55 120.898 275.113 120.737 274.734L124.657 273.005C124.818 273.382 125.248 273.554 125.619 273.392L127.087 272.743L126.904 274.363C126.857 274.771 127.145 275.141 127.546 275.189L127.058 279.513C126.656 279.465 126.293 279.759 126.248 280.167L126.063 281.788L124.778 280.815C124.454 280.571 123.996 280.639 123.756 280.97L120.325 278.376Z" stroke="white" stroke-linecap="round" stroke-dasharray="10 10"/>
<path d="M484.773 269.878C484.624 270.261 484.808 270.694 485.184 270.845L486.672 271.445L485.418 272.458C485.102 272.714 485.049 273.184 485.3 273.505L481.953 276.21C481.703 275.887 481.242 275.834 480.927 276.09L479.672 277.103L479.438 275.489C479.378 275.083 479.007 274.801 478.608 274.862L477.982 270.556C478.381 270.496 478.656 270.118 478.597 269.711L478.364 268.096L479.852 268.697C480.228 268.849 480.652 268.661 480.801 268.278L484.773 269.878Z" stroke="white" stroke-linecap="round" stroke-dasharray="10 10"/>
<path d="M121.878 328.344C122.025 327.961 121.843 327.529 121.467 327.378L119.979 326.779L121.231 325.764C121.549 325.51 121.601 325.04 121.35 324.719L124.697 322.013C124.948 322.335 125.409 322.389 125.724 322.134L126.979 321.12L127.213 322.733C127.273 323.141 127.644 323.421 128.043 323.362L128.669 327.667C128.27 327.728 127.993 328.106 128.053 328.513L128.287 330.126L126.799 329.526C126.423 329.375 125.999 329.563 125.85 329.946L121.878 328.344Z" stroke="white" stroke-linecap="round" stroke-dasharray="10 10"/>
<path d="M470.764 223.044C470.717 223.452 471.005 223.822 471.406 223.869L472.997 224.056L472.043 225.367C471.802 225.697 471.869 226.163 472.194 226.408L469.649 229.904C469.324 229.658 468.866 229.728 468.627 230.057L467.672 231.368L467.036 229.871C466.875 229.494 466.445 229.32 466.074 229.484L464.376 225.49C464.746 225.326 464.917 224.888 464.757 224.51L464.119 223.014L465.71 223.201C466.112 223.248 466.475 222.955 466.52 222.547L470.764 223.044Z" stroke="white" stroke-linecap="round" stroke-dasharray="10 10"/>
<path d="M135.086 375.214C135.133 374.804 134.845 374.435 134.444 374.389L132.854 374.201L133.808 372.892C134.048 372.561 133.981 372.095 133.656 371.85L136.202 368.354C136.526 368.6 136.984 368.53 137.225 368.199L138.178 366.89L138.814 368.387C138.975 368.764 139.406 368.938 139.776 368.774L141.475 372.768C141.104 372.932 140.934 373.37 141.095 373.748L141.731 375.244L140.14 375.058C139.74 375.01 139.377 375.303 139.33 375.712L135.086 375.214Z" stroke="white" stroke-linecap="round" stroke-dasharray="10 10"/>
<path d="M445.957 180.637C446.017 181.044 446.389 181.326 446.788 181.265L448.371 181.026L447.784 182.543C447.634 182.926 447.819 183.359 448.194 183.509L446.623 187.557C446.247 187.406 445.823 187.594 445.674 187.975L445.086 189.493L444.09 188.215C443.84 187.892 443.38 187.838 443.064 188.095L440.409 184.685C440.725 184.429 440.777 183.961 440.527 183.638L439.532 182.359L441.115 182.121C441.516 182.062 441.791 181.682 441.732 181.275L445.957 180.637Z" stroke="white" stroke-linecap="round" stroke-dasharray="10 10"/>
<path d="M160.372 416.14C160.314 415.733 159.943 415.453 159.542 415.513L157.958 415.751L158.548 414.235C158.695 413.852 158.513 413.42 158.137 413.268L159.707 409.221C160.083 409.373 160.508 409.185 160.656 408.802L161.245 407.286L162.239 408.564C162.491 408.886 162.95 408.939 163.267 408.684L165.922 412.094C165.605 412.349 165.552 412.818 165.804 413.14L166.798 414.418L165.215 414.656C164.816 414.717 164.539 415.096 164.599 415.502L160.372 416.14Z" stroke="white" stroke-linecap="round" stroke-dasharray="10 10"/>
<path d="M411.158 147.055C411.319 147.432 411.75 147.606 412.12 147.443L413.589 146.795L413.405 148.414C413.36 148.823 413.646 149.193 414.048 149.239L413.559 153.563C413.158 153.517 412.795 153.809 412.749 154.219L412.566 155.838L411.281 154.867C410.956 154.621 410.499 154.691 410.257 155.02L406.827 152.427C407.067 152.098 407 151.63 406.675 151.386L405.39 150.413L406.858 149.765C407.229 149.601 407.399 149.163 407.238 148.786L411.158 147.055Z" stroke="white" stroke-linecap="round" stroke-dasharray="10 10"/>
<path d="M195.129 449.841C194.968 449.464 194.537 449.292 194.167 449.454L192.698 450.103L192.882 448.483C192.927 448.075 192.641 447.705 192.239 447.657L192.729 443.333C193.129 443.381 193.492 443.087 193.539 442.679L193.721 441.058L195.008 442.031C195.331 442.275 195.789 442.207 196.03 441.876L199.461 444.47C199.22 444.8 199.287 445.267 199.612 445.512L200.897 446.484L199.429 447.132C199.058 447.295 198.888 447.733 199.049 448.112L195.129 449.841Z" stroke="white" stroke-linecap="round" stroke-dasharray="10 10"/>
<path d="M369.65 123.764C369.901 124.085 370.36 124.139 370.677 123.884L371.93 122.87L372.166 124.483C372.224 124.891 372.597 125.171 372.996 125.112L373.622 129.417C373.223 129.478 372.947 129.856 373.005 130.263L373.24 131.876L371.752 131.276C371.376 131.125 370.951 131.313 370.803 131.696L366.831 130.094C366.978 129.712 366.794 129.28 366.42 129.128L364.93 128.529L366.185 127.514C366.5 127.258 366.555 126.79 366.303 126.469L369.65 123.764Z" stroke="white" stroke-linecap="round" stroke-dasharray="10 10"/>
<path d="M237.899 473.2C237.647 472.878 237.188 472.823 236.871 473.079L235.616 474.092L235.382 472.479C235.324 472.073 234.951 471.792 234.552 471.852L233.926 467.547C234.325 467.486 234.602 467.108 234.542 466.701L234.308 465.088L235.796 465.686C236.172 465.838 236.597 465.651 236.745 465.268L240.717 466.869C240.57 467.251 240.754 467.684 241.128 467.835L242.618 468.435L241.364 469.449C241.046 469.704 240.994 470.173 241.245 470.495L237.899 473.2Z" stroke="white" stroke-linecap="round" stroke-dasharray="10 10"/>
<path d="M430.291 299.183C426.696 299.806 422.535 299.326 417.851 298.054C423.939 302.507 430.294 302.62 436.998 299.483C445.172 295.045 451.149 296.465 456.146 298.054C452.568 295.939 448.688 294.54 444.245 294.667C439.332 294.808 435.136 298.346 430.291 299.183Z" fill="white"/>
<path d="M174.7 299.183C178.295 299.806 182.456 299.326 187.141 298.054C181.053 302.507 174.697 302.62 167.992 299.483C159.819 295.045 153.843 296.465 148.845 298.054C152.423 295.939 156.303 294.54 160.746 294.667C165.657 294.808 169.855 298.346 174.7 299.183Z" fill="white"/>
<path d="M428.527 276.555C425.092 277.803 420.912 278.066 416.082 277.643C422.836 280.95 429.114 279.937 435.182 275.661C442.474 269.845 448.603 270.186 453.797 270.867C449.912 269.418 445.852 268.727 441.498 269.638C436.685 270.645 433.154 274.873 428.527 276.555Z" fill="white"/>
<path d="M176.817 321.775C180.465 321.751 184.481 320.542 188.878 318.461C183.641 323.923 177.401 325.158 170.264 323.254C161.458 320.332 155.815 322.787 151.164 325.237C154.326 322.52 157.91 320.455 162.306 319.795C167.168 319.064 171.905 321.806 176.817 321.775Z" fill="white"/>
<path d="M422.93 254.588C419.76 256.425 415.69 257.425 410.861 257.863C418.076 259.924 424.087 257.816 429.332 252.531C435.524 245.514 441.616 244.766 446.848 244.517C442.774 243.777 438.659 243.814 434.526 245.482C429.958 247.327 427.202 252.114 422.93 254.588Z" fill="white"/>
<path d="M182.753 343.655C186.341 342.986 190.09 341.085 194.065 338.259C189.84 344.563 183.904 346.884 176.551 346.272C167.381 344.951 162.242 348.368 158.08 351.603C160.732 348.369 163.907 345.701 168.125 344.273C172.788 342.694 177.921 344.556 182.753 343.655Z" fill="white"/>
<path d="M413.677 233.942C410.868 236.312 407.029 238.016 402.347 239.302C409.805 240.057 415.365 236.917 419.632 230.784C424.532 222.778 430.404 220.963 435.512 219.794C431.376 219.785 427.329 220.549 423.544 222.924C419.36 225.547 417.46 230.75 413.677 233.942Z" fill="white"/>
<path d="M192.328 364.149C195.746 362.856 199.115 360.321 202.548 356.833C199.46 363.79 194.013 367.125 186.666 367.824C177.411 368.144 172.931 372.419 169.383 376.342C171.444 372.687 174.117 369.498 178.028 367.346C182.35 364.965 187.721 365.892 192.328 364.149Z" fill="white"/>
<path d="M401.044 215.247C398.682 218.078 395.192 220.436 390.801 222.53C398.274 221.954 403.214 217.877 406.371 211.082C409.833 202.331 415.307 199.505 420.137 197.449C416.063 198.172 412.207 199.641 408.884 202.648C405.21 205.973 404.227 211.432 401.044 215.247Z" fill="white"/>
<path d="M205.249 382.637C208.396 380.758 211.28 377.666 214.067 373.623C212.213 381.021 207.415 385.27 200.3 387.258C191.24 389.21 187.557 394.213 184.731 398.704C186.137 394.74 188.227 391.128 191.711 388.315C195.562 385.206 201.011 385.168 205.249 382.637Z" fill="white"/>
<path d="M385.418 199.072C383.573 202.277 380.538 205.216 376.571 208.055C383.832 206.165 388.003 201.278 389.952 194.028C391.87 184.796 396.78 181.044 401.188 178.166C397.297 179.599 393.75 181.728 390.99 185.278C387.939 189.201 387.902 194.752 385.418 199.072Z" fill="white"/>
<path d="M221.126 398.559C223.904 396.152 226.219 392.596 228.274 388.123C227.708 395.737 223.708 400.77 217.04 403.985C208.449 407.512 205.675 413.089 203.658 418.012C204.367 413.859 205.81 409.933 208.762 406.547C212.024 402.803 217.383 401.802 221.126 398.559Z" fill="white"/>
<path d="M367.27 185.906C366.001 189.391 363.513 192.821 360.09 196.319C366.918 193.174 370.193 187.622 370.877 180.138C371.193 170.708 375.387 166.143 379.238 162.528C375.65 164.628 372.522 167.353 370.408 171.336C368.071 175.741 368.981 181.214 367.27 185.906Z" fill="white"/>
<path d="M239.475 411.43C241.801 408.568 243.473 404.656 244.735 399.888C245.475 407.485 242.394 413.15 236.375 417.497C228.516 422.49 226.734 428.474 225.587 433.679C225.578 429.463 226.329 425.34 228.658 421.483C231.234 417.22 236.34 415.286 239.475 411.43Z" fill="white"/>
<path d="M347.152 176.152C346.496 179.806 344.63 183.627 341.855 187.677C348.044 183.371 350.322 177.324 349.721 169.833C348.424 160.49 351.778 155.253 354.953 151.012C351.778 153.714 349.161 156.951 347.759 161.248C346.209 165.999 348.037 171.227 347.152 176.152Z" fill="white"/>
<path d="M259.734 420.859C261.537 417.63 262.518 413.481 262.946 408.562C264.971 415.914 262.901 422.037 257.715 427.382C250.827 433.691 250.092 439.898 249.849 445.226C249.123 441.078 249.158 436.885 250.795 432.673C252.605 428.02 257.304 425.212 259.734 420.859Z" fill="white"/>
<path d="M325.686 170.103C325.663 173.819 324.476 177.911 322.433 182.391C327.794 177.055 329.006 170.697 327.138 163.426C324.269 154.454 326.679 148.704 329.084 143.964C326.417 147.188 324.391 150.839 323.743 155.318C323.025 160.271 325.717 165.098 325.686 170.103Z" fill="white"/>
<path d="M281.301 426.558C282.526 423.059 282.785 418.8 282.37 413.88C285.615 420.761 284.621 427.159 280.424 433.341C274.716 440.771 275.051 447.014 275.72 452.305C274.296 448.347 273.618 444.211 274.513 439.774C275.501 434.871 279.65 431.275 281.301 426.558Z" fill="white"/>
<path d="M303.51 167.946C304.119 171.609 303.649 175.848 302.402 180.621C306.77 174.418 306.881 167.943 303.802 161.113C299.447 152.784 300.84 146.695 302.402 141.603C300.325 145.248 298.951 149.202 299.077 153.729C299.214 158.734 302.688 163.009 303.51 167.946Z" fill="white"/>
<path d="M303.51 428.358C304.119 424.695 303.649 420.455 302.402 415.683C306.77 421.885 306.881 428.361 303.802 435.191C299.447 443.519 300.84 449.609 302.402 454.7C300.325 451.054 298.951 447.1 299.077 442.575C299.214 437.57 302.688 433.293 303.51 428.358Z" fill="white"/>
<path d="M281.302 169.745C282.528 173.244 282.786 177.503 282.371 182.424C285.617 175.543 284.623 169.145 280.425 162.963C274.717 155.533 275.052 149.29 275.722 143.999C274.298 147.957 273.619 152.093 274.514 156.529C275.502 161.433 279.652 165.029 281.302 169.745Z" fill="white"/>
<path d="M325.686 426.201C325.663 422.486 324.476 418.394 322.433 413.914C327.794 419.249 329.006 425.607 327.138 432.879C324.269 441.849 326.679 447.601 329.084 452.339C326.417 449.116 324.391 445.466 323.743 440.985C323.025 436.032 325.717 431.208 325.686 426.201Z" fill="white"/>
<path d="M259.739 175.445C261.541 178.676 262.522 182.823 262.952 187.743C264.976 180.392 262.907 174.268 257.719 168.922C250.832 162.614 250.098 156.406 249.854 151.077C249.127 155.227 249.164 159.421 250.801 163.63C252.61 168.285 257.309 171.093 259.739 175.445Z" fill="white"/>
<path d="M347.156 420.153C346.499 416.497 344.634 412.678 341.859 408.628C348.048 412.933 350.326 418.979 349.725 426.472C348.428 435.815 351.782 441.051 354.957 445.292C351.782 442.59 349.165 439.354 347.763 435.057C346.213 430.306 348.04 425.076 347.156 420.153Z" fill="white"/>
<path d="M239.475 184.874C241.801 187.736 243.475 191.647 244.735 196.416C245.477 188.818 242.395 183.153 236.375 178.807C228.517 173.813 226.736 167.83 225.588 162.625C225.58 166.841 226.33 170.964 228.66 174.82C231.235 179.084 236.342 181.019 239.475 184.874Z" fill="white"/>
<path d="M367.271 410.397C366.001 406.915 363.513 403.483 360.09 399.985C366.919 403.13 370.193 408.681 370.878 416.167C371.193 425.596 375.389 430.16 379.238 433.776C375.652 431.675 372.522 428.952 370.409 424.967C368.073 420.564 368.981 415.091 367.271 410.397Z" fill="white"/>
<path d="M221.128 197.744C223.906 200.152 226.22 203.707 228.276 208.181C227.71 200.567 223.71 195.534 217.041 192.318C208.45 188.792 205.677 183.213 203.659 178.291C204.368 182.443 205.811 186.371 208.763 189.757C212.025 193.5 217.383 194.501 221.128 197.744Z" fill="white"/>
<path d="M385.418 397.232C383.575 394.026 380.539 391.087 376.571 388.248C383.833 390.137 388.003 395.026 389.953 402.275C391.872 411.507 396.78 415.258 401.188 418.138C397.297 416.705 393.752 414.576 390.991 411.026C387.94 407.102 387.902 401.552 385.418 397.232Z" fill="white"/>
<path d="M205.251 213.665C208.397 215.545 211.282 218.638 214.068 222.679C212.213 215.282 207.416 211.032 200.3 209.045C191.24 207.092 187.557 202.09 184.732 197.598C186.139 201.562 188.228 205.176 191.712 207.988C195.563 211.097 201.011 211.135 205.251 213.665Z" fill="white"/>
<path d="M401.044 381.056C398.682 378.224 395.192 375.868 390.801 373.773C398.274 374.35 403.214 378.426 406.371 385.22C409.833 393.971 415.307 396.799 420.137 398.854C416.063 398.13 412.207 396.662 408.884 393.654C405.21 390.329 404.227 384.87 401.044 381.056Z" fill="white"/>
<path d="M192.328 232.155C195.746 233.448 199.115 235.983 202.548 239.47C199.46 232.514 194.013 229.177 186.666 228.48C177.411 228.158 172.931 223.884 169.383 219.962C171.444 223.616 174.117 226.805 178.028 228.958C182.35 231.338 187.721 230.412 192.328 232.155Z" fill="white"/>
<path d="M413.677 362.361C410.868 359.991 407.029 358.287 402.347 357.002C409.805 356.247 415.365 359.387 419.632 365.519C424.532 373.526 430.404 375.341 435.512 376.51C431.376 376.519 427.329 375.755 423.544 373.38C419.36 370.757 417.46 365.554 413.677 362.361Z" fill="white"/>
<path d="M182.75 252.65C186.338 253.318 190.087 255.22 194.062 258.046C189.837 251.742 183.902 249.419 176.548 250.033C167.378 251.354 162.239 247.937 158.077 244.702C160.729 247.936 163.904 250.604 168.122 252.032C172.785 253.611 177.918 251.749 182.75 252.65Z" fill="white"/>
<path d="M422.927 341.715C419.757 339.879 415.687 338.879 410.858 338.441C418.073 336.379 424.084 338.489 429.331 343.772C435.521 350.79 441.614 351.539 446.845 351.787C442.772 352.527 438.656 352.49 434.523 350.823C429.955 348.979 427.199 344.191 422.927 341.715Z" fill="white"/>
<path d="M176.817 274.524C180.464 274.549 184.48 275.758 188.876 277.839C183.641 272.376 177.401 271.141 170.263 273.045C161.457 275.968 155.813 273.513 151.163 271.062C154.326 273.779 157.908 275.844 162.306 276.504C167.166 277.235 171.903 274.493 176.817 274.524Z" fill="white"/>
<path d="M428.525 319.745C425.091 318.496 420.911 318.233 416.082 318.656C422.835 315.349 429.114 316.362 435.182 320.639C442.474 326.454 448.602 326.113 453.795 325.432C449.91 326.882 445.85 327.573 441.498 326.661C436.685 325.654 433.154 321.427 428.525 319.745Z" fill="white"/>
<path d="M390.835 310.128C319.278 285.964 279.171 285.34 207.614 310.128C185.075 359.482 177.984 406.804 187.562 435.877C233.649 490.344 401.882 469.582 428.318 428.55C442.037 407.254 413.014 341.937 390.835 310.128Z" fill="white"/>
<path d="M410.89 348.87C325.534 359.354 277.678 360.064 192.322 348.87L202.235 393.597C247.832 360.17 328.122 356.369 391.56 393.597L410.89 348.87Z" fill="#E8E8E8" fill-opacity="0.5"/>
<path d="M411.395 341.256C339.995 456.485 265.957 462.006 194.304 344.164C171.844 391.732 177.642 408.753 187.164 436.704L187.255 436.969C233.326 489.629 401.502 469.556 427.927 429.885C441.643 409.295 433.567 372.011 411.395 341.256Z" fill="#D0D0D0" fill-opacity="0.5"/>
<path d="M354.354 220.22C307.738 205.106 284.272 205.35 243.669 220.22C202.573 286.836 189.211 327.607 197.435 336.798C234.347 369.571 351.768 376.051 402.458 336.798C415.699 319.092 402.458 283.028 354.354 220.22Z" fill="#0F0F0F"/>
<path d="M291.983 306.527C294.005 306.812 294.802 308.264 296.678 307.898L296.648 307.859C295.2 305.93 294.248 304.661 295.881 300.347C293.223 300.977 291.939 303.909 291.983 306.527Z" fill="#646464"/>
<path d="M214.422 233.504C226.305 214.193 250.283 220.105 243.844 249.206C242.787 250.009 233.988 258.083 235.438 263.958C237.251 271.308 238.326 280.767 237.652 290.408C237.241 296.304 242.958 305.181 248.249 307.604C260.966 313.427 278.111 324.148 279.692 326.981C280.456 323.896 281.749 320.423 286.696 308.9C294.169 297.956 288.565 305.094 292.301 306.045C293.641 305.76 294.283 305.222 296.15 306.782C296.15 306.782 298.935 312.63 299.229 315.514C300.209 325.115 300.962 346.495 299.893 352.528C299.696 353.649 299.022 354.63 298.269 355.469C292.239 362.193 277.395 362.193 273.154 362.193C240.847 360.312 214.579 382.387 181.514 341.575C180.743 340.626 180.204 339.473 180.049 338.253C176.334 309.091 202.789 252.411 214.422 233.504Z" fill="#1E1E1E"/>
<path d="M200.985 286.93C190.474 278.816 173.956 329.892 180.464 340.871C207.055 370.331 224.363 370.44 262.322 362.437C269.935 357.392 270.037 354.334 266.052 351.372C226.511 343.258 226.511 329.892 204.989 331.802C205.989 317.48 204.989 295.045 200.985 286.93Z" fill="#141414"/>
<path d="M242.921 305.458C255.091 310.99 264.216 316.129 278.932 327.933C262.301 317.726 251.447 313.362 235.972 306.837C234.846 306.362 234.124 305.221 234.175 303.98C234.689 291.448 235.839 280.573 235.499 263.221C236.759 269.854 236.987 278.481 237.638 297.531C237.756 300.983 239.826 304.05 242.921 305.458Z" fill="#434343"/>
<path d="M210.459 243.279C191.85 281.038 182.662 301.637 179.007 332.547C179.007 338.877 182.363 334.595 182.597 331.888C184.81 306.311 192.964 284.771 210.459 243.279Z" fill="#434343"/>
<path d="M192.065 352.677C201.339 361.194 217.569 371.503 257.448 362.539C226.11 366.82 211.251 364.815 195.776 354.469L192.065 352.677Z" fill="#434343"/>
<path d="M286.05 343.306C289.591 336.862 293.866 329.655 294.957 306.045C301.641 307.691 299.252 329.633 299.599 352.354C298.992 353.08 298.388 353.741 297.787 354.343C291.057 361.1 281.434 351.706 286.05 343.306Z" fill="#141414"/>
<path d="M299.74 353.629C297.872 356.483 293.668 358.862 293.668 358.862C296.745 356.042 297.692 354.794 298.182 353.643C298.705 352.412 298.837 351.054 298.898 349.713L298.901 349.668C299.467 337.565 300.812 308.762 295.537 306.521C301.609 307.948 299.391 330.515 299.74 353.629Z" fill="#272727"/>
<path d="M214.422 233.504C226.305 214.193 250.283 220.105 243.844 249.206C242.787 250.009 233.988 258.083 235.438 263.958C237.251 271.308 238.326 280.767 237.652 290.408C237.241 296.304 242.958 305.181 248.249 307.604C260.966 313.427 278.111 324.148 279.692 326.981C280.456 323.896 281.749 320.423 286.696 308.9C294.169 297.956 288.565 305.094 292.301 306.045C293.641 305.76 294.283 305.222 296.15 306.782C296.15 306.782 298.935 312.63 299.229 315.514C300.209 325.115 300.962 346.495 299.893 352.528C299.696 353.649 299.022 354.63 298.269 355.469C292.239 362.193 277.395 362.193 273.154 362.193C240.847 360.312 214.579 382.387 181.514 341.575C180.743 340.626 180.204 339.473 180.049 338.253C176.334 309.091 202.789 252.411 214.422 233.504Z" stroke="#161616" stroke-width="0.3"/>
<path d="M299.322 313.99C299.238 311.739 298.707 311.179 297.872 310.804C296.005 319.844 298.806 311.756 296.8 317.466C296.985 317.621 297.154 317.723 297.313 317.778C298.833 318.313 299.384 315.626 299.322 313.99Z" fill="#CE8974"/>
<path d="M299.437 320.409C299.343 320.226 299.228 320.075 299.092 319.95C298.507 319.41 297.643 320.004 297.472 320.79C296.793 323.923 298.448 318.49 296.938 323.811C298.646 324.58 300.304 322.094 299.437 320.409Z" fill="#9A6454"/>
<path d="M295.549 338.036C292.671 342.156 292.367 346.534 295.041 347.443C299.432 346.548 300.107 338.508 296.685 337.544C296.249 337.422 295.81 337.66 295.549 338.036Z" fill="#9A6454"/>
<path d="M307.237 306.527C305.215 306.812 304.418 308.264 302.542 307.898L302.573 307.859C304.02 305.93 304.972 304.661 303.339 300.347C305.997 300.977 307.28 303.909 307.237 306.527Z" fill="#646464"/>
<path d="M384.797 233.504C372.915 214.193 348.937 220.105 355.374 249.206C356.432 250.009 365.23 258.083 363.781 263.958C361.967 271.308 360.892 280.767 361.566 290.408C361.977 296.304 356.26 305.181 350.969 307.604C338.252 313.427 321.108 324.148 319.527 326.981C318.762 323.896 317.469 320.423 312.522 308.9C305.049 297.956 310.653 305.094 306.918 306.045C305.579 305.76 304.935 305.222 303.068 306.782C303.068 306.782 300.283 312.63 299.989 315.514C299.01 325.115 298.257 346.495 299.325 352.528C299.524 353.649 300.197 354.63 300.95 355.469C306.979 362.193 321.825 362.193 326.065 362.193C358.372 360.312 384.639 382.387 417.706 341.575C418.475 340.626 419.015 339.473 419.171 338.253C422.885 309.091 396.429 252.411 384.797 233.504Z" fill="#1E1E1E"/>
<path d="M398.234 286.93C408.745 278.816 425.262 329.892 418.755 340.871C392.164 370.331 374.856 370.44 336.897 362.437C329.284 357.392 329.182 354.334 333.166 351.372C372.707 343.258 372.707 329.892 394.23 331.802C393.228 317.48 394.23 295.045 398.234 286.93Z" fill="#141414"/>
<path d="M356.297 305.458C344.127 310.99 335.004 316.129 320.287 327.933C336.917 317.726 347.772 313.362 363.246 306.837C364.372 306.362 365.094 305.221 365.043 303.98C364.53 291.448 363.379 280.573 363.72 263.221C362.459 269.854 362.231 278.481 361.581 297.531C361.462 300.983 359.392 304.05 356.297 305.458Z" fill="#434343"/>
<path d="M388.76 243.279C407.369 281.038 416.555 301.637 420.212 332.547C420.212 338.877 416.855 334.595 416.621 331.888C414.409 306.311 406.255 284.771 388.76 243.279Z" fill="#434343"/>
<path d="M407.153 352.677C397.879 361.194 381.649 371.503 341.77 362.539C373.108 366.82 387.966 364.815 403.444 354.469L407.153 352.677Z" fill="#434343"/>
<path d="M313.171 343.306C309.628 336.862 305.353 329.655 304.263 306.045C297.578 307.691 299.969 329.633 299.621 352.354C300.227 353.08 300.831 353.741 301.432 354.343C308.162 361.1 317.785 351.706 313.171 343.306Z" fill="#141414"/>
<path d="M299.479 353.629C301.347 356.483 305.551 358.862 305.551 358.862C302.475 356.042 301.527 354.794 301.038 353.643C300.514 352.412 300.383 351.054 300.321 349.713L300.318 349.668C299.752 337.565 298.407 308.762 303.682 306.521C297.61 307.948 299.828 330.515 299.479 353.629Z" fill="#272727"/>
<path d="M384.797 233.504C372.915 214.193 348.937 220.105 355.374 249.206C356.432 250.009 365.23 258.083 363.781 263.958C361.967 271.308 360.892 280.767 361.566 290.408C361.977 296.304 356.26 305.181 350.969 307.604C338.252 313.427 321.108 324.148 319.527 326.981C318.762 323.896 317.469 320.423 312.522 308.9C305.049 297.956 310.653 305.094 306.918 306.045C305.579 305.76 304.935 305.222 303.068 306.782C303.068 306.782 300.283 312.63 299.989 315.514C299.01 325.115 298.257 346.495 299.325 352.528C299.524 353.649 300.197 354.63 300.95 355.469C306.979 362.193 321.825 362.193 326.065 362.193C358.372 360.312 384.639 382.387 417.706 341.575C418.475 340.626 419.015 339.473 419.171 338.253C422.885 309.091 396.429 252.411 384.797 233.504Z" stroke="#161616" stroke-width="0.3"/>
<path d="M299.897 313.99C299.982 311.739 300.513 311.179 301.348 310.804C303.216 319.844 300.413 311.756 302.419 317.466C302.236 317.621 302.065 317.723 301.906 317.778C300.388 318.313 299.836 315.626 299.897 313.99Z" fill="#CE8974"/>
<path d="M299.783 320.409C299.878 320.226 299.993 320.075 300.128 319.95C300.712 319.41 301.577 320.004 301.748 320.79C302.426 323.923 300.771 318.49 302.281 323.811C300.574 324.58 298.916 322.094 299.783 320.409Z" fill="#9A6454"/>
<path d="M303.671 338.036C306.548 342.156 306.852 346.534 304.177 347.443C299.788 346.548 299.111 338.508 302.535 337.544C302.969 337.422 303.409 337.66 303.671 338.036Z" fill="#9A6454"/>
<path d="M356.265 95.8017C349.54 108.744 341.009 114.517 337.584 115.787C348.793 115.787 357.822 135.771 360.935 145.764C377.374 148.809 383.353 136.564 384.287 130.062C386.528 123.971 382.418 105.952 380.083 97.704C373.358 84.7621 361.403 91.0424 356.265 95.8017Z" fill="#1E1E1E"/>
<path d="M254.921 107.221C255.296 111.409 258.191 113.408 259.593 113.883C249.505 115.787 242.001 135.929 239.51 145.764H234.372C219.666 147.392 214.854 133.109 213.967 122.594C213.695 119.369 214.408 116.68 215.085 113.519C216.538 106.727 218.372 99.0149 223.692 94.6637C231.594 88.2002 236.555 92.24 239.51 93.4228C243.265 94.9229 254.455 101.987 254.921 107.221Z" fill="#1E1E1E"/>
<path d="M258.657 114.359C250.02 118.307 246.156 126.314 239.976 144.812C231.084 164.249 206.147 214.071 249.316 236.647C262.625 243.252 266.963 247.346 274.068 254.728C293.683 269.407 302.072 269.719 321.237 254.728C332.559 245.874 340.216 242.94 352.51 236.647C383.335 220.872 369.79 174.241 360.917 141.958C352.475 122.381 347.701 117.601 338.517 114.359C329.16 109.527 307.21 108.268 300.204 109.527C294.36 110.577 292.731 109.052 296.001 107.623C287.643 107.068 273.15 107.177 258.657 114.359Z" fill="white"/>
<path d="M278.835 191.196C269.868 198.048 264.824 208.642 263.423 213.084C257.651 216.429 255.398 216.692 253.616 213.56C246.143 213.56 250.813 211.181 249.412 211.656C251.654 209.754 249.412 207.691 248.012 206.898C248.478 208.484 249.132 210.799 248.012 207.373C246.611 203.092 248.012 191.196 249.412 189.769C250.813 188.34 262.129 176.315 261.088 172.163C267.159 166.928 271.83 169.782 270.896 169.782C273.137 172.447 276.5 175.017 277.9 175.969C277.153 184.344 278.212 189.609 278.835 191.196Z" fill="#1E1E1E"/>
<path d="M268.083 188.811C265.923 188.273 262.034 186.977 262.401 184.007C262.694 181.63 266.048 185.005 268.083 188.187C268.093 188.202 269.279 188.22 268.448 188.515L268.083 188.811Z" fill="#727272"/>
<path d="M274.052 187.846C274.651 185.358 273.059 180.334 267.046 181.659C269.537 182.928 273.678 185.942 274.052 187.846Z" fill="#727272"/>
<path d="M273.584 188.515C273.118 185.818 270.689 180.901 264.711 182.805C264.711 185.343 266.486 190.038 273.584 188.515Z" fill="white"/>
<path d="M273.584 188.515C273.429 186.136 271.436 181.862 264.711 182.623C265.593 187.601 267.256 189.182 273.584 188.515Z" stroke="#181818"/>
<path d="M269.383 178.999C270.938 178.682 274.332 178.999 275.453 182.805" stroke="#181818"/>
<path d="M325.424 169.006C323.556 169.386 319.352 175.509 317.485 178.522C315.99 180.807 315.617 187.722 315.617 190.895C318.979 192.036 318.263 193.909 317.485 194.701C318.605 197.746 321.689 201.363 323.089 202.79C326.452 203.551 327.915 206.914 328.227 208.499C327.853 214.211 331.185 215.003 332.897 214.686C335.138 212.021 339.124 211.672 340.836 211.83C341.359 210.765 342.173 210.002 343.005 209.477C343.991 208.854 344.495 207.323 343.73 206.433L342.764 205.307C342.437 204.926 342.327 204.398 342.441 203.904C344.498 194.977 338.558 185.228 335.232 181.378C336.353 178.333 332.274 173.447 330.094 171.385C328.974 168.72 326.513 168.689 325.424 169.006Z" fill="#1E1E1E"/>
<path d="M320.243 188.039C319.308 183.28 324.445 180.426 325.847 182.328C324.912 183.28 321.363 186.515 320.243 188.039Z" fill="#727272"/>
<path d="M326.313 189.943C326.936 188.039 328.648 184.232 330.517 184.232C330.517 185.501 329.676 188.419 326.313 189.943Z" fill="#727272"/>
<path d="M325.379 179.543C323.942 179.31 320.81 179.543 319.775 182.33" stroke="#181818"/>
<path d="M320.709 188.467C321.177 185.769 323.606 180.853 329.583 182.756C329.583 185.294 327.808 189.989 320.709 188.467Z" fill="white"/>
<path d="M320.709 188.467C320.866 186.086 322.859 181.814 329.583 182.575C328.703 187.552 327.039 189.134 320.709 188.467Z" stroke="#181818"/>
<path d="M314.215 231.34C298.258 240.425 282.196 232.536 281.057 232.536L289.036 214.366C296.331 209.776 305.754 212.453 308.414 214.366L314.215 231.34Z" fill="url(#paint0_linear_1742_720)"/>
<path d="M282.924 232.593C287.496 222.569 283.94 229.427 284.956 229.955C291.051 218.875 286.48 226.789 286.988 229.427C286.988 230.833 286.379 232.277 288.004 228.9C294.609 210.96 289.528 225.206 291.051 229.427C297.098 204.305 292.149 223.832 295.54 228.782C295.587 228.849 295.676 228.86 295.734 228.803C297.574 227.032 296.201 219.28 297.593 227.981C297.615 228.115 297.783 228.161 297.843 228.039C299.582 224.513 298.778 213.631 300.565 228.286C300.587 228.459 300.83 228.475 300.85 228.301C302.125 217.892 300.751 211.829 303.007 225.155C305.765 224.218 301.844 209.319 306.087 226.488C306.127 226.651 306.346 226.656 306.353 226.491C306.561 221.954 304.808 217.124 308.518 228.209C308.555 228.322 308.697 228.35 308.739 228.238C309.716 225.705 306.748 213.664 311.228 230.182C311.318 229.448 311.33 227.424 311.103 225.815C310.945 224.69 313.644 230.199 313.978 232.593H311.88C305.445 234.879 290.645 238.08 282.924 232.593Z" fill="url(#paint1_linear_1742_720)"/>
<path d="M301.604 237.051C299.424 235.147 298.522 231.531 312.346 232.292C311.1 235.305 307.583 240.476 301.604 237.051Z" fill="#181818"/>
<path d="M293.666 237.631C295.845 235.727 296.749 232.11 282.924 232.871C284.169 235.885 287.689 241.055 293.666 237.631Z" fill="#181818"/>
<path d="M282.924 231.836L284.791 233.74C290.022 232.217 292.575 235.326 293.198 237.07C290.957 237.07 286.66 235.168 284.791 234.216L282.456 231.836H281.056C283.391 238.022 287.438 239.767 290.395 240.401C293.011 240.401 296.156 243.257 297.401 244.684C300.764 240.878 304.717 240.243 306.275 240.401C311.131 238.118 313.436 233.74 314.213 231.836H312.346L310.012 234.216C306.938 236.132 305.077 236.676 301.605 237.07C303.473 232.883 308.609 233.105 310.012 233.74L311.879 231.836C305.527 226.508 299.581 228.665 297.401 230.409C291.423 225.46 285.259 229.299 282.924 231.836Z" fill="#181818"/>
<path d="M300.692 237.581C302.7 236.515 304.698 236.555 305.82 236.585C305.962 236.589 306.017 236.778 305.899 236.857C303.767 238.292 301.947 238.557 300.814 238.459C300.289 238.414 300.224 237.83 300.692 237.581Z" fill="#D9D9D9"/>
<path d="M293.654 237.389C291.439 236.11 288.997 235.691 287.866 235.63C287.75 235.624 287.683 235.755 287.753 235.849C289.206 237.803 291.941 238.255 293.505 238.198C294.031 238.179 294.115 237.654 293.654 237.389Z" fill="#D9D9D9"/>
<path d="M297.204 230.249C295.942 229.348 295.239 228.508 289.462 228.961C293.261 228.961 295.634 230.153 296.999 232.114C297.194 232.394 297.622 232.402 297.827 232.129C299.358 230.093 301.719 229.487 306.275 228.961C302.239 228.504 299.064 228.925 297.577 230.223C297.472 230.315 297.318 230.331 297.204 230.249Z" fill="#D9D9D9"/>
<path d="M284.791 233.74L284.275 234.267L284.579 234.577L284.993 234.456L284.791 233.74ZM282.924 231.836L282.468 231.253L281.828 231.773L282.407 232.363L282.924 231.836ZM297.401 230.409L296.98 231.018L297.425 231.337L297.853 230.994L297.401 230.409ZM311.878 231.836L312.396 232.363L312.965 231.782L312.343 231.261L311.878 231.836ZM310.011 233.74L309.713 234.42L310.172 234.627L310.528 234.267L310.011 233.74ZM301.605 237.07L300.939 236.762L300.473 237.806L301.599 237.815L301.605 237.07ZM312.346 231.836V231.091H312.044L311.829 231.31L312.346 231.836ZM314.213 231.836L314.889 232.123L315.31 231.091H314.213V231.836ZM306.274 240.401L306.201 241.143L306.4 241.162L306.582 241.078L306.274 240.401ZM297.401 244.684L296.854 245.178L297.398 245.801L297.945 245.181L297.401 244.684ZM290.395 240.401L290.245 241.13L290.319 241.146H290.395V240.401ZM281.056 231.836V231.091H279.991L280.373 232.104L281.056 231.836ZM282.456 231.836L282.974 231.31L282.759 231.091H282.456V231.836ZM284.791 234.215L284.275 234.742L284.358 234.827L284.465 234.882L284.791 234.215ZM293.198 237.07V237.815H294.242L293.885 236.816L293.198 237.07ZM298.132 235.643C298.132 235.232 297.805 234.899 297.401 234.899C296.998 234.899 296.67 235.232 296.67 235.643H298.132ZM285.309 233.212L283.44 231.31L282.407 232.363L284.275 234.267L285.309 233.212ZM283.379 232.418C284.557 231.463 286.633 230.132 289.084 229.537C291.515 228.949 294.292 229.086 296.98 231.018L297.822 229.8C294.72 227.571 291.49 227.424 288.746 228.089C286.022 228.749 283.755 230.211 282.468 231.253L283.379 232.418ZM297.853 230.994C299.809 229.429 305.371 227.34 311.414 232.411L312.343 231.261C305.684 225.673 299.352 227.9 296.95 229.823L297.853 230.994ZM311.362 231.31L309.494 233.212L310.528 234.267L312.396 232.363L311.362 231.31ZM310.308 233.059C309.849 232.85 309.169 232.707 308.413 232.66C307.644 232.612 306.744 232.658 305.823 232.87C303.976 233.294 301.994 234.398 300.939 236.762L302.27 237.379C303.083 235.556 304.603 234.677 306.143 234.324C306.915 234.146 307.677 234.106 308.324 234.146C308.984 234.188 309.472 234.312 309.713 234.42L310.308 233.059ZM301.599 237.815C303.268 237.829 305.362 237.188 307.041 236.525C307.891 236.189 308.663 235.834 309.257 235.532C309.552 235.381 309.81 235.24 310.013 235.116C310.193 235.009 310.396 234.876 310.528 234.742L309.494 233.689C309.509 233.674 309.457 233.72 309.269 233.835C309.102 233.935 308.877 234.058 308.602 234.2C308.051 234.481 307.321 234.815 306.511 235.135C304.865 235.786 302.988 236.336 301.611 236.326L301.599 237.815ZM310.528 234.742C310.762 234.504 311.345 233.909 311.87 233.375C312.133 233.107 312.381 232.853 312.564 232.667C312.655 232.575 312.729 232.499 312.782 232.445C312.808 232.42 312.827 232.399 312.842 232.384C312.849 232.377 312.854 232.372 312.858 232.368C312.86 232.366 312.861 232.365 312.861 232.365C312.862 232.363 312.862 232.363 312.862 232.363C312.862 232.363 312.862 232.363 312.346 231.836C311.829 231.31 311.829 231.31 311.829 231.31C311.829 231.31 311.829 231.31 311.827 231.312C311.827 231.312 311.826 231.313 311.823 231.315C311.82 231.319 311.814 231.323 311.808 231.331C311.794 231.346 311.773 231.365 311.748 231.392C311.696 231.446 311.621 231.522 311.531 231.614C311.348 231.8 311.099 232.053 310.836 232.32C310.311 232.856 309.728 233.451 309.494 233.689L310.528 234.742ZM312.346 232.581H314.213V231.091H312.346V232.581ZM313.539 231.55C312.792 233.378 310.585 237.555 305.969 239.725L306.582 241.078C311.678 238.681 314.079 234.102 314.889 232.123L313.539 231.55ZM306.348 239.661C304.57 239.479 300.382 240.196 296.857 244.185L297.945 245.181C301.144 241.559 304.867 241.006 306.201 241.143L306.348 239.661ZM297.948 244.189C297.292 243.437 296.151 242.324 294.828 241.395C293.527 240.479 291.933 239.656 290.395 239.656V241.146C291.474 241.146 292.761 241.751 293.998 242.621C295.211 243.474 296.265 244.502 296.854 245.178L297.948 244.189ZM290.547 239.673C289.135 239.369 287.494 238.809 285.933 237.607C284.377 236.408 282.86 234.543 281.738 231.569L280.373 232.104C281.586 235.316 283.26 237.416 285.051 238.795C286.837 240.17 288.699 240.799 290.245 241.13L290.547 239.673ZM281.056 232.581H282.456V231.091H281.056V232.581ZM281.94 232.363L284.275 234.742L285.309 233.689L282.974 231.31L281.94 232.363ZM284.465 234.882C285.418 235.368 286.986 236.093 288.603 236.7C290.19 237.294 291.935 237.815 293.198 237.815V236.326C292.22 236.326 290.695 235.895 289.107 235.301C287.549 234.717 286.032 234.015 285.119 233.549L284.465 234.882ZM293.885 236.816C293.521 235.795 292.622 234.435 291.088 233.534C289.53 232.619 287.377 232.213 284.591 233.023L284.993 234.456C287.437 233.744 289.176 234.13 290.357 234.826C291.563 235.533 292.252 236.601 292.511 237.325L293.885 236.816ZM296.67 235.643V244.684H298.132V235.643H296.67Z" fill="#181818"/>
<path d="M298.805 247.994C297.309 246.853 296.002 247.519 295.536 247.994C290.001 255.153 276.203 250.918 274.519 249.898C274.892 250.41 284.148 265.691 289.931 261.794C292.733 260.365 305.231 259.221 308.613 260.842C312.658 262.781 316.552 255.132 319.821 249.421C312.815 251.801 301.34 252.522 298.805 247.994Z" fill="url(#paint2_radial_1742_720)" fill-opacity="0.7"/>
<path d="M298.805 247.994C297.309 246.853 296.002 247.519 295.536 247.994C290.001 255.153 276.203 250.918 274.519 249.898C274.892 250.41 288.351 255.698 294.134 251.801C296.937 250.373 297.204 250.181 300.584 251.801C304.63 253.741 309.079 254.655 319.821 249.421C312.815 251.801 301.34 252.522 298.805 247.994Z" fill="#181818"/>
<path d="M230.438 389.488C239.82 403.042 249.348 421.433 260.976 446.415L255.926 469.294C254.75 474.621 250.813 478.941 245.57 480.066C200.461 489.729 163.418 470.276 147.668 438.3C123.17 388.564 198.96 344.012 230.438 389.488Z" fill="#1E1E1E"/>
<path d="M241.365 479.902C229.938 446.207 163.076 458.43 156.043 420.272C155.799 418.949 154.142 418.467 153.479 419.63C150.4 425.032 149.759 431.413 152.211 439.527C158.839 465.424 191.667 487.213 240.175 481.776C241.064 481.676 241.656 480.763 241.365 479.902Z" fill="#141414"/>
<path d="M266.448 464.906C268.697 426.576 242.485 414.954 222.528 411.625C209.793 409.501 198.984 419.514 199.383 432.657C200.045 454.559 207.684 484.982 244.893 485.545C256.27 485.716 265.769 476.476 266.448 464.906Z" fill="#181818"/>
<path d="M233.259 422.569C235.057 422.301 235.422 421.698 234.943 419.49C234.465 417.294 232.855 415.455 230.72 414.881C227.263 413.952 225.306 414.705 226.64 418.686C227.554 421.412 230.462 422.985 233.259 422.569Z" fill="#CE8974"/>
<path d="M223.733 425.828C224.794 425.681 225.365 425.066 225.574 423.742C225.954 421.327 224.328 418.967 222.043 418.219C219.382 417.348 217.892 418.102 218.84 421.848C219.417 424.138 221.435 426.149 223.733 425.828Z" fill="#CE8974"/>
<path d="M216.107 429.932C216.648 429.956 217.038 429.679 217.379 429.009C218.393 427.01 217.712 424.428 215.984 423.025C214.481 421.804 213.278 421.804 212.708 423.923C212.026 426.462 213.526 429.819 216.107 429.932Z" fill="#CE8974"/>
<path d="M213.014 437.285C213.554 437.309 213.944 437.032 214.285 436.362C215.3 434.363 214.618 431.78 212.892 430.378C211.387 429.155 210.184 429.155 209.614 431.276C208.932 433.814 210.433 437.172 213.014 437.285Z" fill="#CE8974"/>
<path d="M211.36 445.143C211.478 445.072 211.589 444.964 211.694 444.817C213 443.001 212.415 440.23 210.75 438.753C209.741 437.859 208.855 437.722 208.21 438.775C206.712 441.218 208.92 446.598 211.36 445.143Z" fill="#CE8974"/>
<path d="M236.134 426.395C223.66 432.508 223.034 432.925 215.55 445.949C215.481 446.068 215.427 446.201 215.395 446.335C214.473 450.182 214.66 455.275 216.476 457.687C221.455 464.304 230.766 457.644 223.486 450.778C223.014 450.331 222.819 449.637 223.078 449.037C226.977 439.944 233.905 435.438 245.197 430.722C246.56 430.153 246.382 428.097 244.936 427.814L237.052 426.269C236.744 426.208 236.416 426.256 236.134 426.395Z" fill="#9A6454"/>
<path d="M250.065 454.534C254.098 454.569 257.402 450.559 257.445 445.576C257.487 440.593 254.252 436.524 250.219 436.488C246.186 436.452 242.882 440.463 242.84 445.446C242.797 450.429 246.032 454.498 250.065 454.534Z" fill="#9A6454"/>
<path d="M241.784 463.706C241.084 460.201 237.674 457.949 234.167 458.676C230.66 459.403 228.384 462.833 229.084 466.338C229.784 469.843 233.194 472.095 236.701 471.368C240.208 470.641 242.483 467.211 241.784 463.706Z" fill="#9A6454"/>
<path d="M369.973 389.488C360.591 403.042 351.063 421.433 339.436 446.415L344.485 469.294C345.661 474.621 349.598 478.941 354.841 480.066C399.95 489.729 436.994 470.276 452.744 438.3C477.241 388.564 401.451 344.012 369.973 389.488Z" fill="#1E1E1E"/>
<path d="M359.942 480.008C370.821 450.891 432.615 461.31 439.437 428.328C439.704 427.037 441.317 426.548 441.988 427.677C444.77 432.366 445.327 437.9 443.065 444.914C436.888 467.547 406.311 486.595 361.123 481.897C360.218 481.803 359.618 480.873 359.942 480.008Z" fill="#141414"/>
<path d="M337.237 459.552C334.988 421.224 361.198 409.602 381.155 406.273C393.891 404.147 404.7 414.162 404.302 427.305C403.638 449.207 395.999 479.628 358.79 480.192C347.415 480.364 337.915 471.124 337.237 459.552Z" fill="#181818"/>
<path d="M367.151 422.569C365.353 422.301 364.987 421.698 365.467 419.49C365.945 417.294 367.555 415.455 369.689 414.881C373.147 413.952 375.103 414.705 373.77 418.686C372.856 421.412 369.949 422.985 367.151 422.569Z" fill="#CE8974"/>
<path d="M376.677 425.828C375.617 425.681 375.045 425.066 374.836 423.742C374.456 421.327 376.082 418.967 378.367 418.219C381.028 417.348 382.518 418.102 381.57 421.848C380.993 424.138 378.975 426.149 376.677 425.828Z" fill="#CE8974"/>
<path d="M384.303 429.932C383.763 429.956 383.373 429.679 383.032 429.009C382.017 427.01 382.699 424.428 384.425 423.025C385.93 421.804 387.133 421.804 387.702 423.923C388.385 426.462 386.884 429.819 384.303 429.932Z" fill="#CE8974"/>
<path d="M387.396 437.285C386.855 437.309 386.467 437.032 386.126 436.362C385.11 434.363 385.793 431.78 387.519 430.378C389.022 429.155 390.227 429.155 390.796 431.276C391.478 433.814 389.977 437.172 387.396 437.285Z" fill="#CE8974"/>
<path d="M389.051 445.143C388.931 445.072 388.822 444.964 388.716 444.817C387.409 443.001 387.994 440.23 389.661 438.753C390.668 437.859 391.554 437.722 392.201 438.775C393.698 441.218 391.491 446.598 389.051 445.143Z" fill="#CE8974"/>
<path d="M364.277 426.395C376.751 432.508 377.377 432.925 384.861 445.949C384.93 446.068 384.984 446.201 385.016 446.335C385.938 450.182 385.751 455.275 383.935 457.687C378.956 464.304 369.645 457.644 376.925 450.778C377.397 450.331 377.592 449.637 377.333 449.037C373.434 439.944 366.508 435.438 355.213 430.722C353.851 430.153 354.029 428.097 355.475 427.814L363.359 426.269C363.667 426.208 363.995 426.256 364.277 426.395Z" fill="#9A6454"/>
<path d="M350.346 454.534C346.313 454.569 343.009 450.559 342.967 445.576C342.924 440.593 346.159 436.524 350.192 436.488C354.225 436.452 357.529 440.463 357.571 445.446C357.614 450.429 354.379 454.498 350.346 454.534Z" fill="#9A6454"/>
<path d="M358.628 463.706C359.327 460.201 362.738 457.949 366.244 458.676C369.751 459.403 372.027 462.833 371.327 466.338C370.627 469.843 367.217 472.095 363.71 471.368C360.203 470.641 357.928 467.211 358.628 463.706Z" fill="#9A6454"/>
</g>
<defs>
<filter id="filter0_f_1742_720" x="-41.8428" y="-54.5187" width="672.784" height="668.957" filterUnits="userSpaceOnUse" color-interpolation-filters="sRGB">
<feFlood flood-opacity="0" result="BackgroundImageFix"/>
<feBlend mode="normal" in="SourceGraphic" in2="BackgroundImageFix" result="shape"/>
<feGaussianBlur stdDeviation="25" result="effect1_foregroundBlur_1742_720"/>
</filter>
<filter id="filter1_f_1742_720" x="-3.13086" y="-10.3906" width="607.514" height="618.596" filterUnits="userSpaceOnUse" color-interpolation-filters="sRGB">
<feFlood flood-opacity="0" result="BackgroundImageFix"/>
<feBlend mode="normal" in="SourceGraphic" in2="BackgroundImageFix" result="shape"/>
<feGaussianBlur stdDeviation="5" result="effect1_foregroundBlur_1742_720"/>
</filter>
<linearGradient id="paint0_linear_1742_720" x1="297.869" y1="211.832" x2="297.869" y2="236.574" gradientUnits="userSpaceOnUse">
<stop offset="0.219444" stop-color="#858585" stop-opacity="0"/>
<stop offset="1" stop-color="#858585"/>
</linearGradient>
<linearGradient id="paint1_linear_1742_720" x1="297.148" y1="235.758" x2="297.148" y2="216.764" gradientUnits="userSpaceOnUse">
<stop stop-color="#6D6D6D"/>
<stop offset="1" stop-color="#6D6D6D" stop-opacity="0"/>
</linearGradient>
<radialGradient id="paint2_radial_1742_720" cx="0" cy="0" r="1" gradientUnits="userSpaceOnUse" gradientTransform="translate(297.403 248.946) rotate(90) scale(9.99245 20.5093)">
<stop/>
<stop offset="1" stop-opacity="0"/>
</radialGradient>
<clipPath id="clip0_1742_720">
<rect width="619" height="598" fill="white"/>
</clipPath>
</defs>
</svg>
