<svg width="1175" height="369" viewBox="0 0 1175 369" fill="none" xmlns="http://www.w3.org/2000/svg">
<path d="M1022.06 57.2163C1007.34 61.1591 992.497 53.2314 988.845 39.5992C985.192 25.967 994.085 11.6784 1008.8 7.73559C1023.51 3.79279 1038.36 11.7205 1042.01 25.3527C1045.67 38.9849 1036.77 53.2735 1022.06 57.2163Z" stroke="url(#paint0_linear_1742_1281)"/>
<path d="M1131.18 116.236C1154.71 138.18 1155.61 175.488 1133.15 199.568C1110.7 223.648 1073.42 225.353 1049.89 203.41C1026.35 181.466 1025.45 144.158 1047.91 120.078C1070.36 95.9982 1107.64 94.2931 1131.18 116.236Z" stroke="url(#paint1_linear_1742_1281)"/>
<path d="M212.71 305.99C163.241 339.988 95.731 327.662 61.9194 278.466C28.1079 229.269 40.7937 161.826 90.2619 127.827C139.73 93.8286 207.24 106.155 241.052 155.351C274.864 204.547 262.178 271.991 212.71 305.99Z" stroke="url(#paint2_linear_1742_1281)"/>
<defs>
<linearGradient id="paint0_linear_1742_1281" x1="1042.5" y1="25.2233" x2="988.362" y2="39.7286" gradientUnits="userSpaceOnUse">
<stop stop-color="#00B76F"/>
<stop offset="1" stop-color="white" stop-opacity="0"/>
</linearGradient>
<linearGradient id="paint1_linear_1742_1281" x1="1047.54" y1="119.737" x2="1133.52" y2="199.909" gradientUnits="userSpaceOnUse">
<stop stop-color="#00B76F"/>
<stop offset="1" stop-color="white" stop-opacity="0"/>
</linearGradient>
<linearGradient id="paint2_linear_1742_1281" x1="241.464" y1="155.068" x2="61.5074" y2="278.749" gradientUnits="userSpaceOnUse">
<stop stop-color="#00B76F"/>
<stop offset="1" stop-color="white" stop-opacity="0"/>
</linearGradient>
</defs>
</svg>
