<svg width="1536" height="1316" viewBox="0 0 1536 1316" fill="none" xmlns="http://www.w3.org/2000/svg">
<g filter="url(#filter0_f_1814_1068)">
<path d="M1423 71C1423 282.525 1127.06 454 762 454C396.94 454 101 282.525 101 71C101 -140.525 396.94 -312 762 -312C1127.06 -312 1423 -140.525 1423 71Z" fill="url(#paint0_radial_1814_1068)" fill-opacity="0.5"/>
</g>
<path d="M238.926 714.141C215.745 741.282 174.597 744.209 147.018 720.654C119.439 697.099 115.893 656.001 139.074 628.859C162.255 601.718 203.403 598.791 230.982 622.346C258.561 645.901 262.107 686.999 238.926 714.141Z" stroke="url(#paint1_linear_1814_1068)"/>
<path d="M1230.85 122.681C1259.7 96.7046 1304.58 99.4635 1331.08 128.9C1357.59 158.336 1355.64 203.253 1326.79 229.23C1297.94 255.206 1253.06 252.447 1226.56 223.011C1200.06 193.575 1202 148.657 1230.85 122.681Z" stroke="url(#paint2_linear_1814_1068)" stroke-width="2"/>
<path d="M1317.57 827.66C1259.85 886.4 1164.48 886.358 1104.57 827.481C1044.66 768.604 1042.95 673.255 1100.67 614.515C1158.4 555.774 1253.76 555.816 1313.68 614.694C1373.59 673.571 1375.3 768.919 1317.57 827.66Z" stroke="url(#paint3_linear_1814_1068)" stroke-width="3"/>
<path d="M1350.8 389.491C1336.59 388.995 1325.44 376.844 1325.95 362.313C1326.46 347.782 1338.42 336.438 1352.64 336.934C1366.85 337.43 1377.99 349.581 1377.49 364.112C1376.98 378.644 1365.01 389.988 1350.8 389.491Z" stroke="url(#paint4_linear_1814_1068)" stroke-width="2"/>
<path d="M190.172 379.94C201.678 388.299 204.122 404.604 195.575 416.367C187.029 428.13 170.766 430.845 159.261 422.486C147.756 414.126 145.312 397.821 153.858 386.058C162.405 374.295 178.667 371.581 190.172 379.94Z" stroke="url(#paint5_linear_1814_1068)" stroke-width="2"/>
<path d="M365.581 189.853C357.122 178.421 359.694 162.136 371.382 153.487C383.07 144.838 399.396 147.14 407.855 158.572C416.314 170.004 413.742 186.289 402.054 194.938C390.366 203.586 374.04 201.285 365.581 189.853Z" stroke="url(#paint6_linear_1814_1068)" stroke-width="2"/>
<g filter="url(#filter1_f_1814_1068)">
<ellipse cx="1502.5" cy="967" rx="141.5" ry="149" fill="#02D77C" fill-opacity="0.3"/>
</g>
<g filter="url(#filter2_f_1814_1068)">
<ellipse cx="33.5" cy="241" rx="141.5" ry="149" fill="#02D77C" fill-opacity="0.2"/>
</g>
<g filter="url(#filter3_f_1814_1068)">
<path d="M758.886 141.133L807.615 333.876L988.768 251.781L868.38 410.033L1045.54 500.406L846.692 504.999L886.46 699.788L758.886 547.264L631.31 699.788L671.078 504.999L472.226 500.406L649.39 410.033L529.002 251.781L710.156 333.876L758.886 141.133Z" fill="white" fill-opacity="0.4"/>
</g>
<g filter="url(#filter4_f_1814_1068)">
<path d="M765.62 145.186C755.913 183.462 761.412 263.858 761.412 399.351H767.021C767.021 263.858 774.753 185.15 765.62 145.186Z" fill="white" fill-opacity="0.2"/>
<path d="M765.62 732.944C755.913 694.667 761.412 614.271 761.412 478.778H767.021C767.021 614.271 774.753 692.98 765.62 732.944Z" fill="white" fill-opacity="0.2"/>
<path d="M689.497 155.032C690.033 194.515 716.163 270.749 751.25 401.626L756.669 400.175C721.582 269.298 708.668 191.272 689.497 155.032Z" fill="white" fill-opacity="0.2"/>
<path d="M841.699 722.762C822.412 688.301 806.905 609.221 771.818 478.345L777.237 476.894C812.323 607.77 840.172 681.798 841.699 722.762Z" fill="white" fill-opacity="0.2"/>
<path d="M618.519 184.233C629.26 222.233 674.241 289.11 742.023 406.45L746.881 403.646C679.1 286.306 646.42 214.279 618.519 184.233Z" fill="white" fill-opacity="0.2"/>
<path d="M912.548 693.247C884.995 664.949 849.538 592.576 781.757 475.235L786.614 472.432C854.396 589.772 900.466 654.073 912.548 693.247Z" fill="white" fill-opacity="0.2"/>
<path d="M557.518 230.802C577.735 264.727 638.501 317.69 734.358 413.497L738.325 409.533C642.467 313.725 592.25 252.606 557.518 230.802Z" fill="white" fill-opacity="0.2"/>
<path d="M973.343 646.409C939.399 626.203 886.408 565.468 790.552 469.66L794.518 465.696C890.376 561.503 951.526 611.695 973.343 646.409Z" fill="white" fill-opacity="0.2"/>
<path d="M510.655 291.562C538.967 319.103 611.379 354.54 728.78 422.287L731.585 417.431C614.184 349.685 549.849 303.64 510.655 291.562Z" fill="white" fill-opacity="0.2"/>
<path d="M1019.93 585.441C981.913 574.705 915.002 529.746 797.601 462L800.404 457.144C917.805 524.891 989.87 557.554 1019.93 585.441Z" fill="white" fill-opacity="0.2"/>
<path d="M481.125 362.375C515.604 381.653 594.725 397.152 725.668 432.22L727.12 426.804C596.177 391.737 522.111 363.903 481.125 362.375Z" fill="white" fill-opacity="0.2"/>
<path d="M1049.15 514.499C1009.64 513.962 933.372 487.845 802.427 452.778L803.878 447.362C934.823 482.43 1012.89 495.338 1049.15 514.499Z" fill="white" fill-opacity="0.2"/>
<path d="M1059 439.715C1020.7 430.014 940.265 435.51 804.701 435.511V441.117C940.265 441.117 1019.01 448.843 1059 439.715Z" fill="white" fill-opacity="0.2"/>
<path d="M470.937 439.715C509.233 430.015 589.672 435.51 725.234 435.511V441.118C589.672 441.118 510.922 448.843 470.937 439.715Z" fill="white" fill-opacity="0.2"/>
<path d="M1049.15 363.632C1009.64 364.167 933.37 390.286 802.427 425.353L803.878 430.769C934.822 395.701 1012.89 382.793 1049.15 363.632Z" fill="white" fill-opacity="0.2"/>
<path d="M481.123 515.755C515.602 496.478 594.723 480.978 725.666 445.911L727.118 451.325C596.175 486.394 522.109 514.228 481.123 515.755Z" fill="white" fill-opacity="0.2"/>
<path d="M1019.93 292.689C981.913 303.426 915.002 348.384 797.601 416.131L800.404 420.986C917.805 353.24 989.87 320.577 1019.93 292.689Z" fill="white" fill-opacity="0.2"/>
<path d="M510.656 586.568C538.968 559.028 611.38 523.589 728.781 455.844L731.585 460.7C614.184 528.445 549.851 574.491 510.656 586.568Z" fill="white" fill-opacity="0.2"/>
<path d="M973.341 231.721C939.397 251.927 886.408 312.663 790.55 408.471L794.516 412.435C890.374 316.627 951.524 266.435 973.341 231.721Z" fill="white" fill-opacity="0.2"/>
<path d="M557.518 647.329C577.733 613.404 638.5 560.441 734.358 464.634L738.324 468.598C642.467 564.406 592.249 625.525 557.518 647.329Z" fill="white" fill-opacity="0.2"/>
<path d="M912.548 184.884C884.993 213.181 849.537 285.555 781.755 402.895L786.613 405.698C854.394 288.358 900.464 224.058 912.548 184.884Z" fill="white" fill-opacity="0.2"/>
<path d="M618.516 693.897C629.257 655.898 674.24 589.021 742.021 471.681L746.879 474.484C679.098 591.824 646.417 663.851 618.516 693.897Z" fill="white" fill-opacity="0.2"/>
<path d="M841.698 155.369C822.411 189.83 806.904 268.91 771.817 399.786L777.236 401.237C812.322 270.361 840.171 196.334 841.698 155.369Z" fill="white" fill-opacity="0.2"/>
<path d="M689.496 723.099C690.033 683.616 716.164 607.382 751.249 476.505L756.668 477.956C721.581 608.833 708.667 686.858 689.496 723.099Z" fill="white" fill-opacity="0.2"/>
</g>
<path d="M879.028 178.86L847.241 247.541C845.839 251.278 848.643 253.147 850.513 249.409L879.028 178.86Z" fill="#D9D9D9"/>
<path d="M659.791 701.843L691.578 633.161C692.981 629.424 690.176 627.555 688.306 631.294L659.791 701.843Z" fill="#D9D9D9"/>
<path d="M1030.96 330.599L960.125 357.328C956.504 359.011 957.194 362.31 961.148 360.952L1030.96 330.599Z" fill="#D9D9D9"/>
<path d="M507.862 550.103L578.696 523.374C582.316 521.691 581.625 518.393 577.671 519.75L507.862 550.103Z" fill="#D9D9D9"/>
<path d="M1029.08 554.475L960.928 521.507C957.214 520.04 955.296 522.81 959.001 524.743L1029.08 554.475Z" fill="#D9D9D9"/>
<path d="M509.741 326.227L577.89 359.196C581.605 360.663 583.523 357.892 579.818 355.959L509.741 326.227Z" fill="#D9D9D9"/>
<path d="M878.959 701.873L852.287 631.049C850.605 627.429 847.305 628.115 848.659 632.07L878.959 701.873Z" fill="#D9D9D9"/>
<path d="M659.862 178.83L686.533 249.652C688.215 253.273 691.515 252.587 690.161 248.632L659.862 178.83Z" fill="#D9D9D9"/>
<path d="M1014.24 403.307C1014.15 402.623 1013.52 402.14 1012.84 402.229C1012.84 402.23 1012.84 402.23 1012.83 402.23C1009.99 381.235 1004.51 361.075 996.743 342.092C996.744 342.091 996.745 342.091 996.746 342.091C997.384 341.826 997.686 341.095 997.421 340.457C989.014 320.198 978.009 301.287 964.822 284.141C964.402 283.594 963.617 283.492 963.07 283.913C963.069 283.913 963.068 283.914 963.067 283.914C950.287 267.468 935.48 252.673 919.022 239.903C919.022 239.902 919.023 239.901 919.024 239.901C919.444 239.353 919.341 238.568 918.794 238.148C901.64 224.976 882.723 213.984 862.456 205.587C861.819 205.322 861.087 205.625 860.823 206.263C860.823 206.264 860.822 206.265 860.822 206.266C841.836 198.511 821.674 193.041 800.677 190.197C800.677 190.196 800.677 190.195 800.677 190.194C800.767 189.509 800.284 188.882 799.599 188.793C788.945 187.404 778.08 186.688 767.049 186.688C756.017 186.688 745.152 187.404 734.498 188.793C733.813 188.882 733.331 189.509 733.42 190.194C733.42 190.195 733.42 190.196 733.42 190.197C712.424 193.041 692.261 198.511 673.276 206.266C673.275 206.265 673.275 206.264 673.275 206.263C673.01 205.625 672.279 205.322 671.641 205.587C651.375 213.984 632.458 224.976 615.304 238.148C614.756 238.568 614.653 239.353 615.074 239.901C615.074 239.901 615.075 239.902 615.076 239.903C598.617 252.673 583.811 267.468 571.03 283.914C571.03 283.914 571.029 283.913 571.028 283.913C570.481 283.492 569.696 283.594 569.275 284.141C556.089 301.287 545.084 320.198 536.676 340.457C536.412 341.095 536.714 341.826 537.352 342.091C537.353 342.091 537.354 342.091 537.355 342.092C529.589 361.075 524.111 381.235 521.263 402.23C521.262 402.23 521.261 402.23 521.259 402.229C520.575 402.14 519.948 402.623 519.858 403.307C518.467 413.961 517.75 424.826 517.75 435.858C517.75 446.89 518.467 457.755 519.858 468.409C519.948 469.093 520.575 469.576 521.259 469.486C521.261 469.486 521.262 469.486 521.263 469.486C524.111 490.481 529.589 510.641 537.355 529.624C537.354 529.624 537.353 529.625 537.352 529.625C536.714 529.89 536.412 530.621 536.676 531.259C545.084 551.518 556.089 570.428 569.275 587.574C569.696 588.122 570.481 588.224 571.028 587.803C571.029 587.803 571.03 587.802 571.03 587.801C583.811 604.248 598.617 619.043 615.076 631.813C615.075 631.814 615.074 631.814 615.074 631.815C614.653 632.363 614.756 633.147 615.304 633.568C632.458 646.74 651.375 657.732 671.641 666.129C672.279 666.393 673.01 666.091 673.275 665.453C673.275 665.452 673.275 665.451 673.276 665.45C692.262 673.204 712.424 678.675 733.42 681.519C733.42 681.52 733.42 681.521 733.42 681.522C733.331 682.207 733.813 682.834 734.498 682.923C745.152 684.312 756.017 685.028 767.049 685.028C778.081 685.028 788.945 684.312 799.6 682.923C800.284 682.834 800.767 682.207 800.678 681.522C800.677 681.521 800.677 681.52 800.677 681.519C821.674 678.675 841.836 673.204 860.822 665.45C860.822 665.451 860.823 665.452 860.823 665.453C861.087 666.091 861.819 666.393 862.456 666.129C882.723 657.732 901.64 646.74 918.794 633.568C919.341 633.147 919.444 632.363 919.024 631.815C919.023 631.814 919.022 631.814 919.022 631.813C935.48 619.043 950.287 604.248 963.067 587.801C963.068 587.802 963.069 587.803 963.07 587.803C963.617 588.224 964.402 588.122 964.822 587.574C978.009 570.428 989.013 551.518 997.421 531.259C997.686 530.621 997.384 529.89 996.746 529.625C996.745 529.625 996.744 529.624 996.743 529.624C1004.51 510.641 1009.99 490.481 1012.83 469.486C1012.84 469.486 1012.84 469.486 1012.84 469.486C1013.52 469.576 1014.15 469.093 1014.24 468.409C1015.63 457.755 1016.35 446.89 1016.35 435.858C1016.35 424.826 1015.63 413.961 1014.24 403.307Z" stroke="white" stroke-width="2.5" stroke-linecap="round" stroke-dasharray="70 70"/>
<path d="M766.84 672.849C896.519 672.849 1001.65 567.777 1001.65 438.165C1001.65 308.552 896.519 203.48 766.84 203.48C637.16 203.48 532.033 308.552 532.033 438.165C532.033 567.777 637.16 672.849 766.84 672.849Z" stroke="white" stroke-width="3"/>
<path d="M993.929 412.12C994.778 419.454 995.273 426.893 995.396 434.423L994.664 434.435C994.684 435.677 994.695 436.92 994.695 438.165C994.695 439.411 994.684 440.654 994.664 441.894L995.396 441.906C995.273 449.436 994.778 456.875 993.929 464.209L993.204 464.125C992.918 466.591 992.593 469.044 992.227 471.485L992.952 471.594C991.841 479.022 990.366 486.334 988.545 493.51L987.836 493.33C987.225 495.738 986.576 498.129 985.888 500.504L986.59 500.709C984.505 507.905 982.07 514.957 979.303 521.842L978.623 521.568C977.7 523.869 976.737 526.152 975.739 528.415L976.409 528.709C973.39 535.553 970.041 542.219 966.379 548.69L965.743 548.329C964.522 550.486 963.266 552.622 961.977 554.734L962.602 555.116C958.712 561.49 954.514 567.658 950.027 573.602L949.443 573.162C947.95 575.141 946.425 577.093 944.87 579.021L945.439 579.48C940.753 585.283 935.786 590.851 930.558 596.168L930.037 595.656C928.3 597.421 926.533 599.159 924.739 600.869L925.244 601.398C919.851 606.537 914.204 611.416 908.323 616.016L907.872 615.44C905.921 616.965 903.945 618.462 901.944 619.924L902.375 620.515C896.369 624.906 890.138 629.015 883.702 632.819L883.329 632.19C881.198 633.45 879.045 634.675 876.871 635.869L877.222 636.509C870.705 640.081 863.996 643.347 857.11 646.289L856.822 645.617C854.548 646.589 852.255 647.525 849.943 648.424L850.209 649.106C843.296 651.797 836.219 654.165 828.997 656.191L828.799 655.487C826.417 656.156 824.02 656.786 821.606 657.38L821.781 658.089C814.591 659.856 807.266 661.288 799.826 662.365L799.721 661.641C797.277 661.995 794.82 662.311 792.351 662.587L792.433 663.314C785.093 664.136 777.648 664.616 770.115 664.734L770.105 664.004C768.862 664.023 767.618 664.034 766.371 664.034C765.126 664.034 763.882 664.023 762.64 664.004L762.628 664.734C755.096 664.616 747.65 664.136 740.311 663.314L740.393 662.587C737.924 662.311 735.467 661.995 733.022 661.641L732.918 662.365C725.476 661.288 718.153 659.856 710.964 658.089L711.138 657.38C708.725 656.786 706.326 656.156 703.945 655.487L703.747 656.191C696.525 654.165 689.448 651.797 682.535 649.106L682.802 648.424C680.489 647.525 678.196 646.589 675.922 645.617L675.634 646.289C668.748 643.347 662.037 640.081 655.522 636.509L655.873 635.869C653.699 634.675 651.544 633.45 649.414 632.19L649.042 632.819C642.606 629.015 636.375 624.906 630.369 620.515L630.801 619.924C628.799 618.462 626.822 616.965 624.871 615.44L624.42 616.016C618.54 611.416 612.893 606.537 607.499 601.398L608.004 600.869C606.209 599.159 604.444 597.421 602.707 595.656L602.185 596.168C596.956 590.851 591.989 585.283 587.305 579.48L587.874 579.02C586.319 577.093 584.792 575.141 583.3 573.162L582.716 573.602C578.23 567.658 574.032 561.49 570.142 555.116L570.765 554.734C569.476 552.622 568.222 550.486 567.002 548.329L566.364 548.69C562.702 542.219 559.352 535.553 556.335 528.709L557.004 528.415C556.005 526.152 555.044 523.869 554.119 521.568L553.44 521.842C550.674 514.957 548.238 507.905 546.154 500.709L546.856 500.504C546.168 498.129 545.519 495.738 544.907 493.33L544.198 493.51C542.377 486.334 540.903 479.022 539.792 471.594L540.516 471.485C540.151 469.044 539.826 466.591 539.54 464.125L538.814 464.209C537.965 456.875 537.471 449.436 537.348 441.906L538.079 441.894C538.059 440.654 538.049 439.411 538.049 438.165C538.049 436.92 538.059 435.677 538.079 434.435L537.348 434.423C537.471 426.893 537.965 419.454 538.814 412.12L539.54 412.204C539.826 409.739 540.151 407.285 540.516 404.844L539.792 404.736C540.903 397.307 542.377 389.995 544.198 382.819L544.907 382.999C545.519 380.591 546.168 378.2 546.856 375.825L546.154 375.621C548.238 368.424 550.674 361.374 553.44 354.489L554.119 354.761C555.044 352.46 556.005 350.178 557.004 347.916L556.335 347.62C559.352 340.778 562.702 334.111 566.364 327.64L567.002 328C568.222 325.843 569.476 323.707 570.765 321.595L570.142 321.215C574.032 314.841 578.23 308.671 582.716 302.727L583.3 303.167C584.792 301.19 586.319 299.236 587.874 297.309L587.305 296.85C591.989 291.048 596.956 285.478 602.185 280.161L602.707 280.675C604.444 278.908 606.209 277.17 608.004 275.46L607.499 274.931C612.893 269.792 618.54 264.913 624.42 260.313L624.871 260.889C626.822 259.364 628.799 257.869 630.801 256.405L630.369 255.815C636.375 251.423 642.606 247.314 649.042 243.51L649.414 244.14C651.544 242.88 653.699 241.654 655.873 240.462L655.522 239.82C662.037 236.248 668.748 232.982 675.634 230.04L675.922 230.713C678.196 229.74 680.489 228.804 682.8 227.905L682.535 227.223C689.448 224.532 696.525 222.164 703.747 220.138L703.945 220.842C706.326 220.173 708.725 219.543 711.138 218.95L710.962 218.24C718.153 216.473 725.476 215.042 732.918 213.965L733.022 214.688C735.467 214.334 737.924 214.019 740.393 213.742L740.311 213.015C747.65 212.193 755.096 211.714 762.628 211.594L762.64 212.326C763.882 212.306 765.126 212.296 766.371 212.296C767.618 212.296 768.862 212.306 770.105 212.326L770.115 211.594C777.648 211.714 785.093 212.193 792.433 213.015L792.351 213.742C794.82 214.019 797.277 214.334 799.721 214.688L799.826 213.965C807.266 215.042 814.591 216.473 821.781 218.24L821.606 218.95C824.02 219.543 826.417 220.173 828.799 220.842L828.997 220.138C836.219 222.164 843.296 224.532 850.209 227.223L849.943 227.905C852.255 228.804 854.548 229.74 856.822 230.713L857.11 230.04C863.996 232.982 870.705 236.248 877.222 239.82L876.871 240.462C879.045 241.654 881.198 242.88 883.329 244.14L883.702 243.51C890.138 247.314 896.369 251.423 902.375 255.815L901.944 256.405C903.945 257.869 905.921 259.364 907.872 260.889L908.323 260.313C914.204 264.913 919.851 269.792 925.244 274.931L924.739 275.46C926.533 277.17 928.3 278.908 930.037 280.675L930.558 280.161C935.786 285.478 940.753 291.048 945.439 296.85L944.87 297.309C946.425 299.236 947.95 301.19 949.443 303.167L950.027 302.727C954.514 308.671 958.712 314.841 962.602 321.215L961.977 321.595C963.266 323.707 964.522 325.843 965.743 328L966.379 327.64C970.041 334.111 973.39 340.778 976.409 347.62L975.739 347.916C976.737 350.178 977.7 352.46 978.623 354.761L979.303 354.489C982.07 361.374 984.505 368.424 986.59 375.621L985.888 375.825C986.576 378.2 987.225 380.591 987.836 382.999L988.545 382.819C990.366 389.995 991.841 397.307 992.952 404.736L992.227 404.844C992.593 407.285 992.918 409.739 993.204 412.204L993.929 412.12Z" stroke="white" stroke-dasharray="5 15"/>
<path d="M980.946 406.21C982.373 415.777 983.159 425.549 983.261 435.484L982.164 435.494C982.171 436.228 982.175 436.962 982.175 437.698C982.175 438.432 982.171 439.166 982.164 439.901L983.261 439.912C983.159 449.845 982.373 459.617 980.946 469.185L979.86 469.022C979.644 470.472 979.413 471.917 979.167 473.358L980.25 473.542C978.586 483.292 976.256 492.818 973.307 502.072L972.261 501.739C971.816 503.136 971.358 504.525 970.885 505.909L971.923 506.263C968.736 515.587 964.915 524.625 960.513 533.323L959.532 532.828C958.872 534.134 958.199 535.431 957.511 536.721L958.48 537.236C953.863 545.91 948.659 554.231 942.924 562.149L942.034 561.506C941.176 562.691 940.307 563.867 939.426 565.032L940.301 565.693C934.388 573.514 927.947 580.921 921.03 587.863L920.251 587.089C919.219 588.125 918.177 589.15 917.124 590.165L917.885 590.955C910.838 597.745 903.325 604.063 895.398 609.86L894.75 608.975C893.57 609.838 892.38 610.688 891.183 611.527L891.813 612.425C883.814 618.029 875.414 623.107 866.664 627.612L866.16 626.638C864.861 627.306 863.553 627.963 862.238 628.607L862.72 629.593C853.97 633.874 844.887 637.587 835.517 640.685L835.173 639.644C833.782 640.103 832.386 640.548 830.984 640.981L831.308 642.028C822.028 644.888 812.482 647.146 802.713 648.756L802.534 647.674C801.093 647.912 799.645 648.136 798.194 648.345L798.35 649.431C788.775 650.811 778.995 651.573 769.056 651.671L769.044 650.574C768.311 650.582 767.575 650.586 766.84 650.586C766.104 650.586 765.369 650.582 764.635 650.574L764.624 651.671C754.683 651.573 744.903 650.811 735.328 649.431L735.485 648.345C734.033 648.136 732.586 647.912 731.144 647.674L730.966 648.756C721.197 647.146 711.65 644.888 702.371 642.028L702.694 640.981C701.292 640.548 699.896 640.103 698.507 639.644L698.162 640.685C688.792 637.587 679.708 633.874 670.958 629.593L671.441 628.607C670.126 627.963 668.817 627.306 667.518 626.638L667.016 627.612C658.265 623.107 649.865 618.029 641.866 612.425L642.497 611.527C641.298 610.688 640.108 609.838 638.929 608.975L638.28 609.86C630.353 604.063 622.84 597.745 615.794 590.955L616.555 590.165C615.502 589.15 614.459 588.125 613.427 587.089L612.649 587.863C605.731 580.921 599.291 573.514 593.377 565.693L594.254 565.032C593.371 563.867 592.502 562.691 591.644 561.506L590.755 562.149C585.019 554.231 579.816 545.91 575.198 537.236L576.167 536.721C575.479 535.431 574.806 534.134 574.146 532.828L573.166 533.323C568.764 524.625 564.943 515.587 561.756 506.263L562.795 505.909C562.32 504.525 561.862 503.136 561.417 501.739L560.371 502.072C557.422 492.818 555.093 483.292 553.429 473.542L554.512 473.358C554.266 471.918 554.035 470.472 553.818 469.022L552.732 469.185C551.305 459.619 550.519 449.845 550.417 439.912L551.515 439.901C551.507 439.166 551.503 438.432 551.503 437.698C551.503 436.962 551.507 436.228 551.515 435.494L550.417 435.484C550.519 425.549 551.305 415.777 552.732 406.211L553.818 406.372C554.035 404.923 554.266 403.478 554.512 402.037L553.429 401.853C555.093 392.103 557.422 382.576 560.371 373.322L561.417 373.656C561.862 372.26 562.32 370.869 562.795 369.487L561.756 369.132C564.943 359.807 568.764 350.771 573.166 342.071L574.146 342.567C574.806 341.262 575.479 339.963 576.167 338.675L575.198 338.158C579.816 329.485 585.019 321.164 590.755 313.245L591.644 313.889C592.502 312.704 593.371 311.529 594.254 310.364L593.377 309.701C599.291 301.882 605.731 294.473 612.649 287.531L613.427 288.305C614.459 287.27 615.502 286.244 616.555 285.229L615.794 284.439C622.84 277.65 630.353 271.331 638.28 265.535L638.929 266.42C640.108 265.558 641.298 264.707 642.497 263.867L641.866 262.969C649.865 257.366 658.265 252.287 667.016 247.782L667.518 248.758C668.817 248.088 670.126 247.431 671.441 246.788L670.958 245.803C679.708 241.521 688.792 237.807 698.162 234.709L698.507 235.751C699.896 235.291 701.292 234.847 702.694 234.414L702.371 233.366C711.65 230.507 721.197 228.249 730.966 226.638L731.144 227.721C732.586 227.482 734.033 227.258 735.485 227.049L735.328 225.964C744.903 224.583 754.683 223.823 764.624 223.723L764.635 224.82C765.369 224.813 766.104 224.81 766.84 224.81C767.575 224.81 768.311 224.813 769.044 224.82L769.056 223.723C778.995 223.823 788.775 224.583 798.35 225.964L798.194 227.049C799.645 227.258 801.093 227.482 802.534 227.721L802.713 226.638C812.482 228.249 822.028 230.507 831.308 233.366L830.984 234.414C832.386 234.847 833.782 235.291 835.173 235.751L835.517 234.709C844.887 237.807 853.97 241.521 862.72 245.803L862.238 246.788C863.553 247.431 864.861 248.088 866.16 248.758L866.664 247.782C875.414 252.287 883.814 257.366 891.813 262.969L891.183 263.867C892.38 264.707 893.57 265.558 894.75 266.42L895.398 265.535C903.325 271.331 910.838 277.65 917.885 284.439L917.124 285.229C918.177 286.244 919.219 287.27 920.251 288.305L921.03 287.531C927.947 294.473 934.388 301.882 940.301 309.701L939.426 310.364C940.307 311.529 941.176 312.704 942.034 313.889L942.924 313.245C948.659 321.164 953.863 329.485 958.48 338.158L957.511 338.675C958.199 339.963 958.872 341.262 959.532 342.567L960.513 342.071C964.915 350.771 968.736 359.807 971.923 369.132L970.885 369.487C971.358 370.869 971.816 372.26 972.261 373.656L973.307 373.322C976.256 382.576 978.586 392.103 980.25 401.853L979.167 402.037C979.413 403.478 979.644 404.923 979.86 406.372L980.946 406.21Z" stroke="white" stroke-width="1.5" stroke-dasharray="3 20"/>
<path d="M933.397 438.165C933.397 529.05 858.849 602.767 766.84 602.767C674.829 602.767 600.281 529.05 600.281 438.165C600.281 347.281 674.829 273.563 766.84 273.563C858.849 273.563 933.397 347.281 933.397 438.165Z" stroke="white" stroke-width="3"/>
<path d="M560.689 438.164L573.486 430.78V445.548L560.689 438.164Z" fill="white"/>
<path d="M972.989 438.164L960.193 430.78V445.548L972.989 438.164Z" fill="white"/>
<path d="M567.714 491.493L578.161 481.05L581.985 495.315L567.714 491.493Z" fill="white"/>
<path d="M965.964 384.836L951.692 381.014L955.516 395.278L965.964 384.836Z" fill="white"/>
<path d="M588.309 541.185L595.696 528.397L603.083 541.185H588.309Z" fill="white"/>
<path d="M945.37 335.144H930.596L937.983 347.932L945.37 335.144Z" fill="white"/>
<path d="M621.07 583.858L624.894 569.594L635.342 580.036L621.07 583.858Z" fill="white"/>
<path d="M912.609 292.471L898.338 296.293L908.785 306.735L912.609 292.471Z" fill="white"/>
<path d="M663.766 616.603V601.836L676.562 609.219L663.766 616.603Z" fill="white"/>
<path d="M869.914 259.726L857.119 267.11L869.914 274.493V259.726Z" fill="white"/>
<path d="M713.483 637.187L709.659 622.923L723.93 626.745L713.483 637.187Z" fill="white"/>
<path d="M820.194 239.142L809.747 249.584L824.018 253.406L820.194 239.142Z" fill="white"/>
<path d="M766.838 644.207L759.45 631.418H774.226L766.838 644.207Z" fill="white"/>
<path d="M766.838 232.122L759.45 244.911H774.226L766.838 232.122Z" fill="white"/>
<path d="M820.194 637.187L809.747 626.745L824.018 622.923L820.194 637.187Z" fill="white"/>
<path d="M713.483 239.142L709.659 253.406L723.93 249.584L713.483 239.142Z" fill="white"/>
<path d="M869.913 616.603L857.117 609.219L869.913 601.834V616.603Z" fill="white"/>
<path d="M663.766 259.726V274.493L676.56 267.11L663.766 259.726Z" fill="white"/>
<path d="M912.609 583.858L898.336 580.036L908.785 569.594L912.609 583.858Z" fill="white"/>
<path d="M621.068 292.471L624.892 306.735L635.34 296.293L621.068 292.471Z" fill="white"/>
<path d="M945.37 541.185H930.596L937.983 528.397L945.37 541.185Z" fill="white"/>
<path d="M588.309 335.142L595.696 347.932L603.083 335.142H588.309Z" fill="white"/>
<path d="M965.964 491.491L951.692 495.313L955.516 481.05L965.964 491.491Z" fill="white"/>
<path d="M567.714 384.836L578.161 395.278L581.985 381.014L567.714 384.836Z" fill="white"/>
<path d="M748.509 621.451C748.185 621.211 747.726 621.279 747.486 621.603L746.53 622.889L745.894 621.419C745.733 621.049 745.302 620.879 744.932 621.039L743.232 617.117C743.602 616.958 743.773 616.527 743.612 616.156L742.976 614.687L744.566 614.869C744.969 614.916 745.332 614.628 745.377 614.227L749.625 614.717C749.58 615.118 749.867 615.481 750.269 615.528L751.86 615.71L750.906 616.996C750.664 617.321 750.733 617.779 751.057 618.02L748.509 621.451Z" stroke="white" stroke-linecap="round" stroke-dasharray="10 10"/>
<path d="M787.042 255.919C787.366 256.16 787.825 256.092 788.065 255.767L789.02 254.481L789.657 255.951C789.818 256.321 790.248 256.492 790.62 256.332L792.319 260.253C791.948 260.414 791.777 260.844 791.938 261.215L792.575 262.684L790.984 262.501C790.582 262.454 790.219 262.742 790.173 263.143L785.925 262.655C785.972 262.252 785.684 261.89 785.283 261.844L783.69 261.66L784.645 260.374C784.886 260.05 784.817 259.592 784.494 259.352L787.042 255.919Z" stroke="white" stroke-linecap="round" stroke-dasharray="10 10"/>
<path d="M796.332 620.626C795.956 620.477 795.531 620.662 795.382 621.037L794.794 622.526L793.797 621.271C793.547 620.956 793.086 620.903 792.77 621.153L790.112 617.805C790.429 617.555 790.481 617.094 790.231 616.778L789.234 615.523L790.819 615.288C791.22 615.229 791.495 614.858 791.437 614.458L795.666 613.832C795.726 614.232 796.098 614.507 796.497 614.448L798.082 614.213L797.494 615.703C797.345 616.078 797.529 616.503 797.905 616.651L796.332 620.626Z" stroke="white" stroke-linecap="round" stroke-dasharray="10 10"/>
<path d="M738.894 257.581C739.27 257.73 739.694 257.546 739.844 257.17L740.432 255.681L741.428 256.936C741.679 257.252 742.14 257.304 742.456 257.054L745.113 260.402C744.797 260.652 744.745 261.113 744.995 261.429L745.991 262.684L744.406 262.918C744.006 262.978 743.73 263.349 743.789 263.749L739.56 264.375C739.5 263.975 739.128 263.699 738.728 263.759L737.144 263.993L737.732 262.504C737.881 262.128 737.697 261.704 737.321 261.555L738.894 257.581Z" stroke="white" stroke-linecap="round" stroke-dasharray="10 10"/>
<path d="M842.342 606.611C841.939 606.564 841.576 606.853 841.531 607.253L841.346 608.845L840.06 607.891C839.735 607.65 839.277 607.717 839.037 608.042L835.603 605.495C835.844 605.171 835.775 604.713 835.45 604.473L834.164 603.518L835.635 602.881C836.005 602.721 836.176 602.291 836.015 601.919L839.939 600.221C840.1 600.591 840.53 600.761 840.9 600.601L842.371 599.963L842.188 601.555C842.141 601.956 842.429 602.318 842.83 602.365L842.342 606.611Z" stroke="white" stroke-linecap="round" stroke-dasharray="10 10"/>
<path d="M692.85 270.794C693.251 270.84 693.614 270.553 693.66 270.151L693.843 268.561L695.131 269.514C695.454 269.756 695.914 269.687 696.154 269.364L699.589 271.91C699.347 272.234 699.414 272.693 699.739 272.933L701.026 273.888L699.556 274.524C699.185 274.685 699.015 275.115 699.176 275.485L695.253 277.185C695.092 276.815 694.66 276.643 694.29 276.804L692.819 277.441L693.003 275.851C693.049 275.448 692.762 275.086 692.359 275.04L692.85 270.794Z" stroke="white" stroke-linecap="round" stroke-dasharray="10 10"/>
<path d="M883.061 581.686C882.662 581.745 882.385 582.116 882.444 582.515L882.679 584.101L881.19 583.511C880.814 583.362 880.388 583.547 880.24 583.922L876.264 582.352C876.412 581.976 876.227 581.55 875.851 581.402L874.361 580.813L875.617 579.818C875.933 579.567 875.987 579.107 875.736 578.79L879.085 576.134C879.337 576.451 879.796 576.504 880.114 576.252L881.368 575.258L881.604 576.842C881.662 577.241 882.034 577.517 882.435 577.458L883.061 581.686Z" stroke="white" stroke-linecap="round" stroke-dasharray="10 10"/>
<path d="M651.701 295.983C652.102 295.924 652.377 295.553 652.319 295.152L652.083 293.568L653.574 294.157C653.949 294.307 654.375 294.122 654.523 293.746L658.5 295.317C658.351 295.693 658.535 296.119 658.911 296.266L660.401 296.856L659.146 297.851C658.829 298.102 658.775 298.561 659.027 298.879L655.677 301.535C655.426 301.218 654.966 301.165 654.65 301.416L653.394 302.411L653.159 300.827C653.1 300.428 652.728 300.151 652.328 300.211L651.701 295.983Z" stroke="white" stroke-linecap="round" stroke-dasharray="10 10"/>
<path d="M916.052 546.871C915.682 547.031 915.511 547.463 915.672 547.833L916.308 549.303L914.717 549.119C914.315 549.073 913.952 549.36 913.907 549.762L909.658 549.272C909.705 548.871 909.417 548.509 909.016 548.462L907.424 548.279L908.378 546.992C908.619 546.669 908.552 546.211 908.227 545.97L910.775 542.537C911.1 542.778 911.558 542.711 911.798 542.386L912.754 541.1L913.39 542.569C913.551 542.94 913.981 543.11 914.353 542.949L916.052 546.871Z" stroke="white" stroke-linecap="round" stroke-dasharray="10 10"/>
<path d="M618.594 330.753C618.964 330.592 619.135 330.161 618.974 329.791L618.338 328.321L619.929 328.505C620.331 328.55 620.694 328.264 620.739 327.861L624.988 328.351C624.941 328.752 625.229 329.115 625.63 329.162L627.222 329.344L626.268 330.632C626.027 330.955 626.094 331.413 626.419 331.654L623.871 335.087C623.546 334.846 623.088 334.913 622.848 335.237L621.893 336.523L621.256 335.055C621.095 334.683 620.665 334.513 620.293 334.674L618.594 330.753Z" stroke="white" stroke-linecap="round" stroke-dasharray="10 10"/>
<path d="M938.935 505.347C938.618 505.599 938.566 506.058 938.816 506.374L939.813 507.629L938.228 507.864C937.827 507.923 937.552 508.294 937.61 508.695L933.381 509.321C933.321 508.92 932.949 508.645 932.55 508.704L930.965 508.939L931.553 507.449C931.702 507.075 931.518 506.649 931.142 506.501L932.715 502.526C933.091 502.675 933.516 502.491 933.665 502.115L934.253 500.626L935.25 501.881C935.5 502.197 935.961 502.251 936.277 501.999L938.935 505.347Z" stroke="white" stroke-linecap="round" stroke-dasharray="10 10"/>
<path d="M595.646 373.541C595.964 373.29 596.016 372.831 595.765 372.513L594.77 371.258L596.354 371.024C596.754 370.966 597.031 370.593 596.971 370.193L601.201 369.567C601.26 369.967 601.631 370.243 602.032 370.183L603.617 369.949L603.028 371.438C602.88 371.814 603.063 372.238 603.439 372.387L601.867 376.361C601.491 376.214 601.065 376.398 600.917 376.772L600.328 378.263L599.332 377.008C599.081 376.691 598.621 376.638 598.304 376.889L595.646 373.541Z" stroke="white" stroke-linecap="round" stroke-dasharray="10 10"/>
<path d="M950.221 457.417C949.98 457.742 950.049 458.2 950.372 458.44L951.66 459.395L950.189 460.031C949.819 460.192 949.648 460.622 949.809 460.994L945.885 462.692C945.724 462.322 945.294 462.152 944.922 462.311L943.453 462.949L943.636 461.358C943.683 460.957 943.395 460.594 942.992 460.548L943.482 456.301C943.883 456.348 944.246 456.06 944.293 455.659L944.476 454.068L945.764 455.022C946.087 455.263 946.547 455.196 946.787 454.871L950.221 457.417Z" stroke="white" stroke-linecap="round" stroke-dasharray="10 10"/>
<path d="M584.498 418.906C584.74 418.581 584.671 418.123 584.347 417.882L583.06 416.928L584.53 416.292C584.901 416.131 585.072 415.701 584.911 415.33L588.834 413.631C588.995 414.001 589.425 414.171 589.797 414.012L591.266 413.374L591.083 414.965C591.037 415.366 591.325 415.729 591.726 415.776L591.237 420.022C590.835 419.975 590.472 420.263 590.426 420.664L590.242 422.255L588.956 421.3C588.631 421.06 588.173 421.127 587.933 421.452L584.498 418.906Z" stroke="white" stroke-linecap="round" stroke-dasharray="10 10"/>
<path d="M949.286 410.561C949.137 410.937 949.321 411.363 949.697 411.51L951.187 412.1L949.931 413.095C949.615 413.346 949.562 413.807 949.813 414.123L946.463 416.779C946.213 416.462 945.752 416.409 945.436 416.66L944.18 417.655L943.946 416.071C943.886 415.672 943.514 415.395 943.115 415.455L942.488 411.227C942.888 411.168 943.163 410.797 943.104 410.397L942.87 408.812L944.36 409.401C944.736 409.551 945.16 409.366 945.31 408.99L949.286 410.561Z" stroke="white" stroke-linecap="round" stroke-dasharray="10 10"/>
<path d="M586.052 467.969C586.2 467.593 586.017 467.169 585.641 467.02L584.151 466.432L585.406 465.436C585.723 465.186 585.776 464.725 585.524 464.409L588.874 461.753C589.126 462.069 589.586 462.121 589.903 461.871L591.158 460.875L591.392 462.459C591.452 462.86 591.824 463.135 592.224 463.076L592.85 467.303C592.45 467.363 592.174 467.735 592.234 468.134L592.468 469.718L590.978 469.129C590.602 468.981 590.178 469.165 590.028 469.541L586.052 467.969Z" stroke="white" stroke-linecap="round" stroke-dasharray="10 10"/>
<path d="M935.263 364.575C935.217 364.976 935.505 365.339 935.906 365.386L937.498 365.568L936.544 366.856C936.303 367.18 936.37 367.638 936.695 367.878L934.147 371.311C933.822 371.07 933.364 371.138 933.124 371.462L932.168 372.749L931.532 371.279C931.371 370.909 930.941 370.737 930.569 370.898L928.87 366.977C929.24 366.816 929.411 366.386 929.25 366.015L928.612 364.546L930.204 364.729C930.607 364.776 930.97 364.488 931.015 364.087L935.263 364.575Z" stroke="white" stroke-linecap="round" stroke-dasharray="10 10"/>
<path d="M599.273 513.99C599.32 513.588 599.031 513.225 598.63 513.18L597.038 512.995L597.994 511.71C598.234 511.385 598.166 510.927 597.841 510.687L600.389 507.255C600.714 507.496 601.172 507.427 601.414 507.102L602.368 505.817L603.004 507.287C603.165 507.657 603.597 507.828 603.967 507.667L605.668 511.588C605.296 511.749 605.126 512.179 605.287 512.551L605.924 514.019L604.332 513.836C603.931 513.79 603.568 514.078 603.521 514.479L599.273 513.99Z" stroke="white" stroke-linecap="round" stroke-dasharray="10 10"/>
<path d="M910.434 322.937C910.494 323.336 910.865 323.612 911.265 323.552L912.85 323.318L912.261 324.807C912.112 325.183 912.297 325.609 912.673 325.757L911.1 329.731C910.723 329.583 910.299 329.767 910.15 330.142L909.561 331.632L908.565 330.377C908.315 330.06 907.854 330.007 907.538 330.259L904.88 326.911C905.196 326.659 905.249 326.2 904.999 325.882L904.002 324.627L905.587 324.393C905.988 324.335 906.263 323.962 906.204 323.563L910.434 322.937Z" stroke="white" stroke-linecap="round" stroke-dasharray="10 10"/>
<path d="M624.582 554.175C624.524 553.776 624.152 553.501 623.751 553.559L622.166 553.793L622.756 552.304C622.904 551.928 622.721 551.504 622.345 551.355L623.916 547.381C624.292 547.53 624.718 547.346 624.866 546.97L625.456 545.481L626.451 546.736C626.703 547.052 627.162 547.104 627.48 546.854L630.137 550.202C629.82 550.453 629.767 550.913 630.019 551.229L631.014 552.484L629.429 552.718C629.029 552.778 628.753 553.15 628.813 553.549L624.582 554.175Z" stroke="white" stroke-linecap="round" stroke-dasharray="10 10"/>
<path d="M875.602 289.962C875.763 290.332 876.195 290.504 876.565 290.343L878.036 289.706L877.852 291.296C877.806 291.699 878.093 292.061 878.495 292.107L878.005 296.353C877.604 296.307 877.241 296.594 877.194 296.996L877.012 298.586L875.725 297.633C875.4 297.391 874.942 297.46 874.701 297.783L871.268 295.237C871.508 294.913 871.44 294.454 871.115 294.214L869.829 293.259L871.298 292.623C871.67 292.462 871.84 292.032 871.679 291.662L875.602 289.962Z" stroke="white" stroke-linecap="round" stroke-dasharray="10 10"/>
<path d="M659.373 587.266C659.212 586.896 658.78 586.726 658.41 586.886L656.939 587.524L657.123 585.932C657.169 585.531 656.882 585.169 656.479 585.122L656.97 580.876C657.371 580.923 657.734 580.634 657.78 580.234L657.963 578.642L659.251 579.597C659.575 579.837 660.033 579.77 660.274 579.445L663.709 581.992C663.467 582.317 663.535 582.774 663.859 583.016L665.146 583.969L663.677 584.606C663.305 584.766 663.135 585.197 663.296 585.568L659.373 587.266Z" stroke="white" stroke-linecap="round" stroke-dasharray="10 10"/>
<path d="M834.056 267.092C834.308 267.408 834.767 267.461 835.085 267.211L836.339 266.215L836.574 267.799C836.633 268.2 837.006 268.475 837.406 268.416L838.032 272.643C837.633 272.703 837.356 273.075 837.414 273.474L837.65 275.058L836.16 274.468C835.784 274.321 835.358 274.505 835.211 274.881L831.234 273.309C831.382 272.933 831.198 272.509 830.823 272.359L829.332 271.771L830.588 270.775C830.904 270.524 830.958 270.064 830.706 269.748L834.056 267.092Z" stroke="white" stroke-linecap="round" stroke-dasharray="10 10"/>
<path d="M702.181 610.202C701.929 609.886 701.47 609.832 701.152 610.084L699.897 611.078L699.663 609.494C699.604 609.095 699.231 608.82 698.831 608.878L698.205 604.651C698.605 604.591 698.881 604.22 698.821 603.821L698.587 602.236L700.077 602.824C700.453 602.974 700.879 602.789 701.027 602.413L705.003 603.986C704.855 604.36 705.039 604.786 705.414 604.934L706.905 605.523L705.649 606.519C705.332 606.769 705.279 607.23 705.531 607.546L702.181 610.202Z" stroke="white" stroke-linecap="round" stroke-dasharray="10 10"/>
<path d="M894.754 439.336C891.155 439.947 886.991 439.476 882.302 438.227C888.395 442.599 894.757 442.71 901.467 439.63C909.649 435.273 915.631 436.667 920.633 438.227C917.052 436.15 913.168 434.777 908.721 434.901C903.804 435.04 899.604 438.514 894.754 439.336Z" fill="white"/>
<path d="M638.924 439.336C642.522 439.947 646.687 439.476 651.376 438.227C645.282 442.599 638.921 442.71 632.21 439.63C624.029 435.273 618.047 436.667 613.045 438.227C616.626 436.15 620.51 434.777 624.957 434.901C629.873 435.04 634.074 438.514 638.924 439.336Z" fill="white"/>
<path d="M892.987 417.117C889.549 418.343 885.365 418.601 880.53 418.186C887.291 421.433 893.575 420.439 899.648 416.239C906.948 410.529 913.082 410.864 918.281 411.532C914.392 410.109 910.328 409.431 905.97 410.326C901.153 411.315 897.619 415.466 892.987 417.117Z" fill="white"/>
<path d="M641.043 461.519C644.694 461.495 648.715 460.308 653.115 458.264C647.873 463.628 641.627 464.84 634.484 462.971C625.67 460.101 620.021 462.512 615.366 464.918C618.532 462.25 622.118 460.223 626.519 459.575C631.385 458.857 636.126 461.549 641.043 461.519Z" fill="white"/>
<path d="M887.385 395.549C884.212 397.352 880.138 398.334 875.305 398.764C882.527 400.788 888.543 398.718 893.793 393.529C899.991 386.638 906.089 385.904 911.325 385.66C907.248 384.933 903.129 384.969 898.992 386.607C894.42 388.418 891.661 393.119 887.385 395.549Z" fill="white"/>
<path d="M646.985 483.002C650.576 482.345 654.328 480.479 658.307 477.704C654.078 483.894 648.136 486.173 640.777 485.572C631.598 484.275 626.454 487.63 622.288 490.807C624.943 487.632 628.121 485.012 632.343 483.609C637.01 482.059 642.148 483.887 646.985 483.002Z" fill="white"/>
<path d="M878.123 375.276C875.312 377.603 871.469 379.277 866.783 380.539C874.248 381.28 879.813 378.197 884.084 372.175C888.989 364.314 894.866 362.532 899.979 361.384C895.839 361.375 891.789 362.125 888 364.457C883.811 367.033 881.911 372.142 878.123 375.276Z" fill="white"/>
<path d="M656.568 503.125C659.99 501.856 663.362 499.366 666.798 495.942C663.707 502.773 658.254 506.048 650.901 506.734C641.637 507.048 637.153 511.246 633.602 515.097C635.665 511.509 638.34 508.378 642.255 506.264C646.581 503.927 651.957 504.837 656.568 503.125Z" fill="white"/>
<path d="M865.479 356.92C863.114 359.699 859.621 362.014 855.227 364.071C862.706 363.505 867.651 359.501 870.81 352.83C874.276 344.237 879.755 341.462 884.59 339.444C880.511 340.153 876.652 341.596 873.326 344.549C869.648 347.813 868.665 353.174 865.479 356.92Z" fill="white"/>
<path d="M669.502 521.278C672.652 519.434 675.539 516.398 678.328 512.428C676.473 519.691 671.67 523.864 664.549 525.816C655.48 527.733 651.794 532.645 648.965 537.055C650.373 533.163 652.464 529.616 655.951 526.854C659.806 523.802 665.26 523.763 669.502 521.278Z" fill="white"/>
<path d="M849.839 341.037C847.992 344.185 844.954 347.07 840.983 349.858C848.251 348.002 852.426 343.203 854.377 336.084C856.297 327.02 861.211 323.336 865.623 320.51C861.729 321.917 858.179 324.007 855.416 327.493C852.361 331.345 852.325 336.795 849.839 341.037Z" fill="white"/>
<path d="M685.393 536.913C688.174 534.549 690.49 531.058 692.548 526.665C691.981 534.141 687.977 539.083 681.303 542.24C672.704 545.703 669.928 551.179 667.908 556.014C668.618 551.936 670.062 548.08 673.017 544.756C676.282 541.08 681.647 540.097 685.393 536.913Z" fill="white"/>
<path d="M831.673 328.11C830.403 331.531 827.912 334.9 824.486 338.334C831.32 335.246 834.599 329.795 835.283 322.447C835.6 313.186 839.798 308.705 843.653 305.155C840.061 307.217 836.93 309.893 834.814 313.804C832.475 318.129 833.385 323.503 831.673 328.11Z" fill="white"/>
<path d="M703.759 549.55C706.088 546.74 707.762 542.899 709.025 538.217C709.765 545.677 706.682 551.239 700.657 555.507C692.791 560.41 691.007 566.286 689.858 571.396C689.85 567.257 690.602 563.208 692.933 559.422C695.512 555.235 700.622 553.337 703.759 549.55Z" fill="white"/>
<path d="M811.536 318.532C810.879 322.12 809.012 325.872 806.234 329.849C812.429 325.62 814.709 319.684 814.108 312.328C812.81 303.154 816.167 298.011 819.345 293.847C816.167 296.5 813.547 299.679 812.144 303.899C810.592 308.563 812.422 313.697 811.536 318.532Z" fill="white"/>
<path d="M724.038 558.809C725.842 555.638 726.824 551.564 727.253 546.734C729.28 553.953 727.207 559.966 722.017 565.214C715.123 571.408 714.387 577.503 714.144 582.735C713.416 578.661 713.451 574.544 715.09 570.409C716.902 565.84 721.606 563.083 724.038 558.809Z" fill="white"/>
<path d="M790.051 312.593C790.028 316.242 788.839 320.26 786.795 324.658C792.161 319.419 793.374 313.176 791.504 306.037C788.633 297.227 791.045 291.582 793.452 286.927C790.783 290.093 788.754 293.678 788.106 298.076C787.388 302.939 790.082 307.678 790.051 312.593Z" fill="white"/>
<path d="M745.624 564.405C746.85 560.969 747.109 556.787 746.694 551.956C749.943 558.712 748.947 564.994 744.746 571.064C739.033 578.36 739.368 584.49 740.038 589.685C738.613 585.799 737.934 581.737 738.829 577.382C739.819 572.566 743.972 569.036 745.624 564.405Z" fill="white"/>
<path d="M767.853 310.475C768.463 314.071 767.992 318.234 766.744 322.92C771.117 316.83 771.228 310.472 768.146 303.766C763.786 295.588 765.181 289.608 766.744 284.609C764.666 288.188 763.29 292.07 763.416 296.515C763.554 301.43 767.031 305.627 767.853 310.475Z" fill="white"/>
<path d="M767.853 566.172C768.463 562.575 767.992 558.412 766.744 553.726C771.117 559.816 771.228 566.175 768.146 572.881C763.786 581.059 765.181 587.038 766.744 592.037C764.666 588.457 763.29 584.575 763.416 580.131C763.554 575.217 767.031 571.017 767.853 566.172Z" fill="white"/>
<path d="M745.626 312.242C746.852 315.677 747.111 319.859 746.696 324.69C749.945 317.934 748.949 311.652 744.748 305.582C739.035 298.286 739.37 292.156 740.04 286.961C738.615 290.847 737.936 294.909 738.831 299.265C739.821 304.08 743.974 307.611 745.626 312.242Z" fill="white"/>
<path d="M790.051 564.054C790.028 560.406 788.839 556.388 786.795 551.99C792.161 557.228 793.374 563.47 791.504 570.611C788.633 579.419 791.045 585.066 793.452 589.719C790.783 586.554 788.754 582.97 788.106 578.571C787.388 573.707 790.082 568.97 790.051 564.054Z" fill="white"/>
<path d="M724.042 317.838C725.847 321.01 726.828 325.082 727.259 329.913C729.284 322.695 727.213 316.682 722.021 311.433C715.127 305.24 714.392 299.144 714.148 293.912C713.421 297.987 713.457 302.104 715.096 306.237C716.907 310.808 721.61 313.565 724.042 317.838Z" fill="white"/>
<path d="M811.541 558.115C810.884 554.526 809.017 550.776 806.239 546.799C812.434 551.026 814.714 556.963 814.112 564.32C812.814 573.494 816.171 578.635 819.35 582.799C816.171 580.146 813.552 576.969 812.149 572.749C810.597 568.085 812.427 562.949 811.541 558.115Z" fill="white"/>
<path d="M703.759 327.096C706.087 329.906 707.763 333.747 709.024 338.429C709.766 330.969 706.681 325.407 700.657 321.139C692.791 316.236 691.008 310.361 689.859 305.25C689.851 309.389 690.601 313.438 692.934 317.225C695.511 321.411 700.623 323.311 703.759 327.096Z" fill="white"/>
<path d="M831.675 548.536C830.403 545.117 827.912 541.747 824.486 538.312C831.322 541.4 834.599 546.851 835.285 554.201C835.599 563.46 839.8 567.942 843.653 571.491C840.063 569.429 836.93 566.755 834.815 562.843C832.477 558.519 833.385 553.145 831.675 548.536Z" fill="white"/>
<path d="M685.395 339.734C688.176 342.097 690.492 345.589 692.55 349.981C691.983 342.505 687.979 337.563 681.305 334.405C672.706 330.943 669.93 325.465 667.91 320.633C668.62 324.709 670.064 328.566 673.019 331.891C676.284 335.567 681.647 336.549 685.395 339.734Z" fill="white"/>
<path d="M849.839 535.61C847.993 532.462 844.955 529.576 840.983 526.788C848.252 528.643 852.426 533.443 854.378 540.561C856.298 549.626 861.211 553.309 865.623 556.136C861.729 554.729 858.18 552.639 855.417 549.154C852.363 545.301 852.325 539.851 849.839 535.61Z" fill="white"/>
<path d="M669.503 355.366C672.653 357.212 675.54 360.249 678.329 364.217C676.472 356.953 671.671 352.781 664.548 350.829C655.479 348.912 651.793 344 648.966 339.59C650.374 343.482 652.465 347.031 655.952 349.792C659.807 352.845 665.259 352.881 669.503 355.366Z" fill="white"/>
<path d="M865.479 519.727C863.114 516.946 859.621 514.632 855.227 512.576C862.706 513.142 867.651 517.144 870.81 523.815C874.276 532.408 879.755 535.184 884.59 537.202C880.511 536.492 876.652 535.049 873.326 532.096C869.648 528.832 868.665 523.471 865.479 519.727Z" fill="white"/>
<path d="M656.568 373.521C659.99 374.79 663.362 377.28 666.798 380.704C663.707 373.873 658.254 370.597 650.901 369.913C641.637 369.597 637.153 365.4 633.602 361.549C635.665 365.137 638.34 368.269 642.255 370.382C646.581 372.719 651.957 371.81 656.568 373.521Z" fill="white"/>
<path d="M878.123 501.37C875.312 499.043 871.469 497.37 866.783 496.108C874.248 495.366 879.813 498.449 884.084 504.471C888.989 512.333 894.866 514.114 899.979 515.263C895.839 515.271 891.789 514.521 888 512.189C883.811 509.614 881.911 504.505 878.123 501.37Z" fill="white"/>
<path d="M646.982 393.646C650.573 394.301 654.325 396.169 658.304 398.943C654.075 392.753 648.135 390.473 640.774 391.076C631.595 392.373 626.451 389.018 622.285 385.841C624.94 389.016 628.118 391.636 632.34 393.039C637.007 394.589 642.145 392.761 646.982 393.646Z" fill="white"/>
<path d="M887.382 481.098C884.21 479.294 880.135 478.313 875.302 477.883C882.524 475.859 888.54 477.93 893.792 483.118C899.988 490.008 906.086 490.744 911.322 490.987C907.245 491.714 903.126 491.677 898.989 490.04C894.417 488.23 891.658 483.529 887.382 481.098Z" fill="white"/>
<path d="M641.043 415.123C644.693 415.148 648.713 416.334 653.113 418.378C647.873 413.014 641.627 411.802 634.482 413.671C625.668 416.541 620.019 414.13 615.364 411.724C618.531 414.392 622.116 416.419 626.518 417.067C631.383 417.785 636.124 415.093 641.043 415.123Z" fill="white"/>
<path d="M892.985 459.525C889.548 458.299 885.364 458.041 880.53 458.456C887.29 455.209 893.575 456.203 899.648 460.403C906.948 466.113 913.081 465.778 918.279 465.11C914.391 466.533 910.327 467.211 905.97 466.316C901.153 465.327 897.619 461.176 892.985 459.525Z" fill="white"/>
<path d="M855.261 450.082C783.637 426.356 743.492 425.744 671.868 450.082C649.308 498.543 642.211 545.009 651.798 573.555C697.927 627.036 866.318 606.649 892.778 566.36C906.511 545.45 877.461 481.316 855.261 450.082Z" fill="white"/>
<path d="M875.334 488.123C789.899 498.417 741.998 499.115 656.562 488.123L666.484 532.041C712.124 499.219 792.489 495.486 855.986 532.041L875.334 488.123Z" fill="#E8E8E8" fill-opacity="0.5"/>
<path d="M875.839 480.647C804.373 593.79 730.266 599.21 658.546 483.502C636.065 530.209 641.869 546.922 651.4 574.367L651.491 574.627C697.604 626.334 865.938 606.624 892.388 567.671C906.116 547.454 898.032 510.845 875.839 480.647Z" fill="#D0D0D0" fill-opacity="0.5"/>
<path d="M818.746 361.802C772.086 346.962 748.598 347.202 707.958 361.802C666.823 427.212 653.449 467.245 661.68 476.27C698.627 508.449 816.157 514.812 866.895 476.27C880.148 458.884 866.895 423.474 818.746 361.802Z" fill="#0F0F0F"/>
<path d="M756.317 446.547C758.34 446.826 759.138 448.252 761.016 447.893L760.986 447.855C759.536 445.96 758.583 444.714 760.218 440.478C757.557 441.097 756.273 443.976 756.317 446.547Z" fill="#646464"/>
<path d="M678.681 374.846C690.576 355.884 714.576 361.69 708.131 390.264C707.073 391.052 698.266 398.98 699.718 404.749C701.533 411.965 702.608 421.253 701.934 430.72C701.522 436.509 707.244 445.225 712.541 447.604C725.269 453.322 742.431 463.849 744.013 466.631C744.778 463.602 746.072 460.191 751.024 448.877C758.503 438.131 752.894 445.14 756.633 446.073C757.975 445.794 758.618 445.266 760.486 446.797C760.486 446.797 763.274 452.539 763.568 455.371C764.549 464.798 765.302 485.791 764.233 491.715C764.035 492.815 763.36 493.779 762.607 494.602C756.572 501.205 741.714 501.205 737.468 501.205C705.131 499.358 678.84 521.033 645.743 480.96C644.972 480.029 644.432 478.896 644.277 477.699C640.558 449.064 667.039 393.41 678.681 374.846Z" fill="#1E1E1E"/>
<path d="M665.233 427.304C654.713 419.337 638.179 469.489 644.693 480.269C671.309 509.195 688.633 509.302 726.628 501.445C734.248 496.491 734.35 493.488 730.361 490.58C690.783 482.613 690.783 469.489 669.242 471.364C670.243 457.302 669.242 435.273 665.233 427.304Z" fill="#141414"/>
<path d="M707.209 445.497C719.39 450.929 728.523 455.975 743.253 467.565C726.606 457.543 715.742 453.258 700.253 446.851C699.126 446.385 698.403 445.264 698.455 444.046C698.968 431.741 700.12 421.063 699.779 404.025C701.041 410.538 701.269 419.008 701.92 437.714C702.039 441.103 704.111 444.115 707.209 445.497Z" fill="#434343"/>
<path d="M674.716 384.444C656.09 421.519 646.894 441.745 643.235 472.095C643.235 478.311 646.594 474.106 646.828 471.449C649.044 446.335 657.205 425.185 674.716 384.444Z" fill="#434343"/>
<path d="M656.305 491.861C665.587 500.223 681.832 510.346 721.749 501.544C690.382 505.748 675.509 503.779 660.019 493.621L656.305 491.861Z" fill="#434343"/>
<path d="M750.378 482.66C753.922 476.333 758.201 469.256 759.293 446.073C765.983 447.689 763.592 469.234 763.939 491.544C763.332 492.256 762.727 492.906 762.126 493.497C755.39 500.131 745.758 490.908 750.378 482.66Z" fill="#141414"/>
<path d="M764.081 492.796C762.211 495.599 758.004 497.935 758.004 497.935C761.083 495.166 762.031 493.94 762.521 492.809C763.045 491.601 763.177 490.267 763.239 488.951L763.241 488.907C763.808 477.023 765.154 448.741 759.874 446.541C765.952 447.942 763.732 470.1 764.081 492.796Z" fill="#272727"/>
<path d="M678.681 374.846C690.576 355.884 714.576 361.69 708.131 390.264C707.073 391.052 698.266 398.98 699.718 404.749C701.533 411.965 702.608 421.253 701.934 430.72C701.522 436.509 707.244 445.225 712.541 447.604C725.269 453.322 742.431 463.849 744.013 466.631C744.778 463.602 746.072 460.191 751.024 448.877C758.503 438.131 752.894 445.14 756.633 446.073C757.975 445.794 758.618 445.266 760.486 446.797C760.486 446.797 763.274 452.539 763.568 455.371C764.549 464.798 765.302 485.791 764.233 491.715C764.035 492.815 763.36 493.779 762.607 494.602C756.572 501.205 741.714 501.205 737.468 501.205C705.131 499.358 678.84 521.033 645.743 480.96C644.972 480.029 644.432 478.896 644.277 477.699C640.558 449.064 667.039 393.41 678.681 374.846Z" stroke="#161616" stroke-width="0.3"/>
<path d="M763.662 453.875C763.577 451.665 763.046 451.115 762.21 450.746C760.342 459.623 763.146 451.681 761.138 457.287C761.322 457.439 761.492 457.54 761.651 457.594C763.172 458.119 763.724 455.481 763.662 453.875Z" fill="#CE8974"/>
<path d="M763.776 460.177C763.683 459.998 763.567 459.85 763.431 459.727C762.846 459.196 761.981 459.78 761.81 460.552C761.131 463.628 762.787 458.294 761.275 463.518C762.985 464.273 764.644 461.832 763.776 460.177Z" fill="#9A6454"/>
<path d="M759.886 477.485C757.006 481.531 756.701 485.83 759.378 486.722C763.773 485.843 764.449 477.949 761.023 477.002C760.587 476.882 760.148 477.116 759.886 477.485Z" fill="#9A6454"/>
<path d="M771.584 446.547C769.56 446.826 768.762 448.252 766.885 447.893L766.915 447.855C768.364 445.96 769.317 444.714 767.682 440.478C770.343 441.097 771.628 443.976 771.584 446.547Z" fill="#646464"/>
<path d="M849.216 374.846C837.323 355.884 813.323 361.69 819.767 390.264C820.825 391.052 829.632 398.98 828.181 404.749C826.365 411.965 825.29 421.253 825.964 430.72C826.375 436.509 820.653 445.225 815.357 447.604C802.629 453.322 785.469 463.849 783.885 466.631C783.12 463.602 781.826 460.191 776.874 448.877C769.394 438.131 775.004 445.14 771.265 446.073C769.924 445.794 769.28 445.266 767.412 446.797C767.412 446.797 764.624 452.539 764.33 455.371C763.349 464.798 762.595 485.791 763.665 491.715C763.864 492.815 764.537 493.779 765.291 494.602C771.326 501.205 786.186 501.205 790.43 501.205C822.767 499.358 849.058 521.033 882.156 480.96C882.926 480.029 883.466 478.896 883.623 477.699C887.34 449.064 860.859 393.41 849.216 374.846Z" fill="#1E1E1E"/>
<path d="M862.666 427.304C873.187 419.337 889.719 469.489 883.207 480.269C856.59 509.195 839.266 509.302 801.272 501.445C793.652 496.491 793.549 493.488 797.537 490.58C837.115 482.613 837.115 469.489 858.658 471.364C857.656 457.302 858.658 435.273 862.666 427.304Z" fill="#141414"/>
<path d="M820.69 445.497C808.509 450.929 799.377 455.975 784.646 467.565C801.293 457.543 812.157 453.258 827.646 446.851C828.773 446.385 829.496 445.264 829.445 444.046C828.931 431.741 827.779 421.063 828.12 404.025C826.859 410.538 826.63 419.008 825.979 437.714C825.861 441.103 823.788 444.115 820.69 445.497Z" fill="#434343"/>
<path d="M853.184 384.444C871.81 421.519 881.005 441.745 884.665 472.095C884.665 478.311 881.305 474.106 881.07 471.449C878.856 446.335 870.695 425.185 853.184 384.444Z" fill="#434343"/>
<path d="M871.593 491.861C862.311 500.223 846.066 510.346 806.149 501.544C837.516 505.748 852.389 503.779 867.881 493.621L871.593 491.861Z" fill="#434343"/>
<path d="M777.524 482.66C773.978 476.333 769.699 469.256 768.608 446.073C761.917 447.689 764.309 469.234 763.961 491.544C764.568 492.256 765.173 492.906 765.774 493.497C772.51 500.131 782.143 490.908 777.524 482.66Z" fill="#141414"/>
<path d="M763.819 492.796C765.689 495.599 769.896 497.935 769.896 497.935C766.817 495.166 765.869 493.94 765.379 492.809C764.855 491.601 764.723 490.267 764.662 488.951L764.659 488.907C764.093 477.023 762.746 448.741 768.026 446.541C761.949 447.942 764.169 470.1 763.819 492.796Z" fill="#272727"/>
<path d="M849.216 374.846C837.323 355.884 813.323 361.69 819.767 390.264C820.825 391.052 829.632 398.98 828.181 404.749C826.365 411.965 825.29 421.253 825.964 430.72C826.375 436.509 820.653 445.225 815.357 447.604C802.629 453.322 785.469 463.849 783.885 466.631C783.12 463.602 781.826 460.191 776.874 448.877C769.394 438.131 775.004 445.14 771.265 446.073C769.924 445.794 769.28 445.266 767.412 446.797C767.412 446.797 764.624 452.539 764.33 455.371C763.349 464.798 762.595 485.791 763.665 491.715C763.864 492.815 764.537 493.779 765.291 494.602C771.326 501.205 786.186 501.205 790.43 501.205C822.767 499.358 849.058 521.033 882.156 480.96C882.926 480.029 883.466 478.896 883.623 477.699C887.34 449.064 860.859 393.41 849.216 374.846Z" stroke="#161616" stroke-width="0.3"/>
<path d="M764.238 453.875C764.323 451.665 764.854 451.115 765.69 450.746C767.56 459.623 764.755 451.681 766.762 457.287C766.579 457.439 766.408 457.54 766.249 457.594C764.73 458.119 764.177 455.481 764.238 453.875Z" fill="#CE8974"/>
<path d="M764.124 460.177C764.219 459.998 764.334 459.85 764.469 459.727C765.054 459.196 765.919 459.78 766.091 460.552C766.77 463.628 765.113 458.294 766.625 463.518C764.915 464.273 763.256 461.832 764.124 460.177Z" fill="#9A6454"/>
<path d="M768.015 477.485C770.895 481.531 771.199 485.83 768.521 486.722C764.128 485.843 763.45 477.949 766.878 477.002C767.312 476.882 767.753 477.116 768.015 477.485Z" fill="#9A6454"/>
<path d="M820.658 239.637C813.926 252.344 805.387 258.014 801.96 259.26C813.178 259.26 822.217 278.883 825.332 288.694C841.787 291.684 847.771 279.661 848.706 273.276C850.949 267.296 846.836 249.603 844.499 241.505C837.767 228.797 825.8 234.964 820.658 239.637Z" fill="#1E1E1E"/>
<path d="M719.22 250.849C719.594 254.961 722.492 256.924 723.895 257.39C713.798 259.26 706.287 279.038 703.794 288.694H698.651C683.931 290.293 679.115 276.269 678.226 265.944C677.954 262.777 678.668 260.137 679.346 257.034C680.801 250.364 682.636 242.792 687.961 238.519C695.871 232.173 700.836 236.14 703.794 237.301C707.552 238.774 718.753 245.71 719.22 250.849Z" fill="#1E1E1E"/>
<path d="M722.959 257.859C714.315 261.735 710.447 269.596 704.261 287.76C695.361 306.844 670.401 355.764 713.61 377.932C726.931 384.418 731.273 388.437 738.385 395.686C758.019 410.099 766.416 410.405 785.598 395.686C796.931 386.992 804.595 384.111 816.9 377.932C847.754 362.443 834.197 316.656 825.315 284.957C816.865 265.735 812.087 261.041 802.894 257.859C793.528 253.114 771.558 251.878 764.545 253.114C758.696 254.145 757.066 252.647 760.338 251.244C751.973 250.699 737.466 250.806 722.959 257.859Z" fill="white"/>
<path d="M743.156 333.304C734.181 340.032 729.132 350.434 727.73 354.796C721.953 358.08 719.698 358.339 717.914 355.263C710.434 355.263 715.108 352.927 713.706 353.393C715.95 351.526 713.706 349.5 712.304 348.722C712.771 350.279 713.425 352.552 712.304 349.188C710.902 344.985 712.304 333.304 713.706 331.903C715.108 330.5 726.435 318.692 725.393 314.615C731.469 309.476 736.145 312.278 735.21 312.278C737.453 314.895 740.819 317.418 742.221 318.352C741.473 326.576 742.533 331.746 743.156 333.304Z" fill="#1E1E1E"/>
<path d="M732.394 330.962C730.232 330.434 726.34 329.162 726.707 326.245C727 323.911 730.357 327.225 732.394 330.349C732.404 330.364 733.591 330.381 732.76 330.671L732.394 330.962Z" fill="#727272"/>
<path d="M738.369 330.014C738.969 327.572 737.375 322.638 731.356 323.94C733.85 325.186 737.994 328.145 738.369 330.014Z" fill="#727272"/>
<path d="M737.9 330.671C737.433 328.024 735.002 323.195 729.019 325.065C729.019 327.557 730.795 332.167 737.9 330.671Z" fill="white"/>
<path d="M737.9 330.671C737.745 328.335 735.75 324.139 729.019 324.886C729.901 329.774 731.566 331.326 737.9 330.671Z" stroke="#181818"/>
<path d="M733.694 321.328C735.251 321.016 738.648 321.328 739.77 325.065" stroke="#181818"/>
<path d="M789.789 311.516C787.919 311.889 783.712 317.901 781.843 320.859C780.346 323.103 779.973 329.893 779.973 333.008C783.339 334.129 782.621 335.967 781.843 336.745C782.964 339.735 786.05 343.286 787.452 344.688C790.818 345.435 792.283 348.738 792.595 350.294C792.22 355.902 795.555 356.68 797.269 356.368C799.512 353.752 803.501 353.409 805.215 353.564C805.739 352.519 806.554 351.77 807.387 351.253C808.373 350.642 808.878 349.138 808.113 348.265L807.145 347.159C806.818 346.785 806.708 346.267 806.822 345.782C808.881 337.016 802.935 327.444 799.606 323.663C800.728 320.674 796.645 315.876 794.463 313.852C793.342 311.235 790.879 311.204 789.789 311.516Z" fill="#1E1E1E"/>
<path d="M784.602 330.204C783.667 325.531 788.808 322.729 790.211 324.597C789.276 325.531 785.723 328.708 784.602 330.204Z" fill="#727272"/>
<path d="M790.679 332.074C791.302 330.204 793.016 326.466 794.886 326.466C794.886 327.712 794.045 330.577 790.679 332.074Z" fill="#727272"/>
<path d="M789.743 321.861C788.305 321.633 785.17 321.861 784.134 324.598" stroke="#181818"/>
<path d="M785.069 330.624C785.538 327.975 787.968 323.149 793.951 325.016C793.951 327.509 792.174 332.119 785.069 330.624Z" fill="white"/>
<path d="M785.069 330.624C785.226 328.287 787.221 324.092 793.951 324.839C793.07 329.726 791.404 331.279 785.069 330.624Z" stroke="#181818"/>
<path d="M778.569 372.721C762.597 381.642 746.52 373.895 745.38 373.895L753.366 356.054C760.668 351.547 770.1 354.176 772.762 356.054L778.569 372.721Z" fill="url(#paint7_linear_1814_1068)"/>
<path d="M747.249 373.951C751.825 364.109 748.266 370.843 749.283 371.361C755.384 360.481 750.808 368.252 751.317 370.843C751.317 372.224 750.707 373.641 752.334 370.325C758.945 352.71 753.859 366.698 755.384 370.843C761.437 346.175 756.483 365.349 759.877 370.21C759.924 370.275 760.013 370.286 760.071 370.23C761.912 368.491 760.538 360.879 761.931 369.423C761.953 369.554 762.122 369.6 762.182 369.48C763.923 366.018 763.118 355.333 764.907 369.722C764.929 369.892 765.171 369.908 765.192 369.737C766.468 359.516 765.092 353.563 767.35 366.648C770.112 365.728 766.187 351.098 770.434 367.957C770.473 368.116 770.693 368.122 770.7 367.96C770.908 363.505 769.153 358.763 772.868 369.646C772.904 369.758 773.046 369.785 773.089 369.676C774.066 367.188 771.095 355.365 775.579 371.584C775.67 370.863 775.682 368.876 775.455 367.296C775.297 366.192 777.998 371.6 778.332 373.951H776.232C769.791 376.196 754.977 379.339 747.249 373.951Z" fill="url(#paint8_linear_1814_1068)"/>
<path d="M765.947 378.329C763.765 376.459 762.862 372.908 776.699 373.656C775.452 376.614 771.931 381.691 765.947 378.329Z" fill="#181818"/>
<path d="M758.001 378.898C760.183 377.028 761.087 373.477 747.249 374.224C748.496 377.183 752.018 382.26 758.001 378.898Z" fill="#181818"/>
<path d="M747.249 373.208L749.118 375.077C754.354 373.582 756.909 376.635 757.533 378.348C755.289 378.348 750.988 376.48 749.118 375.545L746.781 373.208H745.379C747.716 379.282 751.767 380.995 754.727 381.618C757.345 381.618 760.493 384.422 761.74 385.823C765.106 382.086 769.063 381.463 770.621 381.618C775.483 379.376 777.789 375.077 778.568 373.208H776.699L774.362 375.545C771.286 377.426 769.423 377.96 765.947 378.348C767.817 374.236 772.958 374.454 774.362 375.077L776.231 373.208C769.874 367.976 763.922 370.094 761.74 371.807C755.756 366.948 749.586 370.717 747.249 373.208Z" fill="#181818"/>
<path d="M765.034 378.849C767.043 377.802 769.044 377.842 770.166 377.871C770.308 377.875 770.364 378.061 770.245 378.139C768.111 379.547 766.289 379.807 765.155 379.711C764.63 379.667 764.566 379.094 765.034 378.849Z" fill="#D9D9D9"/>
<path d="M757.989 378.661C755.772 377.404 753.328 376.993 752.195 376.933C752.079 376.928 752.012 377.056 752.082 377.148C753.537 379.067 756.274 379.511 757.839 379.455C758.366 379.436 758.45 378.921 757.989 378.661Z" fill="#D9D9D9"/>
<path d="M761.542 371.65C760.279 370.765 759.575 369.94 753.793 370.385C757.595 370.385 759.97 371.555 761.337 373.481C761.532 373.756 761.96 373.764 762.165 373.496C763.697 371.497 766.061 370.901 770.621 370.385C766.582 369.936 763.403 370.35 761.915 371.624C761.81 371.715 761.656 371.731 761.542 371.65Z" fill="#D9D9D9"/>
<path d="M749.118 375.077L748.601 375.595L748.906 375.899L749.32 375.781L749.118 375.077ZM747.249 373.208L746.793 372.636L746.152 373.147L746.731 373.726L747.249 373.208ZM761.74 371.807L761.318 372.405L761.763 372.718L762.192 372.382L761.74 371.807ZM776.231 373.208L776.749 373.726L777.318 373.155L776.696 372.643L776.231 373.208ZM774.362 375.077L774.063 375.746L774.523 375.949L774.878 375.595L774.362 375.077ZM765.947 378.348L765.281 378.045L764.814 379.07L765.941 379.079L765.947 378.348ZM776.699 373.208V372.477H776.396L776.181 372.692L776.699 373.208ZM778.568 373.208L779.244 373.49L779.665 372.477H778.568V373.208ZM770.621 381.618L770.548 382.347L770.747 382.366L770.929 382.282L770.621 381.618ZM761.74 385.823L761.192 386.309L761.737 386.92L762.284 386.312L761.74 385.823ZM754.727 381.618L754.576 382.334L754.651 382.35H754.727V381.618ZM745.379 373.208V372.477H744.313L744.695 373.471L745.379 373.208ZM746.781 373.208L747.299 372.692L747.084 372.477H746.781V373.208ZM749.118 375.544L748.601 376.062L748.685 376.145L748.792 376.199L749.118 375.544ZM757.532 378.348V379.079H758.577L758.22 378.098L757.532 378.348ZM762.472 376.947C762.472 376.543 762.144 376.215 761.74 376.215C761.336 376.215 761.008 376.543 761.008 376.947H762.472ZM749.636 374.56L747.766 372.692L746.731 373.726L748.601 375.595L749.636 374.56ZM747.704 373.78C748.884 372.842 750.962 371.535 753.414 370.951C755.848 370.373 758.627 370.508 761.318 372.405L762.161 371.209C759.056 369.02 755.823 368.876 753.076 369.529C750.35 370.177 748.08 371.612 746.793 372.636L747.704 373.78ZM762.192 372.382C764.15 370.844 769.717 368.794 775.765 373.773L776.696 372.643C770.03 367.157 763.692 369.344 761.288 371.232L762.192 372.382ZM775.714 372.692L773.844 374.56L774.878 375.595L776.749 373.726L775.714 372.692ZM774.659 374.409C774.199 374.204 773.519 374.064 772.762 374.017C771.993 373.97 771.091 374.015 770.169 374.223C768.321 374.64 766.336 375.724 765.281 378.045L766.613 378.651C767.427 376.86 768.949 375.997 770.49 375.651C771.262 375.477 772.025 375.437 772.673 375.477C773.333 375.518 773.822 375.639 774.063 375.746L774.659 374.409ZM765.941 379.079C767.612 379.092 769.708 378.463 771.388 377.812C772.24 377.482 773.012 377.134 773.607 376.837C773.902 376.689 774.16 376.55 774.363 376.429C774.543 376.323 774.747 376.193 774.878 376.062L773.844 375.028C773.858 375.013 773.807 375.058 773.618 375.171C773.452 375.269 773.226 375.39 772.951 375.529C772.399 375.806 771.669 376.133 770.858 376.448C769.211 377.087 767.332 377.627 765.953 377.616L765.941 379.079ZM774.878 376.062C775.113 375.828 775.696 375.244 776.222 374.719C776.485 374.456 776.734 374.207 776.917 374.024C777.008 373.933 777.082 373.859 777.135 373.806C777.161 373.781 777.18 373.761 777.195 373.746C777.202 373.739 777.207 373.735 777.211 373.73C777.212 373.729 777.214 373.727 777.214 373.727C777.215 373.726 777.215 373.726 777.215 373.726C777.215 373.726 777.215 373.726 776.699 373.208C776.181 372.692 776.181 372.692 776.181 372.692C776.181 372.692 776.181 372.692 776.179 372.693C776.179 372.693 776.178 372.695 776.175 372.696C776.172 372.7 776.166 372.705 776.16 372.712C776.146 372.727 776.125 372.746 776.1 372.772C776.048 372.825 775.973 372.899 775.882 372.99C775.699 373.173 775.451 373.422 775.187 373.683C774.662 374.21 774.078 374.794 773.844 375.028L774.878 376.062ZM776.699 373.939H778.568V372.477H776.699V373.939ZM777.893 372.927C777.145 374.722 774.935 378.823 770.315 380.954L770.929 382.282C776.03 379.929 778.433 375.433 779.244 373.49L777.893 372.927ZM770.694 380.891C768.915 380.713 764.724 381.416 761.195 385.333L762.284 386.312C765.486 382.755 769.212 382.212 770.548 382.347L770.694 380.891ZM762.287 385.338C761.63 384.599 760.489 383.507 759.164 382.594C757.862 381.694 756.267 380.887 754.727 380.887V382.35C755.807 382.35 757.095 382.943 758.333 383.798C759.548 384.636 760.603 385.645 761.192 386.309L762.287 385.338ZM754.879 380.903C753.466 380.605 751.824 380.055 750.261 378.874C748.704 377.697 747.185 375.866 746.062 372.946L744.695 373.471C745.91 376.625 747.586 378.687 749.378 380.042C751.165 381.392 753.03 382.009 754.576 382.334L754.879 380.903ZM745.379 373.939H746.781V372.477H745.379V373.939ZM746.264 373.726L748.601 376.062L749.636 375.028L747.299 372.692L746.264 373.726ZM748.792 376.199C749.746 376.676 751.314 377.388 752.933 377.984C754.522 378.567 756.268 379.079 757.532 379.079V377.616C756.553 377.616 755.027 377.194 753.438 376.61C751.878 376.037 750.36 375.348 749.446 374.89L748.792 376.199ZM758.22 378.098C757.856 377.096 756.956 375.76 755.421 374.875C753.861 373.977 751.707 373.578 748.917 374.374L749.32 375.781C751.767 375.082 753.507 375.46 754.689 376.144C755.896 376.838 756.586 377.887 756.845 378.598L758.22 378.098ZM761.008 376.947V385.823H762.472V376.947H761.008Z" fill="#181818"/>
<path d="M763.145 389.073C761.648 387.953 760.339 388.607 759.873 389.073C754.332 396.103 740.522 391.945 738.836 390.943C739.209 391.446 748.474 406.45 754.262 402.623C757.067 401.221 769.576 400.097 772.961 401.689C777.011 403.593 780.908 396.082 784.18 390.475C777.167 392.812 765.682 393.52 763.145 389.073Z" fill="url(#paint9_radial_1814_1068)" fill-opacity="0.7"/>
<path d="M763.145 389.073C761.648 387.953 760.339 388.607 759.873 389.073C754.332 396.103 740.522 391.945 738.836 390.943C739.209 391.446 752.681 396.638 758.469 392.812C761.274 391.409 761.542 391.221 764.926 392.812C768.975 394.716 773.428 395.614 784.18 390.475C777.167 392.812 765.682 393.52 763.145 389.073Z" fill="#181818"/>
<path d="M694.714 528.005C704.105 541.314 713.642 559.372 725.28 583.902L720.226 606.367C719.049 611.597 715.108 615.839 709.86 616.943C664.71 626.432 627.631 607.331 611.867 575.934C587.346 527.098 663.207 483.353 694.714 528.005Z" fill="#1E1E1E"/>
<path d="M705.652 616.783C694.214 583.697 627.289 595.7 620.25 558.232C620.005 556.934 618.347 556.46 617.683 557.602C614.601 562.906 613.96 569.172 616.414 577.139C623.048 602.567 655.907 623.961 704.46 618.623C705.35 618.525 705.943 617.628 705.652 616.783Z" fill="#141414"/>
<path d="M730.757 602.058C733.008 564.422 706.772 553.011 686.796 549.742C674.048 547.656 663.229 557.488 663.629 570.393C664.292 591.898 671.938 621.77 709.182 622.323C720.569 622.491 730.077 613.418 730.757 602.058Z" fill="#181818"/>
<path d="M697.536 560.488C699.336 560.225 699.702 559.632 699.222 557.465C698.743 555.309 697.132 553.502 694.996 552.939C691.535 552.026 689.577 552.767 690.911 556.675C691.826 559.351 694.737 560.896 697.536 560.488Z" fill="#CE8974"/>
<path d="M688.002 563.688C689.064 563.543 689.635 562.939 689.844 561.639C690.225 559.268 688.598 556.951 686.31 556.217C683.647 555.361 682.156 556.101 683.104 559.78C683.682 562.028 685.702 564.003 688.002 563.688Z" fill="#CE8974"/>
<path d="M680.369 567.718C680.911 567.741 681.302 567.469 681.643 566.811C682.658 564.848 681.976 562.313 680.246 560.935C678.742 559.736 677.538 559.736 676.967 561.817C676.285 564.31 677.786 567.607 680.369 567.718Z" fill="#CE8974"/>
<path d="M677.274 574.937C677.814 574.961 678.205 574.689 678.546 574.031C679.561 572.068 678.88 569.531 677.151 568.155C675.645 566.954 674.441 566.954 673.87 569.037C673.188 571.529 674.69 574.826 677.274 574.937Z" fill="#CE8974"/>
<path d="M675.617 582.653C675.736 582.583 675.847 582.477 675.953 582.333C677.259 580.55 676.674 577.829 675.007 576.378C673.997 575.501 673.111 575.366 672.465 576.4C670.965 578.799 673.175 584.082 675.617 582.653Z" fill="#CE8974"/>
<path d="M700.415 564.244C687.929 570.247 687.303 570.656 679.811 583.444C679.743 583.561 679.689 583.691 679.656 583.823C678.733 587.601 678.92 592.602 680.738 594.97C685.722 601.467 695.041 594.928 687.755 588.186C687.282 587.747 687.088 587.066 687.347 586.476C691.249 577.548 698.183 573.124 709.487 568.493C710.85 567.934 710.672 565.916 709.225 565.638L701.334 564.121C701.025 564.061 700.697 564.108 700.415 564.244Z" fill="#9A6454"/>
<path d="M714.359 591.873C718.395 591.909 721.702 587.971 721.745 583.078C721.788 578.185 718.55 574.19 714.513 574.155C710.477 574.12 707.169 578.058 707.127 582.95C707.084 587.843 710.322 591.838 714.359 591.873Z" fill="#9A6454"/>
<path d="M706.07 600.88C705.369 597.438 701.956 595.227 698.446 595.941C694.936 596.655 692.658 600.023 693.359 603.464C694.059 606.906 697.472 609.117 700.983 608.403C704.493 607.69 706.77 604.321 706.07 600.88Z" fill="#9A6454"/>
<path d="M834.379 528.005C824.988 541.314 815.451 559.372 803.812 583.902L808.867 606.367C810.044 611.597 813.985 615.839 819.232 616.943C864.383 626.432 901.462 607.331 917.227 575.934C941.747 527.098 865.886 483.353 834.379 528.005Z" fill="#1E1E1E"/>
<path d="M824.338 616.886C835.227 588.297 897.079 598.527 903.907 566.142C904.175 564.874 905.789 564.395 906.461 565.503C909.245 570.108 909.803 575.542 907.539 582.428C901.356 604.651 870.75 623.354 825.521 618.741C824.615 618.649 824.013 617.736 824.338 616.886Z" fill="#141414"/>
<path d="M801.612 596.801C799.361 559.167 825.596 547.755 845.572 544.486C858.319 542.399 869.139 552.233 868.74 565.138C868.076 586.643 860.43 616.513 823.186 617.068C811.8 617.236 802.291 608.163 801.612 596.801Z" fill="#181818"/>
<path d="M831.554 560.488C829.754 560.225 829.388 559.632 829.868 557.465C830.347 555.309 831.958 553.502 834.095 552.939C837.556 552.026 839.514 552.767 838.179 556.675C837.264 559.351 834.355 560.896 831.554 560.488Z" fill="#CE8974"/>
<path d="M841.089 563.688C840.028 563.543 839.456 562.939 839.247 561.639C838.866 559.268 840.494 556.951 842.781 556.217C845.444 555.361 846.935 556.101 845.987 559.78C845.409 562.028 843.39 564.003 841.089 563.688Z" fill="#CE8974"/>
<path d="M848.722 567.718C848.182 567.741 847.791 567.469 847.45 566.811C846.435 564.848 847.117 562.313 848.845 560.935C850.351 559.736 851.555 559.736 852.125 561.817C852.808 564.31 851.307 567.607 848.722 567.718Z" fill="#CE8974"/>
<path d="M851.818 574.937C851.277 574.961 850.888 574.689 850.547 574.031C849.53 572.068 850.213 569.531 851.941 568.155C853.446 566.954 854.652 566.954 855.221 569.037C855.904 571.529 854.401 574.826 851.818 574.937Z" fill="#CE8974"/>
<path d="M853.475 582.653C853.355 582.583 853.245 582.477 853.14 582.333C851.831 580.55 852.417 577.829 854.085 576.378C855.093 575.501 855.98 575.366 856.627 576.4C858.125 578.799 855.917 584.082 853.475 582.653Z" fill="#CE8974"/>
<path d="M828.677 564.244C841.163 570.247 841.789 570.656 849.281 583.444C849.349 583.561 849.404 583.691 849.436 583.823C850.359 587.601 850.172 592.602 848.354 594.97C843.37 601.467 834.051 594.928 841.337 588.186C841.81 587.747 842.004 587.066 841.745 586.476C837.843 577.548 830.91 573.124 819.605 568.493C818.242 567.934 818.42 565.916 819.867 565.638L827.758 564.121C828.067 564.061 828.395 564.108 828.677 564.244Z" fill="#9A6454"/>
<path d="M814.734 591.873C810.697 591.909 807.39 587.971 807.348 583.078C807.305 578.185 810.543 574.19 814.579 574.155C818.616 574.12 821.923 578.058 821.966 582.95C822.009 587.843 818.771 591.838 814.734 591.873Z" fill="#9A6454"/>
<path d="M823.023 600.88C823.724 597.438 827.137 595.227 830.647 595.941C834.157 596.655 836.435 600.023 835.734 603.464C835.034 606.906 831.62 609.117 828.11 608.403C824.6 607.69 822.323 604.321 823.023 600.88Z" fill="#9A6454"/>
<defs>
<filter id="filter0_f_1814_1068" x="51" y="-362" width="1422" height="866" filterUnits="userSpaceOnUse" color-interpolation-filters="sRGB">
<feFlood flood-opacity="0" result="BackgroundImageFix"/>
<feBlend mode="normal" in="SourceGraphic" in2="BackgroundImageFix" result="shape"/>
<feGaussianBlur stdDeviation="25" result="effect1_foregroundBlur_1814_1068"/>
</filter>
<filter id="filter1_f_1814_1068" x="1161" y="618" width="683" height="698" filterUnits="userSpaceOnUse" color-interpolation-filters="sRGB">
<feFlood flood-opacity="0" result="BackgroundImageFix"/>
<feBlend mode="normal" in="SourceGraphic" in2="BackgroundImageFix" result="shape"/>
<feGaussianBlur stdDeviation="100" result="effect1_foregroundBlur_1814_1068"/>
</filter>
<filter id="filter2_f_1814_1068" x="-308" y="-108" width="683" height="698" filterUnits="userSpaceOnUse" color-interpolation-filters="sRGB">
<feFlood flood-opacity="0" result="BackgroundImageFix"/>
<feBlend mode="normal" in="SourceGraphic" in2="BackgroundImageFix" result="shape"/>
<feGaussianBlur stdDeviation="100" result="effect1_foregroundBlur_1814_1068"/>
</filter>
<filter id="filter3_f_1814_1068" x="422.226" y="91.1328" width="673.318" height="658.655" filterUnits="userSpaceOnUse" color-interpolation-filters="sRGB">
<feFlood flood-opacity="0" result="BackgroundImageFix"/>
<feBlend mode="normal" in="SourceGraphic" in2="BackgroundImageFix" result="shape"/>
<feGaussianBlur stdDeviation="25" result="effect1_foregroundBlur_1814_1068"/>
</filter>
<filter id="filter4_f_1814_1068" x="460.937" y="135.186" width="608.062" height="607.758" filterUnits="userSpaceOnUse" color-interpolation-filters="sRGB">
<feFlood flood-opacity="0" result="BackgroundImageFix"/>
<feBlend mode="normal" in="SourceGraphic" in2="BackgroundImageFix" result="shape"/>
<feGaussianBlur stdDeviation="5" result="effect1_foregroundBlur_1814_1068"/>
</filter>
<radialGradient id="paint0_radial_1814_1068" cx="0" cy="0" r="1" gradientUnits="userSpaceOnUse" gradientTransform="translate(762 71) rotate(90) scale(383 661)">
<stop stop-color="white" stop-opacity="0.52"/>
<stop offset="1" stop-color="#D9D9D9" stop-opacity="0"/>
</radialGradient>
<linearGradient id="paint1_linear_1814_1068" x1="231.306" y1="621.966" x2="146.694" y2="721.034" gradientUnits="userSpaceOnUse">
<stop stop-color="white"/>
<stop offset="1" stop-color="white" stop-opacity="0"/>
</linearGradient>
<linearGradient id="paint2_linear_1814_1068" x1="1225.82" y1="223.68" x2="1331.83" y2="128.23" gradientUnits="userSpaceOnUse">
<stop stop-color="white"/>
<stop offset="1" stop-color="white" stop-opacity="0"/>
</linearGradient>
<linearGradient id="paint3_linear_1814_1068" x1="1314.73" y1="613.624" x2="1129" y2="804" gradientUnits="userSpaceOnUse">
<stop stop-color="white"/>
<stop offset="0.840278" stop-color="white" stop-opacity="0"/>
</linearGradient>
<linearGradient id="paint4_linear_1814_1068" x1="1378.48" y1="364.147" x2="1324.95" y2="362.278" gradientUnits="userSpaceOnUse">
<stop stop-color="white"/>
<stop offset="1" stop-color="white" stop-opacity="0"/>
</linearGradient>
<linearGradient id="paint5_linear_1814_1068" x1="153.049" y1="385.47" x2="196.384" y2="416.955" gradientUnits="userSpaceOnUse">
<stop stop-color="white"/>
<stop offset="1" stop-color="white" stop-opacity="0"/>
</linearGradient>
<linearGradient id="paint6_linear_1814_1068" x1="402.649" y1="195.742" x2="370.787" y2="152.683" gradientUnits="userSpaceOnUse">
<stop stop-color="white"/>
<stop offset="1" stop-color="white" stop-opacity="0"/>
</linearGradient>
<linearGradient id="paint7_linear_1814_1068" x1="762.208" y1="353.566" x2="762.208" y2="377.861" gradientUnits="userSpaceOnUse">
<stop offset="0.219444" stop-color="#858585" stop-opacity="0"/>
<stop offset="1" stop-color="#858585"/>
</linearGradient>
<linearGradient id="paint8_linear_1814_1068" x1="761.487" y1="377.059" x2="761.487" y2="358.409" gradientUnits="userSpaceOnUse">
<stop stop-color="#6D6D6D"/>
<stop offset="1" stop-color="#6D6D6D" stop-opacity="0"/>
</linearGradient>
<radialGradient id="paint9_radial_1814_1068" cx="0" cy="0" r="1" gradientUnits="userSpaceOnUse" gradientTransform="translate(761.741 390.008) rotate(90) scale(9.81153 20.5285)">
<stop/>
<stop offset="1" stop-opacity="0"/>
</radialGradient>
</defs>
</svg>
