<svg width="41" height="41" viewBox="0 0 41 41" fill="none" xmlns="http://www.w3.org/2000/svg">
<g clip-path="url(#clip0_1634_4905)">
<path d="M19.9393 10.8477C20.0034 10.8497 20.068 10.8506 20.1321 10.8506C20.1322 10.8506 20.1322 10.8506 20.1324 10.8506C22.4092 10.8506 24.8797 9.567 26.4256 7.58092C28.0212 5.53372 28.7462 3.07792 28.4147 0.843016C28.339 0.332599 27.8816 -0.0345063 27.3684 0.00250715C25.1246 0.15965 22.5844 1.52401 21.0476 3.39721C19.3755 5.43348 18.6094 7.91615 18.9984 10.0383C19.0823 10.496 19.4742 10.8331 19.9393 10.8477ZM22.5749 4.65093C23.528 3.48915 25.0708 2.52943 26.5165 2.14455C26.4477 4.11034 25.3803 5.70838 24.8669 6.36698C23.869 7.64889 22.3346 8.57132 20.8708 8.8125C20.8999 6.85764 22.147 5.17201 22.5749 4.65093Z" fill="url(#paint0_linear_1634_4905)"/>
<path d="M37.2251 29.8126C37.1205 29.561 36.9164 29.3638 36.6614 29.2677C32.593 27.7336 31.3188 23.3244 32.4718 20.1182C33.0417 18.528 34.1631 17.2355 35.7145 16.3806C35.9698 16.24 36.15 15.9937 36.2067 15.7077C36.2635 15.4217 36.1909 15.1252 36.0087 14.8977C33.9468 12.3244 31.0157 10.7882 28.1681 10.7882C26.1744 10.7882 24.8247 11.3001 23.634 11.7516C22.7569 12.0842 21.9995 12.3715 21.1312 12.3715C20.1707 12.3715 19.2947 12.0577 18.2802 11.6943C17.0943 11.2695 15.7504 10.7881 14.0707 10.7881C10.8334 10.7881 7.5525 12.7458 5.50714 15.8992C4.75027 17.0722 4.21957 18.5211 3.92913 20.2075C3.11206 25.0051 4.49645 30.7217 7.63284 35.5004C9.41147 38.2046 11.6528 40.9729 14.7888 40.9996L14.8528 40.9999C16.1591 40.9999 17.038 40.6074 17.8878 40.2277C18.7859 39.8266 19.6342 39.4477 21.1707 39.44L21.2213 39.4399C22.7288 39.4399 23.5502 39.8168 24.4198 40.2157C25.253 40.598 26.1146 40.9933 27.4174 40.9933L27.4771 40.9929C30.5504 40.9668 32.8779 38.0549 34.7513 35.2071C35.9028 33.4432 36.3413 32.5417 37.2144 30.5965C37.3258 30.3479 37.3296 30.0642 37.2251 29.8126ZM33.0986 34.1242C31.6064 36.3927 29.6169 38.9989 27.4592 39.0174L27.4173 39.0175C26.5459 39.0175 25.9711 38.7536 25.2435 38.4199C24.3154 37.994 23.1603 37.4641 21.221 37.4641L21.16 37.4642C19.2081 37.474 18.029 38.0006 17.0818 38.4238C16.3309 38.7593 15.7377 39.0242 14.8527 39.0242L14.8069 39.0241C12.5858 39.005 10.6884 36.5508 9.28396 34.4156C6.41509 30.0445 5.14135 24.8573 5.87648 20.5412C6.12122 19.12 6.5555 17.9187 7.16603 16.9725C8.84981 14.3765 11.4955 12.7639 14.0707 12.7639C15.4071 12.7639 16.4791 13.1478 17.614 13.5543C18.7022 13.9442 19.8275 14.3473 21.1312 14.3473C22.3616 14.3473 23.3646 13.9669 24.3346 13.599C25.4171 13.1884 26.5366 12.7639 28.1682 12.7639C30.1096 12.7639 32.126 13.6987 33.7283 15.3063C32.2791 16.3627 31.2121 17.7769 30.6124 19.4504C29.0486 23.7993 31.0057 28.621 35.0032 30.6883C34.409 31.977 33.9868 32.7634 33.0986 34.1242Z" fill="url(#paint1_linear_1634_4905)"/>
</g>
<defs>
<linearGradient id="paint0_linear_1634_4905" x1="23.6962" y1="-6.10352e-05" x2="23.6962" y2="10.8506" gradientUnits="userSpaceOnUse">
<stop offset="0.0694443" stop-color="white"/>
<stop offset="1" stop-color="#47F258"/>
</linearGradient>
<linearGradient id="paint1_linear_1634_4905" x1="20.4998" y1="10.7881" x2="20.4998" y2="40.9999" gradientUnits="userSpaceOnUse">
<stop offset="0.0694443" stop-color="white"/>
<stop offset="1" stop-color="#47F258"/>
</linearGradient>
<clipPath id="clip0_1634_4905">
<rect width="41" height="41" fill="white"/>
</clipPath>
</defs>
</svg>
