<svg width="29" height="29" viewBox="0 0 29 29" fill="none" xmlns="http://www.w3.org/2000/svg">
<path d="M9.06294 23.959H5.0981V11.1582H9.06294V23.959ZM9.45854 7.07986C9.45854 5.79814 8.41866 4.75781 7.1376 4.75781C5.85168 4.75781 4.81445 5.79814 4.81445 7.07986C4.81445 8.36201 5.85168 9.40234 7.1376 9.40234C8.41866 9.40234 9.45854 8.36201 9.45854 7.07986ZM23.9023 16.9165C23.9023 13.4802 23.1764 10.9316 19.1622 10.9316C17.2334 10.9316 15.9386 11.8963 15.41 12.8995H15.4062V11.1582H11.5547V23.959H15.4062V17.6033C15.4062 15.9388 15.8299 14.3263 17.8931 14.3263C19.9282 14.3263 19.9941 16.2298 19.9941 17.709V23.959H23.9023V16.9165ZM29 25.6016V3.39844C29 1.52443 27.4756 0 25.6016 0H3.39844C1.52443 0 0 1.52443 0 3.39844V25.6016C0 27.4756 1.52443 29 3.39844 29H25.6016C27.4756 29 29 27.4756 29 25.6016ZM25.6016 2.26562C26.2262 2.26562 26.7344 2.77384 26.7344 3.39844V25.6016C26.7344 26.2262 26.2262 26.7344 25.6016 26.7344H3.39844C2.77384 26.7344 2.26562 26.2262 2.26562 25.6016V3.39844C2.26562 2.77384 2.77384 2.26562 3.39844 2.26562H25.6016Z" fill="white"/>
</svg>
