<svg width="88" height="35" viewBox="0 0 88 35" fill="none" xmlns="http://www.w3.org/2000/svg">
<path d="M1.89 2.288C1.89 1.946 2.007 1.667 2.241 1.451C2.493 1.217 2.808 1.1 3.186 1.1H11.07C12.258 1.1 13.311 1.352 14.229 1.856C15.147 2.342 15.858 3.035 16.362 3.935C16.866 4.817 17.118 5.834 17.118 6.986C17.118 8.174 16.866 9.218 16.362 10.118C15.876 11.018 15.174 11.711 14.256 12.197C13.338 12.683 12.276 12.926 11.07 12.926H4.428V18.137C4.428 18.821 4.212 19.343 3.78 19.703C3.348 20.063 2.718 20.243 1.89 20.243V2.288ZM11.07 10.685C12.15 10.685 13.005 10.361 13.635 9.713C14.265 9.047 14.58 8.138 14.58 6.986C14.58 5.87 14.256 4.988 13.608 4.34C12.978 3.674 12.132 3.341 11.07 3.341H4.428V10.685H11.07ZM18.4205 20.243C17.8805 20.135 17.4575 19.91 17.1515 19.568C16.8455 19.208 16.6925 18.776 16.6925 18.272C16.6925 17.93 16.7735 17.57 16.9355 17.192L23.3885 1.667C23.6045 1.127 24.0185 0.856999 24.6305 0.856999C25.2065 0.856999 25.6115 1.127 25.8455 1.667L32.2985 17.192C32.4605 17.57 32.5415 17.93 32.5415 18.272C32.5415 18.758 32.3885 19.181 32.0825 19.541C31.7765 19.901 31.3535 20.135 30.8135 20.243L28.4915 14.6H20.7425L18.4205 20.243ZM27.7085 12.413L24.2255 3.584L24.0095 3.665L24.4955 4.907L21.5255 12.413H27.7085ZM35.64 3.044C35.64 2.36 35.847 1.829 36.261 1.451C36.693 1.055 37.287 0.856999 38.043 0.856999L48.519 16.787L48.708 16.625L47.925 15.329V0.856999C48.753 0.856999 49.374 1.037 49.788 1.397C50.22 1.757 50.436 2.279 50.436 2.963V18.245C50.436 18.821 50.229 19.298 49.815 19.676C49.419 20.054 48.906 20.243 48.276 20.243L37.557 3.962L37.368 4.124L38.151 5.42V18.137C38.151 18.821 37.935 19.343 37.503 19.703C37.089 20.063 36.468 20.243 35.64 20.243V3.044ZM55.5249 20C55.1649 20 54.8589 19.892 54.6069 19.676C54.3549 19.442 54.2289 19.154 54.2289 18.812V2.288C54.2289 1.946 54.3459 1.667 54.5799 1.451C54.8319 1.217 55.1469 1.1 55.5249 1.1H61.8429C63.3729 1.1 64.7229 1.388 65.8929 1.964C67.0629 2.54 67.9719 3.35 68.6199 4.394C69.2859 5.42 69.6189 6.599 69.6189 7.931V13.115C69.6189 14.447 69.2859 15.635 68.6199 16.679C67.9719 17.723 67.0539 18.542 65.8659 19.136C64.6959 19.712 63.3549 20 61.8429 20H55.5249ZM61.5729 17.786C63.3009 17.786 64.6509 17.381 65.6229 16.571C66.5949 15.743 67.0809 14.6 67.0809 13.142V7.904C67.0809 6.464 66.5949 5.339 65.6229 4.529C64.6509 3.719 63.3009 3.314 61.5729 3.314H56.7669V17.786H61.5729ZM73.2379 20.243C72.6979 20.135 72.2749 19.91 71.9689 19.568C71.6629 19.208 71.5099 18.776 71.5099 18.272C71.5099 17.93 71.5909 17.57 71.7529 17.192L78.2059 1.667C78.4219 1.127 78.8359 0.856999 79.4479 0.856999C80.0239 0.856999 80.4289 1.127 80.6629 1.667L87.1159 17.192C87.2779 17.57 87.3589 17.93 87.3589 18.272C87.3589 18.758 87.2059 19.181 86.8999 19.541C86.5939 19.901 86.1709 20.135 85.6309 20.243L83.3089 14.6H75.5599L73.2379 20.243ZM82.5259 12.413L79.0429 3.584L78.8269 3.665L79.3129 4.907L76.3429 12.413H82.5259ZM0.945 27.3745C0.945 27.1155 1.029 26.916 1.197 26.776C1.372 26.629 1.617 26.5555 1.932 26.5555V33.2755C1.932 33.5345 1.8445 33.7375 1.6695 33.8845C1.5015 34.0245 1.26 34.0945 0.945 34.0945V27.3745ZM6.60885 27.406C6.60885 27.14 6.68935 26.9335 6.85035 26.7865C7.01835 26.6325 7.24935 26.5555 7.54335 26.5555L11.6173 32.7505L11.6908 32.6875L11.3863 32.1835V26.5555C11.7083 26.5555 11.9498 26.6255 12.1108 26.7655C12.2788 26.9055 12.3628 27.1085 12.3628 27.3745V33.3175C12.3628 33.5415 12.2823 33.727 12.1213 33.874C11.9673 34.021 11.7678 34.0945 11.5228 34.0945L7.35435 27.763L7.28085 27.826L7.58535 28.33V33.2755C7.58535 33.5415 7.50135 33.7445 7.33335 33.8845C7.17235 34.0245 6.93085 34.0945 6.60885 34.0945V27.406ZM16.8304 27.406C16.8304 27.14 16.9109 26.9335 17.0719 26.7865C17.2399 26.6325 17.4709 26.5555 17.7649 26.5555L21.8389 32.7505L21.9124 32.6875L21.6079 32.1835V26.5555C21.9299 26.5555 22.1714 26.6255 22.3324 26.7655C22.5004 26.9055 22.5844 27.1085 22.5844 27.3745V33.3175C22.5844 33.5415 22.5039 33.727 22.3429 33.874C22.1889 34.021 21.9894 34.0945 21.7444 34.0945L17.5759 27.763L17.5024 27.826L17.8069 28.33V33.2755C17.8069 33.5415 17.7229 33.7445 17.5549 33.8845C17.3939 34.0245 17.1524 34.0945 16.8304 34.0945V27.406ZM29.8134 34.0945C29.2324 34.0945 28.7109 33.9825 28.2489 33.7585C27.7939 33.5275 27.4369 33.2125 27.1779 32.8135C26.9189 32.4075 26.7894 31.9595 26.7894 31.4695V29.1595C26.7894 28.6695 26.9189 28.2285 27.1779 27.8365C27.4369 27.4375 27.7939 27.126 28.2489 26.902C28.7109 26.671 29.2324 26.5555 29.8134 26.5555C30.4014 26.5555 30.9229 26.671 31.3779 26.902C31.8399 27.126 32.2004 27.4375 32.4594 27.8365C32.7184 28.2285 32.8479 28.6695 32.8479 29.1595V31.4695C32.8479 31.9595 32.7184 32.4075 32.4594 32.8135C32.2004 33.2125 31.8399 33.5275 31.3779 33.7585C30.9159 33.9825 30.3944 34.0945 29.8134 34.0945ZM29.8134 33.2335C30.4644 33.2335 30.9719 33.0725 31.3359 32.7505C31.6999 32.4285 31.8819 31.998 31.8819 31.459V29.1805C31.8819 28.6415 31.6999 28.2145 31.3359 27.8995C30.9719 27.5775 30.4644 27.4165 29.8134 27.4165C29.1694 27.4165 28.6654 27.5775 28.3014 27.8995C27.9374 28.2145 27.7554 28.6415 27.7554 29.1805V31.459C27.7554 31.998 27.9374 32.4285 28.3014 32.7505C28.6654 33.0725 29.1694 33.2335 29.8134 33.2335ZM39.3926 34.0945C39.1616 34.0945 39.0041 33.9895 38.9201 33.7795L36.2111 26.65C36.2671 26.622 36.3336 26.601 36.4106 26.587C36.4876 26.566 36.5576 26.5555 36.6206 26.5555C36.8166 26.5555 36.9811 26.6045 37.1141 26.7025C37.2541 26.7935 37.3556 26.923 37.4186 27.091L39.3401 32.4565L39.1511 32.992L39.2351 33.0235L41.3666 27.091C41.4296 26.923 41.5311 26.7935 41.6711 26.7025C41.8111 26.6045 41.9791 26.5555 42.1751 26.5555C42.2941 26.5555 42.4306 26.587 42.5846 26.65L39.8756 33.7795C39.8406 33.8775 39.7811 33.9545 39.6971 34.0105C39.6131 34.0665 39.5116 34.0945 39.3926 34.0945ZM45.8843 34.0945C45.6743 34.0525 45.5098 33.965 45.3908 33.832C45.2718 33.692 45.2123 33.524 45.2123 33.328C45.2123 33.195 45.2438 33.055 45.3068 32.908L47.8163 26.8705C47.9003 26.6605 48.0613 26.5555 48.2993 26.5555C48.5233 26.5555 48.6808 26.6605 48.7718 26.8705L51.2813 32.908C51.3443 33.055 51.3758 33.195 51.3758 33.328C51.3758 33.517 51.3163 33.6815 51.1973 33.8215C51.0783 33.9615 50.9138 34.0525 50.7038 34.0945L49.8008 31.9H46.7873L45.8843 34.0945ZM49.4963 31.0495L48.1418 27.616L48.0578 27.6475L48.2468 28.1305L47.0918 31.0495H49.4963ZM56.6604 27.5215H54.0984C54.0984 26.9405 54.3714 26.65 54.9174 26.65H60.1989C60.1989 27.231 59.9259 27.5215 59.3799 27.5215H57.6474V33.2755C57.6474 33.5415 57.5634 33.7445 57.3954 33.8845C57.2274 34.0245 56.9824 34.0945 56.6604 34.0945V27.5215ZM64.5077 27.3745C64.5077 27.1155 64.5917 26.916 64.7597 26.776C64.9347 26.629 65.1797 26.5555 65.4947 26.5555V33.2755C65.4947 33.5345 65.4072 33.7375 65.2322 33.8845C65.0642 34.0245 64.8227 34.0945 64.5077 34.0945V27.3745ZM72.9331 34.0945C72.3521 34.0945 71.8306 33.9825 71.3686 33.7585C70.9136 33.5275 70.5566 33.2125 70.2976 32.8135C70.0386 32.4075 69.9091 31.9595 69.9091 31.4695V29.1595C69.9091 28.6695 70.0386 28.2285 70.2976 27.8365C70.5566 27.4375 70.9136 27.126 71.3686 26.902C71.8306 26.671 72.3521 26.5555 72.9331 26.5555C73.5211 26.5555 74.0426 26.671 74.4976 26.902C74.9596 27.126 75.3201 27.4375 75.5791 27.8365C75.8381 28.2285 75.9676 28.6695 75.9676 29.1595V31.4695C75.9676 31.9595 75.8381 32.4075 75.5791 32.8135C75.3201 33.2125 74.9596 33.5275 74.4976 33.7585C74.0356 33.9825 73.5141 34.0945 72.9331 34.0945ZM72.9331 33.2335C73.5841 33.2335 74.0916 33.0725 74.4556 32.7505C74.8196 32.4285 75.0016 31.998 75.0016 31.459V29.1805C75.0016 28.6415 74.8196 28.2145 74.4556 27.8995C74.0916 27.5775 73.5841 27.4165 72.9331 27.4165C72.2891 27.4165 71.7851 27.5775 71.4211 27.8995C71.0571 28.2145 70.8751 28.6415 70.8751 29.1805V31.459C70.8751 31.998 71.0571 32.4285 71.4211 32.7505C71.7851 33.0725 72.2891 33.2335 72.9331 33.2335ZM80.1675 27.406C80.1675 27.14 80.248 26.9335 80.409 26.7865C80.577 26.6325 80.808 26.5555 81.102 26.5555L85.176 32.7505L85.2495 32.6875L84.945 32.1835V26.5555C85.267 26.5555 85.5085 26.6255 85.6695 26.7655C85.8375 26.9055 85.9215 27.1085 85.9215 27.3745V33.3175C85.9215 33.5415 85.841 33.727 85.68 33.874C85.526 34.021 85.3265 34.0945 85.0815 34.0945L80.913 27.763L80.8395 27.826L81.144 28.33V33.2755C81.144 33.5415 81.06 33.7445 80.892 33.8845C80.731 34.0245 80.4895 34.0945 80.1675 34.0945V27.406Z" fill="white"/>
</svg>
