<svg width="44" height="37" viewBox="0 0 44 37" fill="none" xmlns="http://www.w3.org/2000/svg">
<path d="M31.9634 32.0481H23.6776L22.8106 31.2009L24.9862 29.0748C25.2251 28.8412 25.3249 28.5089 25.2529 28.1861C25.1809 27.8633 24.9488 27.6019 24.6321 27.4867L13.2764 23.3566C12.8778 23.2115 12.4431 23.304 12.1422 23.5982C11.8413 23.8922 11.7466 24.317 11.895 24.7066L14.6908 32.0481H3.30567C2.19364 32.0481 1.28906 31.1641 1.28906 30.0774V16.4894C1.28906 16.1415 1.00057 15.8595 0.644531 15.8595C0.288492 15.8595 0 16.1415 0 16.4894V30.0774C0 31.8587 1.48294 33.308 3.30567 33.308H15.1706L16.1212 35.8041C16.239 36.1138 16.5066 36.3406 16.837 36.411C17.1672 36.4815 17.5074 36.3839 17.7462 36.1503L19.9217 34.0243L22.1363 36.1886C22.3457 36.3932 22.6207 36.4953 22.8957 36.4953C23.1708 36.4953 23.4459 36.393 23.6553 36.1885L25.0253 34.8498C25.4439 34.4405 25.4439 33.7745 25.0252 33.3652C25.0252 33.3652 25.0252 33.3652 25.0251 33.3652L24.9666 33.3081H31.9633C32.3194 33.3081 32.6079 33.0262 32.6079 32.6782C32.6079 32.3303 32.3194 32.0481 31.9634 32.0481ZM22.8958 35.149L20.3775 32.6879C20.2516 32.5649 20.0867 32.5035 19.9217 32.5035C19.7568 32.5035 19.5918 32.5649 19.4659 32.6879L17.1658 34.9357L13.2669 24.6973L23.7432 28.5077L21.4432 30.7555C21.1915 31.0016 21.1915 31.4003 21.4433 31.6463L23.9616 34.1073L22.8958 35.149Z" fill="url(#paint0_linear_1634_4889)"/>
<path d="M40.6943 0.504837H38.4409C38.0848 0.504837 37.7963 0.786773 37.7963 1.13472C37.7963 1.48267 38.0848 1.7646 38.4409 1.7646H40.6943C41.8063 1.7646 42.7109 2.64862 42.7109 3.73538V7.68189H1.28906V3.73538C1.28906 2.64871 2.19364 1.7646 3.30567 1.7646H35.46C35.816 1.7646 36.1045 1.48267 36.1045 1.13472C36.1045 0.786773 35.816 0.504837 35.46 0.504837H3.30567C1.48294 0.504837 0 1.95407 0 3.73538V13.6549C0 14.0029 0.288492 14.2848 0.644531 14.2848C1.00057 14.2848 1.28906 14.0029 1.28906 13.6549V8.94174H42.7109V30.0774C42.7109 31.1641 41.8064 32.0482 40.6943 32.0482H35.0518C34.6957 32.0482 34.4072 32.3301 34.4072 32.6781C34.4072 33.026 34.6957 33.308 35.0518 33.308H40.6943C42.5171 33.308 44 31.8587 44 30.0774V3.73538C44 1.95407 42.5171 0.504837 40.6943 0.504837Z" fill="url(#paint1_linear_1634_4889)"/>
<path d="M4.271 4.72329C4.271 5.3677 4.80553 5.89008 5.46484 5.89008C6.12415 5.89008 6.65868 5.3677 6.65868 4.72329C6.65868 4.07888 6.12415 3.55658 5.46484 3.55658C4.80553 3.55658 4.271 4.07888 4.271 4.72329Z" fill="url(#paint2_linear_1634_4889)"/>
<path d="M7.94336 4.72329C7.94336 5.3677 8.47789 5.89008 9.1372 5.89008C9.79652 5.89008 10.331 5.3677 10.331 4.72329C10.331 4.07888 9.79652 3.55658 9.1372 3.55658C8.47789 3.55658 7.94336 4.07888 7.94336 4.72329Z" fill="url(#paint3_linear_1634_4889)"/>
<path d="M11.6162 4.72329C11.6162 5.3677 12.1507 5.89008 12.8101 5.89008C13.4694 5.89008 14.0039 5.3677 14.0039 4.72329C14.0039 4.07888 13.4694 3.55658 12.8101 3.55658C12.1507 3.55658 11.6162 4.07888 11.6162 4.72329Z" fill="url(#paint4_linear_1634_4889)"/>
<path d="M7.88966 22.8092H7.89336C8.16578 22.8092 8.40899 22.6418 8.50042 22.3908L10.097 18.0126L11.6225 22.3829C11.7112 22.6369 11.9551 22.8082 12.2299 22.8093H12.2325C12.5062 22.8093 12.7501 22.6404 12.8408 22.3877L15.005 16.3538C15.1228 16.0256 14.9459 15.6661 14.6099 15.551C14.2742 15.4359 13.9062 15.6088 13.7884 15.9371L12.2407 20.2522L10.7203 15.8963C10.5479 15.3428 9.68284 15.3377 9.50314 15.8883L7.90436 20.2727L6.38361 15.9477C6.26794 15.6187 5.90133 15.4434 5.56463 15.5568C5.22801 15.6698 5.04883 16.0282 5.16459 16.3571L7.28381 22.384C7.37275 22.6372 7.61578 22.8077 7.88966 22.8092Z" fill="url(#paint5_linear_1634_4889)"/>
<path d="M19.815 22.8092H19.8187C20.0911 22.8092 20.3343 22.6418 20.4257 22.3908L22.0223 18.0125L23.5478 22.3828C23.6365 22.6369 23.8804 22.8081 24.1551 22.8093H24.1578C24.4315 22.8093 24.6754 22.6403 24.7661 22.3877L26.9303 16.3538C27.0481 16.0256 26.8712 15.6661 26.5352 15.551C26.1995 15.4359 25.8315 15.6087 25.7137 15.9371L24.166 20.2522L22.6456 15.8963C22.4731 15.3427 21.6081 15.3376 21.4284 15.8882L19.8297 20.2727L18.3089 15.9478C18.1932 15.6187 17.8265 15.4435 17.4899 15.5568C17.1533 15.6699 16.9741 16.0282 17.0899 16.3572L19.2091 22.3841C19.2981 22.6371 19.5412 22.8076 19.815 22.8092Z" fill="url(#paint6_linear_1634_4889)"/>
<path d="M31.5471 22.8092H31.5507C31.8231 22.8092 32.0663 22.6418 32.1577 22.3908L33.7543 18.0126L35.2798 22.3829C35.3685 22.6369 35.6124 22.8082 35.8872 22.8093H35.8898C36.1635 22.8093 36.4074 22.6404 36.4981 22.3877L38.6623 16.3538C38.78 16.0256 38.6031 15.6661 38.2671 15.551C37.9314 15.4359 37.5635 15.6088 37.4456 15.9371L35.898 20.2522L34.3776 15.8963C34.2053 15.3428 33.3401 15.3377 33.1605 15.8883L31.5617 20.2727L30.0408 15.9478C29.9252 15.6188 29.559 15.4436 29.2219 15.5569C28.8852 15.6699 28.7061 16.0283 28.8218 16.3572L30.9411 22.3841C31.0301 22.6372 31.2731 22.8077 31.5471 22.8092Z" fill="url(#paint7_linear_1634_4889)"/>
<defs>
<linearGradient id="paint0_linear_1634_4889" x1="16.3039" y1="15.8595" x2="16.3039" y2="36.4953" gradientUnits="userSpaceOnUse">
<stop offset="0.0694443" stop-color="white"/>
<stop offset="1" stop-color="#47F258"/>
</linearGradient>
<linearGradient id="paint1_linear_1634_4889" x1="22" y1="0.504837" x2="22" y2="33.308" gradientUnits="userSpaceOnUse">
<stop offset="0.0694443" stop-color="white"/>
<stop offset="1" stop-color="#47F258"/>
</linearGradient>
<linearGradient id="paint2_linear_1634_4889" x1="5.46484" y1="3.55658" x2="5.46484" y2="5.89008" gradientUnits="userSpaceOnUse">
<stop offset="0.0694443" stop-color="white"/>
<stop offset="1" stop-color="#47F258"/>
</linearGradient>
<linearGradient id="paint3_linear_1634_4889" x1="9.1372" y1="3.55658" x2="9.1372" y2="5.89008" gradientUnits="userSpaceOnUse">
<stop offset="0.0694443" stop-color="white"/>
<stop offset="1" stop-color="#47F258"/>
</linearGradient>
<linearGradient id="paint4_linear_1634_4889" x1="12.8101" y1="3.55658" x2="12.8101" y2="5.89008" gradientUnits="userSpaceOnUse">
<stop offset="0.0694443" stop-color="white"/>
<stop offset="1" stop-color="#47F258"/>
</linearGradient>
<linearGradient id="paint5_linear_1634_4889" x1="10.0854" y1="15.4782" x2="10.0854" y2="22.8093" gradientUnits="userSpaceOnUse">
<stop offset="0.0694443" stop-color="white"/>
<stop offset="1" stop-color="#47F258"/>
</linearGradient>
<linearGradient id="paint6_linear_1634_4889" x1="22.0107" y1="15.4782" x2="22.0107" y2="22.8093" gradientUnits="userSpaceOnUse">
<stop offset="0.0694443" stop-color="white"/>
<stop offset="1" stop-color="#47F258"/>
</linearGradient>
<linearGradient id="paint7_linear_1634_4889" x1="33.7427" y1="15.4782" x2="33.7427" y2="22.8093" gradientUnits="userSpaceOnUse">
<stop offset="0.0694443" stop-color="white"/>
<stop offset="1" stop-color="#47F258"/>
</linearGradient>
</defs>
</svg>
